ISO-10303-21;
HEADER;
/* Generated by software containing ST-Developer
 * from STEP Tools, Inc. (www.steptools.com) 
 */

FILE_DESCRIPTION(
/* description */ (''),
/* implementation_level */ '2;1');

FILE_NAME(
/* name */ 'Bottom_KeyboardL.step',
/* time_stamp */ '2026-08-10T23:31:14-04:00',
/* author */ (''),
/* organization */ (''),
/* preprocessor_version */ 'ST-DEVELOPER v20.1',
/* originating_system */ 'Autodesk Translation Framework v15.8.0.0',
/* authorisation */ '');

FILE_SCHEMA (('AUTOMOTIVE_DESIGN { 1 0 10303 214 3 1 1 }'));
ENDSEC;

DATA;
#10=MECHANICAL_DESIGN_GEOMETRIC_PRESENTATION_REPRESENTATION('',(#37,#38,
#39,#40),#1635);
#11=ITEM_DEFINED_TRANSFORMATION($,$,#978,#1068);
#12=ITEM_DEFINED_TRANSFORMATION($,$,#978,#1069);
#13=ITEM_DEFINED_TRANSFORMATION($,$,#996,#1070);
#14=(
REPRESENTATION_RELATIONSHIP($,$,#1650,#1649)
REPRESENTATION_RELATIONSHIP_WITH_TRANSFORMATION(#11)
SHAPE_REPRESENTATION_RELATIONSHIP()
);
#15=(
REPRESENTATION_RELATIONSHIP($,$,#1650,#1649)
REPRESENTATION_RELATIONSHIP_WITH_TRANSFORMATION(#12)
SHAPE_REPRESENTATION_RELATIONSHIP()
);
#16=(
REPRESENTATION_RELATIONSHIP($,$,#1651,#1649)
REPRESENTATION_RELATIONSHIP_WITH_TRANSFORMATION(#13)
SHAPE_REPRESENTATION_RELATIONSHIP()
);
#17=CONTEXT_DEPENDENT_SHAPE_REPRESENTATION(#14,#1646);
#18=CONTEXT_DEPENDENT_SHAPE_REPRESENTATION(#15,#1647);
#19=CONTEXT_DEPENDENT_SHAPE_REPRESENTATION(#16,#1648);
#20=NEXT_ASSEMBLY_USAGE_OCCURRENCE('grippers:1','grippers:1',
'grippers:1',#1653,#1654,'grippers:1');
#21=NEXT_ASSEMBLY_USAGE_OCCURRENCE('grippers:2','grippers:2',
'grippers:2',#1653,#1654,'grippers:2');
#22=NEXT_ASSEMBLY_USAGE_OCCURRENCE('Component2:1','Component2:1',
'Component2:1',#1653,#1655,'Component2:1');
#23=ELLIPSE('',#998,5.01876050741472,5.);
#24=ELLIPSE('',#999,5.01876050741472,5.);
#25=ELLIPSE('',#1007,57.8811549507514,5.);
#26=ELLIPSE('',#1058,5.01876050741472,5.);
#27=ELLIPSE('',#1059,5.01876050741472,5.);
#28=ELLIPSE('',#1062,5.01876050741472,5.);
#29=ELLIPSE('',#1063,5.01876050741472,5.);
#30=SHAPE_REPRESENTATION_RELATIONSHIP('SRR','None',#1650,#32);
#31=SHAPE_REPRESENTATION_RELATIONSHIP('SRR','None',#1651,#33);
#32=ADVANCED_BREP_SHAPE_REPRESENTATION('',(#41,#42),#1633);
#33=ADVANCED_BREP_SHAPE_REPRESENTATION('',(#43,#44),#1634);
#34=FACE_BOUND('',#340,.T.);
#35=FACE_BOUND('',#354,.T.);
#36=FACE_BOUND('',#375,.T.);
#37=STYLED_ITEM('',(#1669),#41);
#38=STYLED_ITEM('',(#1669),#42);
#39=STYLED_ITEM('',(#1670),#43);
#40=STYLED_ITEM('',(#1670),#44);
#41=MANIFOLD_SOLID_BREP('Body1',#950);
#42=MANIFOLD_SOLID_BREP('Body2',#951);
#43=MANIFOLD_SOLID_BREP('Body1',#952);
#44=MANIFOLD_SOLID_BREP('Body1',#953);
#45=PLANE('',#986);
#46=PLANE('',#987);
#47=PLANE('',#995);
#48=PLANE('',#997);
#49=PLANE('',#1000);
#50=PLANE('',#1001);
#51=PLANE('',#1002);
#52=PLANE('',#1009);
#53=PLANE('',#1010);
#54=PLANE('',#1012);
#55=PLANE('',#1013);
#56=PLANE('',#1020);
#57=PLANE('',#1028);
#58=PLANE('',#1032);
#59=PLANE('',#1033);
#60=PLANE('',#1036);
#61=PLANE('',#1039);
#62=PLANE('',#1042);
#63=PLANE('',#1045);
#64=PLANE('',#1046);
#65=PLANE('',#1047);
#66=PLANE('',#1048);
#67=PLANE('',#1049);
#68=PLANE('',#1050);
#69=PLANE('',#1051);
#70=PLANE('',#1052);
#71=PLANE('',#1053);
#72=PLANE('',#1054);
#73=PLANE('',#1055);
#74=PLANE('',#1056);
#75=PLANE('',#1057);
#76=PLANE('',#1060);
#77=PLANE('',#1061);
#78=PLANE('',#1064);
#79=PLANE('',#1066);
#80=LINE('',#1365,#174);
#81=LINE('',#1379,#175);
#82=LINE('',#1386,#176);
#83=LINE('',#1388,#177);
#84=LINE('',#1390,#178);
#85=LINE('',#1392,#179);
#86=LINE('',#1394,#180);
#87=LINE('',#1396,#181);
#88=LINE('',#1400,#182);
#89=LINE('',#1403,#183);
#90=LINE('',#1406,#184);
#91=LINE('',#1408,#185);
#92=LINE('',#1409,#186);
#93=LINE('',#1412,#187);
#94=LINE('',#1414,#188);
#95=LINE('',#1415,#189);
#96=LINE('',#1418,#190);
#97=LINE('',#1420,#191);
#98=LINE('',#1421,#192);
#99=LINE('',#1430,#193);
#100=LINE('',#1433,#194);
#101=LINE('',#1437,#195);
#102=LINE('',#1438,#196);
#103=LINE('',#1439,#197);
#104=LINE('',#1442,#198);
#105=LINE('',#1444,#199);
#106=LINE('',#1447,#200);
#107=LINE('',#1450,#201);
#108=LINE('',#1452,#202);
#109=LINE('',#1453,#203);
#110=LINE('',#1457,#204);
#111=LINE('',#1459,#205);
#112=LINE('',#1461,#206);
#113=LINE('',#1462,#207);
#114=LINE('',#1468,#208);
#115=LINE('',#1473,#209);
#116=LINE('',#1478,#210);
#117=LINE('',#1480,#211);
#118=LINE('',#1482,#212);
#119=LINE('',#1483,#213);
#120=LINE('',#1486,#214);
#121=LINE('',#1490,#215);
#122=LINE('',#1494,#216);
#123=LINE('',#1498,#217);
#124=LINE('',#1504,#218);
#125=LINE('',#1509,#219);
#126=LINE('',#1510,#220);
#127=LINE('',#1511,#221);
#128=LINE('',#1517,#222);
#129=LINE('',#1519,#223);
#130=LINE('',#1520,#224);
#131=LINE('',#1522,#225);
#132=LINE('',#1523,#226);
#133=LINE('',#1526,#227);
#134=LINE('',#1527,#228);
#135=LINE('',#1532,#229);
#136=LINE('',#1533,#230);
#137=LINE('',#1536,#231);
#138=LINE('',#1537,#232);
#139=LINE('',#1541,#233);
#140=LINE('',#1544,#234);
#141=LINE('',#1545,#235);
#142=LINE('',#1549,#236);
#143=LINE('',#1552,#237);
#144=LINE('',#1553,#238);
#145=LINE('',#1557,#239);
#146=LINE('',#1559,#240);
#147=LINE('',#1561,#241);
#148=LINE('',#1564,#242);
#149=LINE('',#1565,#243);
#150=LINE('',#1566,#244);
#151=LINE('',#1569,#245);
#152=LINE('',#1570,#246);
#153=LINE('',#1572,#247);
#154=LINE('',#1573,#248);
#155=LINE('',#1575,#249);
#156=LINE('',#1578,#250);
#157=LINE('',#1579,#251);
#158=LINE('',#1581,#252);
#159=LINE('',#1583,#253);
#160=LINE('',#1590,#254);
#161=LINE('',#1592,#255);
#162=LINE('',#1594,#256);
#163=LINE('',#1595,#257);
#164=LINE('',#1598,#258);
#165=LINE('',#1602,#259);
#166=LINE('',#1605,#260);
#167=LINE('',#1608,#261);
#168=LINE('',#1609,#262);
#169=LINE('',#1612,#263);
#170=LINE('',#1616,#264);
#171=LINE('',#1619,#265);
#172=LINE('',#1621,#266);
#173=LINE('',#1623,#267);
#174=VECTOR('',#1087,5.);
#175=VECTOR('',#1106,5.00700517815348);
#176=VECTOR('',#1115,10.);
#177=VECTOR('',#1116,10.);
#178=VECTOR('',#1117,10.);
#179=VECTOR('',#1118,10.);
#180=VECTOR('',#1119,10.);
#181=VECTOR('',#1120,10.);
#182=VECTOR('',#1123,10.);
#183=VECTOR('',#1126,10.);
#184=VECTOR('',#1129,10.);
#185=VECTOR('',#1130,10.);
#186=VECTOR('',#1131,10.);
#187=VECTOR('',#1134,10.);
#188=VECTOR('',#1135,10.);
#189=VECTOR('',#1136,10.);
#190=VECTOR('',#1139,5.);
#191=VECTOR('',#1140,10.);
#192=VECTOR('',#1141,10.);
#193=VECTOR('',#1152,5.);
#194=VECTOR('',#1155,10.);
#195=VECTOR('',#1158,10.);
#196=VECTOR('',#1159,10.);
#197=VECTOR('',#1160,10.);
#198=VECTOR('',#1163,10.);
#199=VECTOR('',#1164,10.);
#200=VECTOR('',#1167,10.);
#201=VECTOR('',#1170,10.);
#202=VECTOR('',#1171,10.);
#203=VECTOR('',#1172,10.);
#204=VECTOR('',#1175,10.);
#205=VECTOR('',#1176,10.);
#206=VECTOR('',#1177,10.);
#207=VECTOR('',#1178,10.);
#208=VECTOR('',#1185,10.);
#209=VECTOR('',#1190,10.);
#210=VECTOR('',#1195,10.);
#211=VECTOR('',#1196,10.);
#212=VECTOR('',#1197,10.);
#213=VECTOR('',#1198,10.);
#214=VECTOR('',#1199,10.);
#215=VECTOR('',#1202,10.);
#216=VECTOR('',#1205,10.);
#217=VECTOR('',#1208,10.);
#218=VECTOR('',#1215,10.);
#219=VECTOR('',#1220,10.);
#220=VECTOR('',#1221,10.);
#221=VECTOR('',#1222,10.);
#222=VECTOR('',#1231,10.);
#223=VECTOR('',#1232,10.);
#224=VECTOR('',#1233,10.);
#225=VECTOR('',#1234,10.);
#226=VECTOR('',#1235,10.);
#227=VECTOR('',#1238,10.);
#228=VECTOR('',#1239,10.);
#229=VECTOR('',#1244,10.);
#230=VECTOR('',#1245,10.);
#231=VECTOR('',#1248,10.);
#232=VECTOR('',#1249,10.);
#233=VECTOR('',#1254,10.);
#234=VECTOR('',#1257,10.);
#235=VECTOR('',#1258,10.);
#236=VECTOR('',#1263,10.);
#237=VECTOR('',#1266,10.);
#238=VECTOR('',#1267,10.);
#239=VECTOR('',#1272,10.);
#240=VECTOR('',#1275,10.);
#241=VECTOR('',#1278,10.);
#242=VECTOR('',#1281,10.);
#243=VECTOR('',#1282,10.);
#244=VECTOR('',#1283,10.);
#245=VECTOR('',#1286,10.);
#246=VECTOR('',#1287,10.);
#247=VECTOR('',#1288,10.);
#248=VECTOR('',#1289,10.);
#249=VECTOR('',#1292,10.);
#250=VECTOR('',#1295,10.);
#251=VECTOR('',#1296,10.);
#252=VECTOR('',#1299,10.);
#253=VECTOR('',#1302,10.);
#254=VECTOR('',#1311,10.);
#255=VECTOR('',#1312,10.);
#256=VECTOR('',#1313,10.);
#257=VECTOR('',#1314,10.);
#258=VECTOR('',#1317,10.);
#259=VECTOR('',#1320,10.);
#260=VECTOR('',#1323,10.);
#261=VECTOR('',#1326,10.);
#262=VECTOR('',#1327,10.);
#263=VECTOR('',#1330,10.);
#264=VECTOR('',#1333,10.);
#265=VECTOR('',#1338,10.);
#266=VECTOR('',#1341,10.);
#267=VECTOR('',#1344,10.);
#268=CYLINDRICAL_SURFACE('',#984,5.);
#269=CYLINDRICAL_SURFACE('',#993,5.00700517815348);
#270=CYLINDRICAL_SURFACE('',#1003,5.);
#271=CYLINDRICAL_SURFACE('',#1005,5.);
#272=CYLINDRICAL_SURFACE('',#1014,5.);
#273=CYLINDRICAL_SURFACE('',#1017,5.);
#274=CYLINDRICAL_SURFACE('',#1025,5.);
#275=CYLINDRICAL_SURFACE('',#1029,5.);
#276=CYLINDRICAL_SURFACE('',#1034,3.00000000000004);
#277=CYLINDRICAL_SURFACE('',#1037,3.00000000000001);
#278=CYLINDRICAL_SURFACE('',#1040,3.00000000000001);
#279=CYLINDRICAL_SURFACE('',#1043,3.00000000000004);
#280=CYLINDRICAL_SURFACE('',#1065,5.);
#281=CYLINDRICAL_SURFACE('',#1067,5.);
#282=FACE_OUTER_BOUND('',#333,.T.);
#283=FACE_OUTER_BOUND('',#334,.T.);
#284=FACE_OUTER_BOUND('',#335,.T.);
#285=FACE_OUTER_BOUND('',#336,.T.);
#286=FACE_OUTER_BOUND('',#337,.T.);
#287=FACE_OUTER_BOUND('',#338,.T.);
#288=FACE_OUTER_BOUND('',#339,.T.);
#289=FACE_OUTER_BOUND('',#341,.T.);
#290=FACE_OUTER_BOUND('',#342,.T.);
#291=FACE_OUTER_BOUND('',#343,.T.);
#292=FACE_OUTER_BOUND('',#344,.T.);
#293=FACE_OUTER_BOUND('',#345,.T.);
#294=FACE_OUTER_BOUND('',#346,.T.);
#295=FACE_OUTER_BOUND('',#347,.T.);
#296=FACE_OUTER_BOUND('',#348,.T.);
#297=FACE_OUTER_BOUND('',#349,.T.);
#298=FACE_OUTER_BOUND('',#350,.T.);
#299=FACE_OUTER_BOUND('',#351,.T.);
#300=FACE_OUTER_BOUND('',#352,.T.);
#301=FACE_OUTER_BOUND('',#353,.T.);
#302=FACE_OUTER_BOUND('',#355,.T.);
#303=FACE_OUTER_BOUND('',#356,.T.);
#304=FACE_OUTER_BOUND('',#357,.T.);
#305=FACE_OUTER_BOUND('',#358,.T.);
#306=FACE_OUTER_BOUND('',#359,.T.);
#307=FACE_OUTER_BOUND('',#360,.T.);
#308=FACE_OUTER_BOUND('',#361,.T.);
#309=FACE_OUTER_BOUND('',#362,.T.);
#310=FACE_OUTER_BOUND('',#363,.T.);
#311=FACE_OUTER_BOUND('',#364,.T.);
#312=FACE_OUTER_BOUND('',#365,.T.);
#313=FACE_OUTER_BOUND('',#366,.T.);
#314=FACE_OUTER_BOUND('',#367,.T.);
#315=FACE_OUTER_BOUND('',#368,.T.);
#316=FACE_OUTER_BOUND('',#369,.T.);
#317=FACE_OUTER_BOUND('',#370,.T.);
#318=FACE_OUTER_BOUND('',#371,.T.);
#319=FACE_OUTER_BOUND('',#372,.T.);
#320=FACE_OUTER_BOUND('',#373,.T.);
#321=FACE_OUTER_BOUND('',#374,.T.);
#322=FACE_OUTER_BOUND('',#376,.T.);
#323=FACE_OUTER_BOUND('',#377,.T.);
#324=FACE_OUTER_BOUND('',#378,.T.);
#325=FACE_OUTER_BOUND('',#379,.T.);
#326=FACE_OUTER_BOUND('',#380,.T.);
#327=FACE_OUTER_BOUND('',#381,.T.);
#328=FACE_OUTER_BOUND('',#382,.T.);
#329=FACE_OUTER_BOUND('',#383,.T.);
#330=FACE_OUTER_BOUND('',#384,.T.);
#331=FACE_OUTER_BOUND('',#385,.T.);
#332=FACE_OUTER_BOUND('',#386,.T.);
#333=EDGE_LOOP('',(#635,#636,#637,#638,#639));
#334=EDGE_LOOP('',(#640,#641,#642,#643,#644));
#335=EDGE_LOOP('',(#645));
#336=EDGE_LOOP('',(#646));
#337=EDGE_LOOP('',(#647,#648,#649,#650,#651));
#338=EDGE_LOOP('',(#652,#653,#654,#655,#656));
#339=EDGE_LOOP('',(#657));
#340=EDGE_LOOP('',(#658));
#341=EDGE_LOOP('',(#659,#660,#661,#662,#663,#664,#665,#666,#667,#668));
#342=EDGE_LOOP('',(#669,#670,#671,#672));
#343=EDGE_LOOP('',(#673,#674,#675,#676));
#344=EDGE_LOOP('',(#677,#678,#679,#680));
#345=EDGE_LOOP('',(#681,#682,#683,#684));
#346=EDGE_LOOP('',(#685,#686,#687,#688,#689,#690,#691));
#347=EDGE_LOOP('',(#692,#693,#694,#695));
#348=EDGE_LOOP('',(#696,#697,#698,#699,#700,#701));
#349=EDGE_LOOP('',(#702,#703,#704,#705));
#350=EDGE_LOOP('',(#706,#707,#708,#709));
#351=EDGE_LOOP('',(#710,#711,#712,#713));
#352=EDGE_LOOP('',(#714,#715,#716,#717));
#353=EDGE_LOOP('',(#718,#719,#720,#721));
#354=EDGE_LOOP('',(#722,#723,#724,#725,#726,#727,#728,#729));
#355=EDGE_LOOP('',(#730,#731,#732,#733));
#356=EDGE_LOOP('',(#734,#735,#736,#737));
#357=EDGE_LOOP('',(#738,#739,#740,#741,#742));
#358=EDGE_LOOP('',(#743,#744,#745,#746,#747,#748,#749,#750,#751,#752,#753,
#754,#755));
#359=EDGE_LOOP('',(#756,#757,#758,#759));
#360=EDGE_LOOP('',(#760,#761,#762,#763));
#361=EDGE_LOOP('',(#764,#765,#766,#767));
#362=EDGE_LOOP('',(#768,#769,#770,#771));
#363=EDGE_LOOP('',(#772,#773,#774,#775));
#364=EDGE_LOOP('',(#776,#777,#778,#779));
#365=EDGE_LOOP('',(#780,#781,#782,#783));
#366=EDGE_LOOP('',(#784,#785,#786,#787));
#367=EDGE_LOOP('',(#788,#789,#790,#791));
#368=EDGE_LOOP('',(#792,#793,#794,#795));
#369=EDGE_LOOP('',(#796,#797,#798,#799,#800,#801,#802));
#370=EDGE_LOOP('',(#803,#804,#805,#806,#807,#808,#809,#810,#811,#812,#813,
#814,#815));
#371=EDGE_LOOP('',(#816,#817,#818,#819));
#372=EDGE_LOOP('',(#820,#821,#822,#823,#824,#825,#826,#827));
#373=EDGE_LOOP('',(#828,#829,#830,#831));
#374=EDGE_LOOP('',(#832,#833,#834,#835));
#375=EDGE_LOOP('',(#836,#837,#838,#839,#840,#841,#842,#843));
#376=EDGE_LOOP('',(#844,#845,#846,#847));
#377=EDGE_LOOP('',(#848,#849,#850,#851));
#378=EDGE_LOOP('',(#852,#853,#854,#855,#856,#857,#858,#859,#860));
#379=EDGE_LOOP('',(#861,#862,#863,#864));
#380=EDGE_LOOP('',(#865,#866,#867,#868,#869,#870));
#381=EDGE_LOOP('',(#871,#872,#873,#874));
#382=EDGE_LOOP('',(#875,#876,#877,#878,#879,#880));
#383=EDGE_LOOP('',(#881,#882,#883,#884));
#384=EDGE_LOOP('',(#885,#886,#887,#888));
#385=EDGE_LOOP('',(#889,#890,#891,#892));
#386=EDGE_LOOP('',(#893,#894,#895,#896));
#387=CIRCLE('',#980,4.5);
#388=CIRCLE('',#981,0.5);
#389=CIRCLE('',#982,5.);
#390=CIRCLE('',#983,5.);
#391=CIRCLE('',#985,5.);
#392=CIRCLE('',#989,6.95700517815348);
#393=CIRCLE('',#990,1.95);
#394=CIRCLE('',#991,5.00700517815348);
#395=CIRCLE('',#992,5.00700517815348);
#396=CIRCLE('',#994,5.00700517815348);
#397=CIRCLE('',#1004,5.);
#398=CIRCLE('',#1006,5.);
#399=CIRCLE('',#1008,5.);
#400=CIRCLE('',#1011,5.);
#401=CIRCLE('',#1015,5.);
#402=CIRCLE('',#1016,5.);
#403=CIRCLE('',#1018,5.);
#404=CIRCLE('',#1019,5.);
#405=CIRCLE('',#1021,3.00000000000001);
#406=CIRCLE('',#1022,3.00000000000004);
#407=CIRCLE('',#1023,3.00000000000004);
#408=CIRCLE('',#1024,3.00000000000001);
#409=CIRCLE('',#1026,5.);
#410=CIRCLE('',#1027,5.);
#411=CIRCLE('',#1030,5.);
#412=CIRCLE('',#1031,5.);
#413=CIRCLE('',#1035,3.00000000000004);
#414=CIRCLE('',#1038,3.00000000000001);
#415=CIRCLE('',#1041,3.00000000000001);
#416=CIRCLE('',#1044,3.00000000000004);
#417=VERTEX_POINT('',#1356);
#418=VERTEX_POINT('',#1358);
#419=VERTEX_POINT('',#1360);
#420=VERTEX_POINT('',#1364);
#421=VERTEX_POINT('',#1370);
#422=VERTEX_POINT('',#1372);
#423=VERTEX_POINT('',#1374);
#424=VERTEX_POINT('',#1378);
#425=VERTEX_POINT('',#1384);
#426=VERTEX_POINT('',#1385);
#427=VERTEX_POINT('',#1387);
#428=VERTEX_POINT('',#1389);
#429=VERTEX_POINT('',#1391);
#430=VERTEX_POINT('',#1393);
#431=VERTEX_POINT('',#1395);
#432=VERTEX_POINT('',#1397);
#433=VERTEX_POINT('',#1399);
#434=VERTEX_POINT('',#1401);
#435=VERTEX_POINT('',#1405);
#436=VERTEX_POINT('',#1407);
#437=VERTEX_POINT('',#1411);
#438=VERTEX_POINT('',#1413);
#439=VERTEX_POINT('',#1417);
#440=VERTEX_POINT('',#1419);
#441=VERTEX_POINT('',#1425);
#442=VERTEX_POINT('',#1427);
#443=VERTEX_POINT('',#1429);
#444=VERTEX_POINT('',#1431);
#445=VERTEX_POINT('',#1435);
#446=VERTEX_POINT('',#1436);
#447=VERTEX_POINT('',#1441);
#448=VERTEX_POINT('',#1443);
#449=VERTEX_POINT('',#1445);
#450=VERTEX_POINT('',#1449);
#451=VERTEX_POINT('',#1451);
#452=VERTEX_POINT('',#1455);
#453=VERTEX_POINT('',#1456);
#454=VERTEX_POINT('',#1458);
#455=VERTEX_POINT('',#1460);
#456=VERTEX_POINT('',#1464);
#457=VERTEX_POINT('',#1466);
#458=VERTEX_POINT('',#1470);
#459=VERTEX_POINT('',#1472);
#460=VERTEX_POINT('',#1476);
#461=VERTEX_POINT('',#1477);
#462=VERTEX_POINT('',#1479);
#463=VERTEX_POINT('',#1481);
#464=VERTEX_POINT('',#1484);
#465=VERTEX_POINT('',#1485);
#466=VERTEX_POINT('',#1487);
#467=VERTEX_POINT('',#1489);
#468=VERTEX_POINT('',#1491);
#469=VERTEX_POINT('',#1493);
#470=VERTEX_POINT('',#1495);
#471=VERTEX_POINT('',#1497);
#472=VERTEX_POINT('',#1501);
#473=VERTEX_POINT('',#1503);
#474=VERTEX_POINT('',#1507);
#475=VERTEX_POINT('',#1508);
#476=VERTEX_POINT('',#1516);
#477=VERTEX_POINT('',#1518);
#478=VERTEX_POINT('',#1521);
#479=VERTEX_POINT('',#1525);
#480=VERTEX_POINT('',#1529);
#481=VERTEX_POINT('',#1530);
#482=VERTEX_POINT('',#1535);
#483=VERTEX_POINT('',#1539);
#484=VERTEX_POINT('',#1543);
#485=VERTEX_POINT('',#1547);
#486=VERTEX_POINT('',#1551);
#487=VERTEX_POINT('',#1555);
#488=VERTEX_POINT('',#1563);
#489=VERTEX_POINT('',#1568);
#490=VERTEX_POINT('',#1571);
#491=VERTEX_POINT('',#1577);
#492=VERTEX_POINT('',#1588);
#493=VERTEX_POINT('',#1589);
#494=VERTEX_POINT('',#1591);
#495=VERTEX_POINT('',#1593);
#496=VERTEX_POINT('',#1597);
#497=VERTEX_POINT('',#1599);
#498=VERTEX_POINT('',#1601);
#499=VERTEX_POINT('',#1603);
#500=VERTEX_POINT('',#1607);
#501=VERTEX_POINT('',#1611);
#502=VERTEX_POINT('',#1613);
#503=VERTEX_POINT('',#1615);
#504=EDGE_CURVE('',#417,#417,#387,.T.);
#505=EDGE_CURVE('',#417,#418,#388,.T.);
#506=EDGE_CURVE('',#418,#419,#389,.T.);
#507=EDGE_CURVE('',#419,#418,#390,.T.);
#508=EDGE_CURVE('',#419,#420,#80,.T.);
#509=EDGE_CURVE('',#420,#420,#391,.T.);
#510=EDGE_CURVE('',#421,#421,#392,.T.);
#511=EDGE_CURVE('',#421,#422,#393,.T.);
#512=EDGE_CURVE('',#423,#422,#394,.T.);
#513=EDGE_CURVE('',#422,#423,#395,.T.);
#514=EDGE_CURVE('',#423,#424,#81,.T.);
#515=EDGE_CURVE('',#424,#424,#396,.T.);
#516=EDGE_CURVE('',#425,#426,#82,.T.);
#517=EDGE_CURVE('',#427,#425,#83,.T.);
#518=EDGE_CURVE('',#428,#427,#84,.T.);
#519=EDGE_CURVE('',#429,#428,#85,.T.);
#520=EDGE_CURVE('',#430,#429,#86,.T.);
#521=EDGE_CURVE('',#431,#430,#87,.T.);
#522=EDGE_CURVE('',#432,#431,#23,.T.);
#523=EDGE_CURVE('',#433,#432,#88,.T.);
#524=EDGE_CURVE('',#434,#433,#24,.T.);
#525=EDGE_CURVE('',#426,#434,#89,.T.);
#526=EDGE_CURVE('',#426,#435,#90,.T.);
#527=EDGE_CURVE('',#436,#434,#91,.T.);
#528=EDGE_CURVE('',#436,#435,#92,.T.);
#529=EDGE_CURVE('',#427,#437,#93,.T.);
#530=EDGE_CURVE('',#438,#437,#94,.F.);
#531=EDGE_CURVE('',#438,#428,#95,.T.);
#532=EDGE_CURVE('',#439,#432,#96,.T.);
#533=EDGE_CURVE('',#439,#440,#97,.T.);
#534=EDGE_CURVE('',#433,#440,#98,.T.);
#535=EDGE_CURVE('',#440,#436,#397,.T.);
#536=EDGE_CURVE('',#441,#439,#398,.T.);
#537=EDGE_CURVE('',#431,#442,#25,.T.);
#538=EDGE_CURVE('',#442,#443,#99,.T.);
#539=EDGE_CURVE('',#443,#444,#399,.T.);
#540=EDGE_CURVE('',#444,#441,#100,.T.);
#541=EDGE_CURVE('',#445,#446,#101,.T.);
#542=EDGE_CURVE('',#443,#445,#102,.T.);
#543=EDGE_CURVE('',#442,#446,#103,.T.);
#544=EDGE_CURVE('',#447,#445,#104,.T.);
#545=EDGE_CURVE('',#447,#448,#105,.T.);
#546=EDGE_CURVE('',#448,#449,#400,.T.);
#547=EDGE_CURVE('',#444,#449,#106,.T.);
#548=EDGE_CURVE('',#450,#447,#107,.T.);
#549=EDGE_CURVE('',#451,#450,#108,.T.);
#550=EDGE_CURVE('',#448,#451,#109,.T.);
#551=EDGE_CURVE('',#452,#453,#110,.T.);
#552=EDGE_CURVE('',#454,#452,#111,.T.);
#553=EDGE_CURVE('',#455,#454,#112,.T.);
#554=EDGE_CURVE('',#455,#453,#113,.T.);
#555=EDGE_CURVE('',#456,#455,#401,.T.);
#556=EDGE_CURVE('',#454,#457,#402,.T.);
#557=EDGE_CURVE('',#457,#456,#114,.T.);
#558=EDGE_CURVE('',#453,#458,#403,.T.);
#559=EDGE_CURVE('',#458,#459,#115,.T.);
#560=EDGE_CURVE('',#459,#452,#404,.T.);
#561=EDGE_CURVE('',#460,#461,#116,.T.);
#562=EDGE_CURVE('',#462,#460,#117,.T.);
#563=EDGE_CURVE('',#463,#462,#118,.T.);
#564=EDGE_CURVE('',#461,#463,#119,.T.);
#565=EDGE_CURVE('',#464,#465,#120,.T.);
#566=EDGE_CURVE('',#465,#466,#405,.T.);
#567=EDGE_CURVE('',#466,#467,#121,.T.);
#568=EDGE_CURVE('',#467,#468,#406,.T.);
#569=EDGE_CURVE('',#468,#469,#122,.T.);
#570=EDGE_CURVE('',#469,#470,#407,.T.);
#571=EDGE_CURVE('',#470,#471,#123,.T.);
#572=EDGE_CURVE('',#471,#464,#408,.T.);
#573=EDGE_CURVE('',#462,#472,#409,.T.);
#574=EDGE_CURVE('',#472,#473,#124,.T.);
#575=EDGE_CURVE('',#473,#463,#410,.T.);
#576=EDGE_CURVE('',#474,#475,#125,.T.);
#577=EDGE_CURVE('',#473,#474,#126,.T.);
#578=EDGE_CURVE('',#475,#472,#127,.T.);
#579=EDGE_CURVE('',#475,#449,#411,.T.);
#580=EDGE_CURVE('',#451,#474,#412,.T.);
#581=EDGE_CURVE('',#461,#476,#128,.T.);
#582=EDGE_CURVE('',#477,#450,#129,.T.);
#583=EDGE_CURVE('',#458,#477,#130,.T.);
#584=EDGE_CURVE('',#456,#478,#131,.T.);
#585=EDGE_CURVE('',#478,#476,#132,.T.);
#586=EDGE_CURVE('',#479,#478,#133,.T.);
#587=EDGE_CURVE('',#479,#457,#134,.T.);
#588=EDGE_CURVE('',#480,#481,#413,.T.);
#589=EDGE_CURVE('',#470,#480,#135,.T.);
#590=EDGE_CURVE('',#469,#481,#136,.T.);
#591=EDGE_CURVE('',#482,#480,#137,.T.);
#592=EDGE_CURVE('',#471,#482,#138,.T.);
#593=EDGE_CURVE('',#483,#482,#414,.T.);
#594=EDGE_CURVE('',#464,#483,#139,.T.);
#595=EDGE_CURVE('',#484,#483,#140,.T.);
#596=EDGE_CURVE('',#465,#484,#141,.T.);
#597=EDGE_CURVE('',#485,#484,#415,.T.);
#598=EDGE_CURVE('',#466,#485,#142,.T.);
#599=EDGE_CURVE('',#486,#485,#143,.T.);
#600=EDGE_CURVE('',#467,#486,#144,.T.);
#601=EDGE_CURVE('',#487,#486,#416,.T.);
#602=EDGE_CURVE('',#468,#487,#145,.T.);
#603=EDGE_CURVE('',#481,#487,#146,.T.);
#604=EDGE_CURVE('',#446,#430,#147,.T.);
#605=EDGE_CURVE('',#429,#488,#148,.T.);
#606=EDGE_CURVE('',#441,#438,#149,.T.);
#607=EDGE_CURVE('',#449,#488,#150,.T.);
#608=EDGE_CURVE('',#489,#460,#151,.T.);
#609=EDGE_CURVE('',#489,#479,#152,.T.);
#610=EDGE_CURVE('',#459,#490,#153,.T.);
#611=EDGE_CURVE('',#488,#490,#154,.T.);
#612=EDGE_CURVE('',#490,#477,#155,.T.);
#613=EDGE_CURVE('',#435,#491,#156,.T.);
#614=EDGE_CURVE('',#491,#437,#157,.T.);
#615=EDGE_CURVE('',#491,#425,#158,.T.);
#616=EDGE_CURVE('',#476,#489,#159,.T.);
#617=EDGE_CURVE('',#492,#493,#160,.T.);
#618=EDGE_CURVE('',#493,#494,#161,.T.);
#619=EDGE_CURVE('',#494,#495,#162,.T.);
#620=EDGE_CURVE('',#495,#492,#163,.T.);
#621=EDGE_CURVE('',#493,#496,#164,.T.);
#622=EDGE_CURVE('',#497,#496,#26,.T.);
#623=EDGE_CURVE('',#497,#498,#165,.T.);
#624=EDGE_CURVE('',#499,#498,#27,.T.);
#625=EDGE_CURVE('',#494,#499,#166,.T.);
#626=EDGE_CURVE('',#492,#500,#167,.T.);
#627=EDGE_CURVE('',#496,#500,#168,.T.);
#628=EDGE_CURVE('',#495,#501,#169,.T.);
#629=EDGE_CURVE('',#502,#501,#28,.T.);
#630=EDGE_CURVE('',#502,#503,#170,.T.);
#631=EDGE_CURVE('',#500,#503,#29,.T.);
#632=EDGE_CURVE('',#501,#499,#171,.T.);
#633=EDGE_CURVE('',#498,#502,#172,.T.);
#634=EDGE_CURVE('',#503,#497,#173,.T.);
#635=ORIENTED_EDGE('',*,*,#504,.T.);
#636=ORIENTED_EDGE('',*,*,#505,.T.);
#637=ORIENTED_EDGE('',*,*,#506,.T.);
#638=ORIENTED_EDGE('',*,*,#507,.T.);
#639=ORIENTED_EDGE('',*,*,#505,.F.);
#640=ORIENTED_EDGE('',*,*,#507,.F.);
#641=ORIENTED_EDGE('',*,*,#508,.T.);
#642=ORIENTED_EDGE('',*,*,#509,.T.);
#643=ORIENTED_EDGE('',*,*,#508,.F.);
#644=ORIENTED_EDGE('',*,*,#506,.F.);
#645=ORIENTED_EDGE('',*,*,#504,.F.);
#646=ORIENTED_EDGE('',*,*,#509,.F.);
#647=ORIENTED_EDGE('',*,*,#510,.T.);
#648=ORIENTED_EDGE('',*,*,#511,.T.);
#649=ORIENTED_EDGE('',*,*,#512,.F.);
#650=ORIENTED_EDGE('',*,*,#513,.F.);
#651=ORIENTED_EDGE('',*,*,#511,.F.);
#652=ORIENTED_EDGE('',*,*,#512,.T.);
#653=ORIENTED_EDGE('',*,*,#513,.T.);
#654=ORIENTED_EDGE('',*,*,#514,.T.);
#655=ORIENTED_EDGE('',*,*,#515,.F.);
#656=ORIENTED_EDGE('',*,*,#514,.F.);
#657=ORIENTED_EDGE('',*,*,#510,.F.);
#658=ORIENTED_EDGE('',*,*,#515,.T.);
#659=ORIENTED_EDGE('',*,*,#516,.F.);
#660=ORIENTED_EDGE('',*,*,#517,.F.);
#661=ORIENTED_EDGE('',*,*,#518,.F.);
#662=ORIENTED_EDGE('',*,*,#519,.F.);
#663=ORIENTED_EDGE('',*,*,#520,.F.);
#664=ORIENTED_EDGE('',*,*,#521,.F.);
#665=ORIENTED_EDGE('',*,*,#522,.F.);
#666=ORIENTED_EDGE('',*,*,#523,.F.);
#667=ORIENTED_EDGE('',*,*,#524,.F.);
#668=ORIENTED_EDGE('',*,*,#525,.F.);
#669=ORIENTED_EDGE('',*,*,#526,.F.);
#670=ORIENTED_EDGE('',*,*,#525,.T.);
#671=ORIENTED_EDGE('',*,*,#527,.F.);
#672=ORIENTED_EDGE('',*,*,#528,.T.);
#673=ORIENTED_EDGE('',*,*,#529,.T.);
#674=ORIENTED_EDGE('',*,*,#530,.F.);
#675=ORIENTED_EDGE('',*,*,#531,.T.);
#676=ORIENTED_EDGE('',*,*,#518,.T.);
#677=ORIENTED_EDGE('',*,*,#532,.F.);
#678=ORIENTED_EDGE('',*,*,#533,.T.);
#679=ORIENTED_EDGE('',*,*,#534,.F.);
#680=ORIENTED_EDGE('',*,*,#523,.T.);
#681=ORIENTED_EDGE('',*,*,#524,.T.);
#682=ORIENTED_EDGE('',*,*,#534,.T.);
#683=ORIENTED_EDGE('',*,*,#535,.T.);
#684=ORIENTED_EDGE('',*,*,#527,.T.);
#685=ORIENTED_EDGE('',*,*,#536,.T.);
#686=ORIENTED_EDGE('',*,*,#532,.T.);
#687=ORIENTED_EDGE('',*,*,#522,.T.);
#688=ORIENTED_EDGE('',*,*,#537,.T.);
#689=ORIENTED_EDGE('',*,*,#538,.T.);
#690=ORIENTED_EDGE('',*,*,#539,.T.);
#691=ORIENTED_EDGE('',*,*,#540,.T.);
#692=ORIENTED_EDGE('',*,*,#541,.F.);
#693=ORIENTED_EDGE('',*,*,#542,.F.);
#694=ORIENTED_EDGE('',*,*,#538,.F.);
#695=ORIENTED_EDGE('',*,*,#543,.T.);
#696=ORIENTED_EDGE('',*,*,#544,.F.);
#697=ORIENTED_EDGE('',*,*,#545,.T.);
#698=ORIENTED_EDGE('',*,*,#546,.T.);
#699=ORIENTED_EDGE('',*,*,#547,.F.);
#700=ORIENTED_EDGE('',*,*,#539,.F.);
#701=ORIENTED_EDGE('',*,*,#542,.T.);
#702=ORIENTED_EDGE('',*,*,#548,.F.);
#703=ORIENTED_EDGE('',*,*,#549,.F.);
#704=ORIENTED_EDGE('',*,*,#550,.F.);
#705=ORIENTED_EDGE('',*,*,#545,.F.);
#706=ORIENTED_EDGE('',*,*,#551,.F.);
#707=ORIENTED_EDGE('',*,*,#552,.F.);
#708=ORIENTED_EDGE('',*,*,#553,.F.);
#709=ORIENTED_EDGE('',*,*,#554,.T.);
#710=ORIENTED_EDGE('',*,*,#555,.T.);
#711=ORIENTED_EDGE('',*,*,#553,.T.);
#712=ORIENTED_EDGE('',*,*,#556,.T.);
#713=ORIENTED_EDGE('',*,*,#557,.T.);
#714=ORIENTED_EDGE('',*,*,#558,.T.);
#715=ORIENTED_EDGE('',*,*,#559,.T.);
#716=ORIENTED_EDGE('',*,*,#560,.T.);
#717=ORIENTED_EDGE('',*,*,#551,.T.);
#718=ORIENTED_EDGE('',*,*,#561,.F.);
#719=ORIENTED_EDGE('',*,*,#562,.F.);
#720=ORIENTED_EDGE('',*,*,#563,.F.);
#721=ORIENTED_EDGE('',*,*,#564,.F.);
#722=ORIENTED_EDGE('',*,*,#565,.T.);
#723=ORIENTED_EDGE('',*,*,#566,.T.);
#724=ORIENTED_EDGE('',*,*,#567,.T.);
#725=ORIENTED_EDGE('',*,*,#568,.T.);
#726=ORIENTED_EDGE('',*,*,#569,.T.);
#727=ORIENTED_EDGE('',*,*,#570,.T.);
#728=ORIENTED_EDGE('',*,*,#571,.T.);
#729=ORIENTED_EDGE('',*,*,#572,.T.);
#730=ORIENTED_EDGE('',*,*,#573,.T.);
#731=ORIENTED_EDGE('',*,*,#574,.T.);
#732=ORIENTED_EDGE('',*,*,#575,.T.);
#733=ORIENTED_EDGE('',*,*,#563,.T.);
#734=ORIENTED_EDGE('',*,*,#576,.F.);
#735=ORIENTED_EDGE('',*,*,#577,.F.);
#736=ORIENTED_EDGE('',*,*,#574,.F.);
#737=ORIENTED_EDGE('',*,*,#578,.F.);
#738=ORIENTED_EDGE('',*,*,#579,.T.);
#739=ORIENTED_EDGE('',*,*,#546,.F.);
#740=ORIENTED_EDGE('',*,*,#550,.T.);
#741=ORIENTED_EDGE('',*,*,#580,.T.);
#742=ORIENTED_EDGE('',*,*,#576,.T.);
#743=ORIENTED_EDGE('',*,*,#581,.F.);
#744=ORIENTED_EDGE('',*,*,#564,.T.);
#745=ORIENTED_EDGE('',*,*,#575,.F.);
#746=ORIENTED_EDGE('',*,*,#577,.T.);
#747=ORIENTED_EDGE('',*,*,#580,.F.);
#748=ORIENTED_EDGE('',*,*,#549,.T.);
#749=ORIENTED_EDGE('',*,*,#582,.F.);
#750=ORIENTED_EDGE('',*,*,#583,.F.);
#751=ORIENTED_EDGE('',*,*,#558,.F.);
#752=ORIENTED_EDGE('',*,*,#554,.F.);
#753=ORIENTED_EDGE('',*,*,#555,.F.);
#754=ORIENTED_EDGE('',*,*,#584,.T.);
#755=ORIENTED_EDGE('',*,*,#585,.T.);
#756=ORIENTED_EDGE('',*,*,#586,.T.);
#757=ORIENTED_EDGE('',*,*,#584,.F.);
#758=ORIENTED_EDGE('',*,*,#557,.F.);
#759=ORIENTED_EDGE('',*,*,#587,.F.);
#760=ORIENTED_EDGE('',*,*,#588,.F.);
#761=ORIENTED_EDGE('',*,*,#589,.F.);
#762=ORIENTED_EDGE('',*,*,#570,.F.);
#763=ORIENTED_EDGE('',*,*,#590,.T.);
#764=ORIENTED_EDGE('',*,*,#591,.F.);
#765=ORIENTED_EDGE('',*,*,#592,.F.);
#766=ORIENTED_EDGE('',*,*,#571,.F.);
#767=ORIENTED_EDGE('',*,*,#589,.T.);
#768=ORIENTED_EDGE('',*,*,#593,.F.);
#769=ORIENTED_EDGE('',*,*,#594,.F.);
#770=ORIENTED_EDGE('',*,*,#572,.F.);
#771=ORIENTED_EDGE('',*,*,#592,.T.);
#772=ORIENTED_EDGE('',*,*,#595,.F.);
#773=ORIENTED_EDGE('',*,*,#596,.F.);
#774=ORIENTED_EDGE('',*,*,#565,.F.);
#775=ORIENTED_EDGE('',*,*,#594,.T.);
#776=ORIENTED_EDGE('',*,*,#597,.F.);
#777=ORIENTED_EDGE('',*,*,#598,.F.);
#778=ORIENTED_EDGE('',*,*,#566,.F.);
#779=ORIENTED_EDGE('',*,*,#596,.T.);
#780=ORIENTED_EDGE('',*,*,#599,.F.);
#781=ORIENTED_EDGE('',*,*,#600,.F.);
#782=ORIENTED_EDGE('',*,*,#567,.F.);
#783=ORIENTED_EDGE('',*,*,#598,.T.);
#784=ORIENTED_EDGE('',*,*,#601,.F.);
#785=ORIENTED_EDGE('',*,*,#602,.F.);
#786=ORIENTED_EDGE('',*,*,#568,.F.);
#787=ORIENTED_EDGE('',*,*,#600,.T.);
#788=ORIENTED_EDGE('',*,*,#603,.F.);
#789=ORIENTED_EDGE('',*,*,#590,.F.);
#790=ORIENTED_EDGE('',*,*,#569,.F.);
#791=ORIENTED_EDGE('',*,*,#602,.T.);
#792=ORIENTED_EDGE('',*,*,#604,.F.);
#793=ORIENTED_EDGE('',*,*,#543,.F.);
#794=ORIENTED_EDGE('',*,*,#537,.F.);
#795=ORIENTED_EDGE('',*,*,#521,.T.);
#796=ORIENTED_EDGE('',*,*,#605,.F.);
#797=ORIENTED_EDGE('',*,*,#519,.T.);
#798=ORIENTED_EDGE('',*,*,#531,.F.);
#799=ORIENTED_EDGE('',*,*,#606,.F.);
#800=ORIENTED_EDGE('',*,*,#540,.F.);
#801=ORIENTED_EDGE('',*,*,#547,.T.);
#802=ORIENTED_EDGE('',*,*,#607,.T.);
#803=ORIENTED_EDGE('',*,*,#608,.F.);
#804=ORIENTED_EDGE('',*,*,#609,.T.);
#805=ORIENTED_EDGE('',*,*,#587,.T.);
#806=ORIENTED_EDGE('',*,*,#556,.F.);
#807=ORIENTED_EDGE('',*,*,#552,.T.);
#808=ORIENTED_EDGE('',*,*,#560,.F.);
#809=ORIENTED_EDGE('',*,*,#610,.T.);
#810=ORIENTED_EDGE('',*,*,#611,.F.);
#811=ORIENTED_EDGE('',*,*,#607,.F.);
#812=ORIENTED_EDGE('',*,*,#579,.F.);
#813=ORIENTED_EDGE('',*,*,#578,.T.);
#814=ORIENTED_EDGE('',*,*,#573,.F.);
#815=ORIENTED_EDGE('',*,*,#562,.T.);
#816=ORIENTED_EDGE('',*,*,#612,.F.);
#817=ORIENTED_EDGE('',*,*,#610,.F.);
#818=ORIENTED_EDGE('',*,*,#559,.F.);
#819=ORIENTED_EDGE('',*,*,#583,.T.);
#820=ORIENTED_EDGE('',*,*,#613,.F.);
#821=ORIENTED_EDGE('',*,*,#528,.F.);
#822=ORIENTED_EDGE('',*,*,#535,.F.);
#823=ORIENTED_EDGE('',*,*,#533,.F.);
#824=ORIENTED_EDGE('',*,*,#536,.F.);
#825=ORIENTED_EDGE('',*,*,#606,.T.);
#826=ORIENTED_EDGE('',*,*,#530,.T.);
#827=ORIENTED_EDGE('',*,*,#614,.F.);
#828=ORIENTED_EDGE('',*,*,#615,.F.);
#829=ORIENTED_EDGE('',*,*,#614,.T.);
#830=ORIENTED_EDGE('',*,*,#529,.F.);
#831=ORIENTED_EDGE('',*,*,#517,.T.);
#832=ORIENTED_EDGE('',*,*,#616,.F.);
#833=ORIENTED_EDGE('',*,*,#585,.F.);
#834=ORIENTED_EDGE('',*,*,#586,.F.);
#835=ORIENTED_EDGE('',*,*,#609,.F.);
#836=ORIENTED_EDGE('',*,*,#595,.T.);
#837=ORIENTED_EDGE('',*,*,#593,.T.);
#838=ORIENTED_EDGE('',*,*,#591,.T.);
#839=ORIENTED_EDGE('',*,*,#588,.T.);
#840=ORIENTED_EDGE('',*,*,#603,.T.);
#841=ORIENTED_EDGE('',*,*,#601,.T.);
#842=ORIENTED_EDGE('',*,*,#599,.T.);
#843=ORIENTED_EDGE('',*,*,#597,.T.);
#844=ORIENTED_EDGE('',*,*,#616,.T.);
#845=ORIENTED_EDGE('',*,*,#608,.T.);
#846=ORIENTED_EDGE('',*,*,#561,.T.);
#847=ORIENTED_EDGE('',*,*,#581,.T.);
#848=ORIENTED_EDGE('',*,*,#613,.T.);
#849=ORIENTED_EDGE('',*,*,#615,.T.);
#850=ORIENTED_EDGE('',*,*,#516,.T.);
#851=ORIENTED_EDGE('',*,*,#526,.T.);
#852=ORIENTED_EDGE('',*,*,#604,.T.);
#853=ORIENTED_EDGE('',*,*,#520,.T.);
#854=ORIENTED_EDGE('',*,*,#605,.T.);
#855=ORIENTED_EDGE('',*,*,#611,.T.);
#856=ORIENTED_EDGE('',*,*,#612,.T.);
#857=ORIENTED_EDGE('',*,*,#582,.T.);
#858=ORIENTED_EDGE('',*,*,#548,.T.);
#859=ORIENTED_EDGE('',*,*,#544,.T.);
#860=ORIENTED_EDGE('',*,*,#541,.T.);
#861=ORIENTED_EDGE('',*,*,#617,.T.);
#862=ORIENTED_EDGE('',*,*,#618,.T.);
#863=ORIENTED_EDGE('',*,*,#619,.T.);
#864=ORIENTED_EDGE('',*,*,#620,.T.);
#865=ORIENTED_EDGE('',*,*,#618,.F.);
#866=ORIENTED_EDGE('',*,*,#621,.T.);
#867=ORIENTED_EDGE('',*,*,#622,.F.);
#868=ORIENTED_EDGE('',*,*,#623,.T.);
#869=ORIENTED_EDGE('',*,*,#624,.F.);
#870=ORIENTED_EDGE('',*,*,#625,.F.);
#871=ORIENTED_EDGE('',*,*,#617,.F.);
#872=ORIENTED_EDGE('',*,*,#626,.T.);
#873=ORIENTED_EDGE('',*,*,#627,.F.);
#874=ORIENTED_EDGE('',*,*,#621,.F.);
#875=ORIENTED_EDGE('',*,*,#620,.F.);
#876=ORIENTED_EDGE('',*,*,#628,.T.);
#877=ORIENTED_EDGE('',*,*,#629,.F.);
#878=ORIENTED_EDGE('',*,*,#630,.T.);
#879=ORIENTED_EDGE('',*,*,#631,.F.);
#880=ORIENTED_EDGE('',*,*,#626,.F.);
#881=ORIENTED_EDGE('',*,*,#619,.F.);
#882=ORIENTED_EDGE('',*,*,#625,.T.);
#883=ORIENTED_EDGE('',*,*,#632,.F.);
#884=ORIENTED_EDGE('',*,*,#628,.F.);
#885=ORIENTED_EDGE('',*,*,#629,.T.);
#886=ORIENTED_EDGE('',*,*,#632,.T.);
#887=ORIENTED_EDGE('',*,*,#624,.T.);
#888=ORIENTED_EDGE('',*,*,#633,.T.);
#889=ORIENTED_EDGE('',*,*,#633,.F.);
#890=ORIENTED_EDGE('',*,*,#623,.F.);
#891=ORIENTED_EDGE('',*,*,#634,.F.);
#892=ORIENTED_EDGE('',*,*,#630,.F.);
#893=ORIENTED_EDGE('',*,*,#622,.T.);
#894=ORIENTED_EDGE('',*,*,#627,.T.);
#895=ORIENTED_EDGE('',*,*,#631,.T.);
#896=ORIENTED_EDGE('',*,*,#634,.T.);
#897=TOROIDAL_SURFACE('',#979,4.5,0.5);
#898=TOROIDAL_SURFACE('',#988,6.95700517815348,1.95);
#899=ADVANCED_FACE('',(#282),#897,.T.);
#900=ADVANCED_FACE('',(#283),#268,.T.);
#901=ADVANCED_FACE('',(#284),#45,.T.);
#902=ADVANCED_FACE('',(#285),#46,.F.);
#903=ADVANCED_FACE('',(#286),#898,.F.);
#904=ADVANCED_FACE('',(#287),#269,.F.);
#905=ADVANCED_FACE('',(#288,#34),#47,.T.);
#906=ADVANCED_FACE('',(#289),#48,.T.);
#907=ADVANCED_FACE('',(#290),#49,.T.);
#908=ADVANCED_FACE('',(#291),#50,.T.);
#909=ADVANCED_FACE('',(#292),#51,.T.);
#910=ADVANCED_FACE('',(#293),#270,.T.);
#911=ADVANCED_FACE('',(#294),#271,.T.);
#912=ADVANCED_FACE('',(#295),#52,.T.);
#913=ADVANCED_FACE('',(#296),#53,.T.);
#914=ADVANCED_FACE('',(#297),#54,.T.);
#915=ADVANCED_FACE('',(#298),#55,.T.);
#916=ADVANCED_FACE('',(#299),#272,.F.);
#917=ADVANCED_FACE('',(#300),#273,.F.);
#918=ADVANCED_FACE('',(#301,#35),#56,.T.);
#919=ADVANCED_FACE('',(#302),#274,.T.);
#920=ADVANCED_FACE('',(#303),#57,.T.);
#921=ADVANCED_FACE('',(#304),#275,.T.);
#922=ADVANCED_FACE('',(#305),#58,.F.);
#923=ADVANCED_FACE('',(#306),#59,.F.);
#924=ADVANCED_FACE('',(#307),#276,.F.);
#925=ADVANCED_FACE('',(#308),#60,.F.);
#926=ADVANCED_FACE('',(#309),#277,.F.);
#927=ADVANCED_FACE('',(#310),#61,.F.);
#928=ADVANCED_FACE('',(#311),#278,.F.);
#929=ADVANCED_FACE('',(#312),#62,.F.);
#930=ADVANCED_FACE('',(#313),#279,.F.);
#931=ADVANCED_FACE('',(#314),#63,.F.);
#932=ADVANCED_FACE('',(#315),#64,.F.);
#933=ADVANCED_FACE('',(#316),#65,.T.);
#934=ADVANCED_FACE('',(#317),#66,.T.);
#935=ADVANCED_FACE('',(#318),#67,.T.);
#936=ADVANCED_FACE('',(#319),#68,.T.);
#937=ADVANCED_FACE('',(#320),#69,.T.);
#938=ADVANCED_FACE('',(#321,#36),#70,.T.);
#939=ADVANCED_FACE('',(#322),#71,.T.);
#940=ADVANCED_FACE('',(#323),#72,.T.);
#941=ADVANCED_FACE('',(#324),#73,.T.);
#942=ADVANCED_FACE('',(#325),#74,.T.);
#943=ADVANCED_FACE('',(#326),#75,.T.);
#944=ADVANCED_FACE('',(#327),#76,.T.);
#945=ADVANCED_FACE('',(#328),#77,.T.);
#946=ADVANCED_FACE('',(#329),#78,.T.);
#947=ADVANCED_FACE('',(#330),#280,.T.);
#948=ADVANCED_FACE('',(#331),#79,.T.);
#949=ADVANCED_FACE('',(#332),#281,.T.);
#950=CLOSED_SHELL('',(#899,#900,#901,#902));
#951=CLOSED_SHELL('',(#903,#904,#905));
#952=CLOSED_SHELL('',(#906,#907,#908,#909,#910,#911,#912,#913,#914,#915,
#916,#917,#918,#919,#920,#921,#922,#923,#924,#925,#926,#927,#928,#929,#930,
#931,#932,#933,#934,#935,#936,#937,#938,#939,#940,#941));
#953=CLOSED_SHELL('',(#942,#943,#944,#945,#946,#947,#948,#949));
#954=DERIVED_UNIT_ELEMENT(#958,1.);
#955=DERIVED_UNIT_ELEMENT(#1637,-3.);
#956=DERIVED_UNIT_ELEMENT(#958,1.);
#957=DERIVED_UNIT_ELEMENT(#1637,-3.);
#958=(
MASS_UNIT()
NAMED_UNIT(*)
SI_UNIT(.KILO.,.GRAM.)
);
#959=DERIVED_UNIT((#954,#955));
#960=DERIVED_UNIT((#956,#957));
#961=MEASURE_REPRESENTATION_ITEM('density measure',
POSITIVE_RATIO_MEASURE(7850.),#959);
#962=MEASURE_REPRESENTATION_ITEM('density measure',
POSITIVE_RATIO_MEASURE(7850.),#960);
#963=PROPERTY_DEFINITION_REPRESENTATION(#973,#967);
#964=PROPERTY_DEFINITION_REPRESENTATION(#974,#968);
#965=PROPERTY_DEFINITION_REPRESENTATION(#975,#969);
#966=PROPERTY_DEFINITION_REPRESENTATION(#976,#970);
#967=REPRESENTATION('material name',(#971),#1633);
#968=REPRESENTATION('density',(#961),#1633);
#969=REPRESENTATION('material name',(#972),#1634);
#970=REPRESENTATION('density',(#962),#1634);
#971=DESCRIPTIVE_REPRESENTATION_ITEM('Steel','Steel');
#972=DESCRIPTIVE_REPRESENTATION_ITEM('Steel','Steel');
#973=PROPERTY_DEFINITION('material property','material name',#1654);
#974=PROPERTY_DEFINITION('material property','density of part',#1654);
#975=PROPERTY_DEFINITION('material property','material name',#1655);
#976=PROPERTY_DEFINITION('material property','density of part',#1655);
#977=AXIS2_PLACEMENT_3D('',#1353,#1071,#1072);
#978=AXIS2_PLACEMENT_3D('',#1354,#1073,#1074);
#979=AXIS2_PLACEMENT_3D('',#1355,#1075,#1076);
#980=AXIS2_PLACEMENT_3D('',#1357,#1077,#1078);
#981=AXIS2_PLACEMENT_3D('',#1359,#1079,#1080);
#982=AXIS2_PLACEMENT_3D('',#1361,#1081,#1082);
#983=AXIS2_PLACEMENT_3D('',#1362,#1083,#1084);
#984=AXIS2_PLACEMENT_3D('',#1363,#1085,#1086);
#985=AXIS2_PLACEMENT_3D('',#1366,#1088,#1089);
#986=AXIS2_PLACEMENT_3D('',#1367,#1090,#1091);
#987=AXIS2_PLACEMENT_3D('',#1368,#1092,#1093);
#988=AXIS2_PLACEMENT_3D('',#1369,#1094,#1095);
#989=AXIS2_PLACEMENT_3D('',#1371,#1096,#1097);
#990=AXIS2_PLACEMENT_3D('',#1373,#1098,#1099);
#991=AXIS2_PLACEMENT_3D('',#1375,#1100,#1101);
#992=AXIS2_PLACEMENT_3D('',#1376,#1102,#1103);
#993=AXIS2_PLACEMENT_3D('',#1377,#1104,#1105);
#994=AXIS2_PLACEMENT_3D('',#1380,#1107,#1108);
#995=AXIS2_PLACEMENT_3D('',#1381,#1109,#1110);
#996=AXIS2_PLACEMENT_3D('',#1382,#1111,#1112);
#997=AXIS2_PLACEMENT_3D('',#1383,#1113,#1114);
#998=AXIS2_PLACEMENT_3D('',#1398,#1121,#1122);
#999=AXIS2_PLACEMENT_3D('',#1402,#1124,#1125);
#1000=AXIS2_PLACEMENT_3D('',#1404,#1127,#1128);
#1001=AXIS2_PLACEMENT_3D('',#1410,#1132,#1133);
#1002=AXIS2_PLACEMENT_3D('',#1416,#1137,#1138);
#1003=AXIS2_PLACEMENT_3D('',#1422,#1142,#1143);
#1004=AXIS2_PLACEMENT_3D('',#1423,#1144,#1145);
#1005=AXIS2_PLACEMENT_3D('',#1424,#1146,#1147);
#1006=AXIS2_PLACEMENT_3D('',#1426,#1148,#1149);
#1007=AXIS2_PLACEMENT_3D('',#1428,#1150,#1151);
#1008=AXIS2_PLACEMENT_3D('',#1432,#1153,#1154);
#1009=AXIS2_PLACEMENT_3D('',#1434,#1156,#1157);
#1010=AXIS2_PLACEMENT_3D('',#1440,#1161,#1162);
#1011=AXIS2_PLACEMENT_3D('',#1446,#1165,#1166);
#1012=AXIS2_PLACEMENT_3D('',#1448,#1168,#1169);
#1013=AXIS2_PLACEMENT_3D('',#1454,#1173,#1174);
#1014=AXIS2_PLACEMENT_3D('',#1463,#1179,#1180);
#1015=AXIS2_PLACEMENT_3D('',#1465,#1181,#1182);
#1016=AXIS2_PLACEMENT_3D('',#1467,#1183,#1184);
#1017=AXIS2_PLACEMENT_3D('',#1469,#1186,#1187);
#1018=AXIS2_PLACEMENT_3D('',#1471,#1188,#1189);
#1019=AXIS2_PLACEMENT_3D('',#1474,#1191,#1192);
#1020=AXIS2_PLACEMENT_3D('',#1475,#1193,#1194);
#1021=AXIS2_PLACEMENT_3D('',#1488,#1200,#1201);
#1022=AXIS2_PLACEMENT_3D('',#1492,#1203,#1204);
#1023=AXIS2_PLACEMENT_3D('',#1496,#1206,#1207);
#1024=AXIS2_PLACEMENT_3D('',#1499,#1209,#1210);
#1025=AXIS2_PLACEMENT_3D('',#1500,#1211,#1212);
#1026=AXIS2_PLACEMENT_3D('',#1502,#1213,#1214);
#1027=AXIS2_PLACEMENT_3D('',#1505,#1216,#1217);
#1028=AXIS2_PLACEMENT_3D('',#1506,#1218,#1219);
#1029=AXIS2_PLACEMENT_3D('',#1512,#1223,#1224);
#1030=AXIS2_PLACEMENT_3D('',#1513,#1225,#1226);
#1031=AXIS2_PLACEMENT_3D('',#1514,#1227,#1228);
#1032=AXIS2_PLACEMENT_3D('',#1515,#1229,#1230);
#1033=AXIS2_PLACEMENT_3D('',#1524,#1236,#1237);
#1034=AXIS2_PLACEMENT_3D('',#1528,#1240,#1241);
#1035=AXIS2_PLACEMENT_3D('',#1531,#1242,#1243);
#1036=AXIS2_PLACEMENT_3D('',#1534,#1246,#1247);
#1037=AXIS2_PLACEMENT_3D('',#1538,#1250,#1251);
#1038=AXIS2_PLACEMENT_3D('',#1540,#1252,#1253);
#1039=AXIS2_PLACEMENT_3D('',#1542,#1255,#1256);
#1040=AXIS2_PLACEMENT_3D('',#1546,#1259,#1260);
#1041=AXIS2_PLACEMENT_3D('',#1548,#1261,#1262);
#1042=AXIS2_PLACEMENT_3D('',#1550,#1264,#1265);
#1043=AXIS2_PLACEMENT_3D('',#1554,#1268,#1269);
#1044=AXIS2_PLACEMENT_3D('',#1556,#1270,#1271);
#1045=AXIS2_PLACEMENT_3D('',#1558,#1273,#1274);
#1046=AXIS2_PLACEMENT_3D('',#1560,#1276,#1277);
#1047=AXIS2_PLACEMENT_3D('',#1562,#1279,#1280);
#1048=AXIS2_PLACEMENT_3D('',#1567,#1284,#1285);
#1049=AXIS2_PLACEMENT_3D('',#1574,#1290,#1291);
#1050=AXIS2_PLACEMENT_3D('',#1576,#1293,#1294);
#1051=AXIS2_PLACEMENT_3D('',#1580,#1297,#1298);
#1052=AXIS2_PLACEMENT_3D('',#1582,#1300,#1301);
#1053=AXIS2_PLACEMENT_3D('',#1584,#1303,#1304);
#1054=AXIS2_PLACEMENT_3D('',#1585,#1305,#1306);
#1055=AXIS2_PLACEMENT_3D('',#1586,#1307,#1308);
#1056=AXIS2_PLACEMENT_3D('',#1587,#1309,#1310);
#1057=AXIS2_PLACEMENT_3D('',#1596,#1315,#1316);
#1058=AXIS2_PLACEMENT_3D('',#1600,#1318,#1319);
#1059=AXIS2_PLACEMENT_3D('',#1604,#1321,#1322);
#1060=AXIS2_PLACEMENT_3D('',#1606,#1324,#1325);
#1061=AXIS2_PLACEMENT_3D('',#1610,#1328,#1329);
#1062=AXIS2_PLACEMENT_3D('',#1614,#1331,#1332);
#1063=AXIS2_PLACEMENT_3D('',#1617,#1334,#1335);
#1064=AXIS2_PLACEMENT_3D('',#1618,#1336,#1337);
#1065=AXIS2_PLACEMENT_3D('',#1620,#1339,#1340);
#1066=AXIS2_PLACEMENT_3D('',#1622,#1342,#1343);
#1067=AXIS2_PLACEMENT_3D('',#1624,#1345,#1346);
#1068=AXIS2_PLACEMENT_3D('',#1625,#1347,#1348);
#1069=AXIS2_PLACEMENT_3D('',#1626,#1349,#1350);
#1070=AXIS2_PLACEMENT_3D('',#1627,#1351,#1352);
#1071=DIRECTION('axis',(0.,0.,1.));
#1072=DIRECTION('refdir',(1.,0.,0.));
#1073=DIRECTION('axis',(0.,0.,1.));
#1074=DIRECTION('refdir',(1.,0.,0.));
#1075=DIRECTION('center_axis',(0.,0.,-1.));
#1076=DIRECTION('ref_axis',(-1.,0.,0.));
#1077=DIRECTION('center_axis',(0.,0.,1.));
#1078=DIRECTION('ref_axis',(1.,0.,0.));
#1079=DIRECTION('center_axis',(0.,-1.,0.));
#1080=DIRECTION('ref_axis',(1.,0.,0.));
#1081=DIRECTION('center_axis',(0.,0.,-1.));
#1082=DIRECTION('ref_axis',(1.,0.,0.));
#1083=DIRECTION('center_axis',(0.,0.,-1.));
#1084=DIRECTION('ref_axis',(1.,0.,0.));
#1085=DIRECTION('center_axis',(0.,0.,-1.));
#1086=DIRECTION('ref_axis',(1.,0.,0.));
#1087=DIRECTION('',(0.,0.,1.));
#1088=DIRECTION('center_axis',(0.,0.,-1.));
#1089=DIRECTION('ref_axis',(1.,0.,0.));
#1090=DIRECTION('center_axis',(0.,0.,-1.));
#1091=DIRECTION('ref_axis',(1.,0.,0.));
#1092=DIRECTION('center_axis',(0.,0.,-1.));
#1093=DIRECTION('ref_axis',(1.,0.,0.));
#1094=DIRECTION('center_axis',(0.,0.,-1.));
#1095=DIRECTION('ref_axis',(-1.,0.,0.));
#1096=DIRECTION('center_axis',(0.,0.,-1.));
#1097=DIRECTION('ref_axis',(1.,0.,0.));
#1098=DIRECTION('center_axis',(0.,-1.,0.));
#1099=DIRECTION('ref_axis',(1.,0.,0.));
#1100=DIRECTION('center_axis',(0.,0.,-1.));
#1101=DIRECTION('ref_axis',(1.,0.,0.));
#1102=DIRECTION('center_axis',(0.,0.,-1.));
#1103=DIRECTION('ref_axis',(1.,0.,0.));
#1104=DIRECTION('center_axis',(0.,0.,-1.));
#1105=DIRECTION('ref_axis',(0.,1.,0.));
#1106=DIRECTION('',(0.,0.,1.));
#1107=DIRECTION('center_axis',(0.,0.,-1.));
#1108=DIRECTION('ref_axis',(1.,0.,0.));
#1109=DIRECTION('center_axis',(0.,0.,1.));
#1110=DIRECTION('ref_axis',(1.,0.,0.));
#1111=DIRECTION('axis',(0.,0.,1.));
#1112=DIRECTION('refdir',(1.,0.,0.));
#1113=DIRECTION('center_axis',(3.43828134345819E-73,-0.0863839017123705,
-0.99626192415697));
#1114=DIRECTION('ref_axis',(-3.96535548768357E-72,0.99626192415697,-0.0863839017123705));
#1115=DIRECTION('',(8.57555240598774E-24,0.99626192415697,-0.0863839017123705));
#1116=DIRECTION('',(1.,3.98023390388931E-72,0.));
#1117=DIRECTION('',(-3.96535548768357E-72,0.99626192415697,-0.0863839017123705));
#1118=DIRECTION('',(-1.,-3.98023390388931E-72,0.));
#1119=DIRECTION('',(8.57555240598774E-24,0.99626192415697,-0.0863839017123705));
#1120=DIRECTION('',(1.,3.98023390388931E-72,0.));
#1121=DIRECTION('center_axis',(-3.43828134345819E-73,0.0863839017123705,
0.99626192415697));
#1122=DIRECTION('ref_axis',(3.96535548768357E-72,-0.99626192415697,0.0863839017123705));
#1123=DIRECTION('',(3.96535548768357E-72,-0.99626192415697,0.0863839017123705));
#1124=DIRECTION('center_axis',(-3.43828134345819E-73,0.0863839017123705,
0.99626192415697));
#1125=DIRECTION('ref_axis',(-1.10607292675643E-16,0.99626192415697,-0.0863839017123705));
#1126=DIRECTION('',(-1.,-3.98023390388931E-72,0.));
#1127=DIRECTION('center_axis',(-3.98023390388931E-72,1.,0.));
#1128=DIRECTION('ref_axis',(0.,0.,1.));
#1129=DIRECTION('',(-9.92702464522552E-23,-3.95118800576713E-94,1.));
#1130=DIRECTION('',(0.,0.,-1.));
#1131=DIRECTION('',(1.,3.98023390388931E-72,0.));
#1132=DIRECTION('center_axis',(1.,3.98023390388931E-72,0.));
#1133=DIRECTION('ref_axis',(0.,0.,-1.));
#1134=DIRECTION('',(0.,0.,1.));
#1135=DIRECTION('',(3.98023390388931E-72,-1.,2.91560348062049E-16));
#1136=DIRECTION('',(0.,0.,-1.));
#1137=DIRECTION('center_axis',(-1.,-3.98023390388931E-72,0.));
#1138=DIRECTION('ref_axis',(3.98023390388931E-72,-1.,0.));
#1139=DIRECTION('',(0.,0.,-1.));
#1140=DIRECTION('',(-3.98023390388931E-72,1.,-2.91560348062049E-16));
#1141=DIRECTION('',(0.,0.,1.));
#1142=DIRECTION('center_axis',(0.,0.,-1.));
#1143=DIRECTION('ref_axis',(-0.707106781186547,0.707106781186547,0.));
#1144=DIRECTION('center_axis',(1.16047838238633E-87,-2.91560348062049E-16,
-1.));
#1145=DIRECTION('ref_axis',(-0.707106781186547,0.707106781186547,0.));
#1146=DIRECTION('center_axis',(0.,0.,-1.));
#1147=DIRECTION('ref_axis',(3.98023390388931E-72,-1.,0.));
#1148=DIRECTION('center_axis',(1.16047838238633E-87,-2.91560348062049E-16,
-1.));
#1149=DIRECTION('ref_axis',(3.98023390388931E-72,-1.,0.));
#1150=DIRECTION('center_axis',(3.96535548768514E-72,-0.996261924157365,
0.086383901707806));
#1151=DIRECTION('ref_axis',(3.43828134327651E-73,-0.086383901707806,-0.996261924157365));
#1152=DIRECTION('',(0.,0.,1.));
#1153=DIRECTION('center_axis',(1.16047838238633E-87,-2.91560348062049E-16,
-1.));
#1154=DIRECTION('ref_axis',(3.98023390388931E-72,-1.,0.));
#1155=DIRECTION('',(0.,0.,-1.));
#1156=DIRECTION('center_axis',(3.98023390388931E-72,-1.,0.));
#1157=DIRECTION('ref_axis',(0.,0.,-1.));
#1158=DIRECTION('',(9.92702464522552E-23,3.95118800576713E-94,-1.));
#1159=DIRECTION('',(1.,3.98023390388931E-72,0.));
#1160=DIRECTION('',(1.,3.98023390388931E-72,0.));
#1161=DIRECTION('center_axis',(-1.16047838238633E-87,2.91560348062049E-16,
1.));
#1162=DIRECTION('ref_axis',(3.98023390388931E-72,-1.,2.91560348062049E-16));
#1163=DIRECTION('',(-2.01948391765522E-28,-1.,2.91560348062049E-16));
#1164=DIRECTION('',(-1.,-3.98023390388931E-72,0.));
#1165=DIRECTION('center_axis',(1.16047838238633E-87,-2.91560348062049E-16,
-1.));
#1166=DIRECTION('ref_axis',(-0.707106781186547,-0.707106781186547,0.));
#1167=DIRECTION('',(1.,3.98023390388931E-72,0.));
#1168=DIRECTION('center_axis',(3.98023390388931E-72,-1.,0.));
#1169=DIRECTION('ref_axis',(-1.,-3.98023390388931E-72,0.));
#1170=DIRECTION('',(9.92702464522552E-23,3.95118800576713E-94,-1.));
#1171=DIRECTION('',(1.,3.98023390388931E-72,0.));
#1172=DIRECTION('',(0.,0.,1.));
#1173=DIRECTION('center_axis',(1.,3.98023390388931E-72,0.));
#1174=DIRECTION('ref_axis',(3.98023390388931E-72,-1.,0.));
#1175=DIRECTION('',(0.,0.,1.));
#1176=DIRECTION('',(3.98023390388931E-72,-1.,0.));
#1177=DIRECTION('',(0.,0.,-1.));
#1178=DIRECTION('',(3.98023390388931E-72,-1.,0.));
#1179=DIRECTION('center_axis',(0.,0.,-1.));
#1180=DIRECTION('ref_axis',(-0.707106781186547,0.707106781186547,0.));
#1181=DIRECTION('center_axis',(0.,0.,1.));
#1182=DIRECTION('ref_axis',(-0.707106781186547,0.707106781186547,0.));
#1183=DIRECTION('center_axis',(0.,0.,-1.));
#1184=DIRECTION('ref_axis',(-0.707106781186547,0.707106781186547,0.));
#1185=DIRECTION('',(0.,0.,1.));
#1186=DIRECTION('center_axis',(0.,0.,-1.));
#1187=DIRECTION('ref_axis',(-0.707106781186547,-0.707106781186547,0.));
#1188=DIRECTION('center_axis',(0.,0.,1.));
#1189=DIRECTION('ref_axis',(-0.707106781186547,-0.707106781186547,0.));
#1190=DIRECTION('',(0.,0.,-1.));
#1191=DIRECTION('center_axis',(0.,0.,-1.));
#1192=DIRECTION('ref_axis',(-0.707106781186547,-0.707106781186547,0.));
#1193=DIRECTION('center_axis',(-3.98023390388931E-72,1.,0.));
#1194=DIRECTION('ref_axis',(1.,3.98023390388931E-72,0.));
#1195=DIRECTION('',(-9.92702464522552E-23,-3.95118800576713E-94,1.));
#1196=DIRECTION('',(1.,3.98023390388931E-72,0.));
#1197=DIRECTION('',(0.,0.,-1.));
#1198=DIRECTION('',(-1.,-3.98023390388931E-72,0.));
#1199=DIRECTION('',(0.,0.,1.));
#1200=DIRECTION('center_axis',(3.98023390388931E-72,-1.,0.));
#1201=DIRECTION('ref_axis',(0.,0.,1.));
#1202=DIRECTION('',(-1.,-3.98023390388931E-72,1.1046129017527E-16));
#1203=DIRECTION('center_axis',(3.98023390388931E-72,-1.,0.));
#1204=DIRECTION('ref_axis',(-1.,-3.98023390388931E-72,1.0362081563168E-14));
#1205=DIRECTION('',(0.,0.,-1.));
#1206=DIRECTION('center_axis',(3.98023390388931E-72,-1.,0.));
#1207=DIRECTION('ref_axis',(-1.18423789293348E-14,-4.71354381172429E-86,
-1.));
#1208=DIRECTION('',(1.,3.98023390388931E-72,1.54645806245378E-15));
#1209=DIRECTION('center_axis',(3.98023390388931E-72,-1.,0.));
#1210=DIRECTION('ref_axis',(1.,3.98023390388931E-72,-5.92118946466749E-15));
#1211=DIRECTION('center_axis',(0.,0.,-1.));
#1212=DIRECTION('ref_axis',(-0.707106781186547,0.707106781186547,0.));
#1213=DIRECTION('center_axis',(0.,0.,1.));
#1214=DIRECTION('ref_axis',(-0.707106781186547,0.707106781186547,0.));
#1215=DIRECTION('',(0.,0.,1.));
#1216=DIRECTION('center_axis',(0.,0.,-1.));
#1217=DIRECTION('ref_axis',(-0.707106781186547,0.707106781186547,0.));
#1218=DIRECTION('center_axis',(-1.,-3.98023390388931E-72,0.));
#1219=DIRECTION('ref_axis',(-3.98023390388931E-72,1.,0.));
#1220=DIRECTION('',(0.,0.,-1.));
#1221=DIRECTION('',(3.98023390388931E-72,-1.,0.));
#1222=DIRECTION('',(-3.98023390388931E-72,1.,0.));
#1223=DIRECTION('center_axis',(0.,0.,-1.));
#1224=DIRECTION('ref_axis',(-0.707106781186547,-0.707106781186547,0.));
#1225=DIRECTION('center_axis',(0.,0.,1.));
#1226=DIRECTION('ref_axis',(-0.707106781186547,-0.707106781186547,0.));
#1227=DIRECTION('center_axis',(0.,0.,-1.));
#1228=DIRECTION('ref_axis',(-0.707106781186547,-0.707106781186547,0.));
#1229=DIRECTION('center_axis',(0.,0.,-1.));
#1230=DIRECTION('ref_axis',(1.,3.98023390388931E-72,0.));
#1231=DIRECTION('',(-2.01948391736579E-28,-1.,0.));
#1232=DIRECTION('',(-2.01948391736579E-28,-1.,0.));
#1233=DIRECTION('',(1.,3.98023390388931E-72,0.));
#1234=DIRECTION('',(-3.98023390388931E-72,1.,0.));
#1235=DIRECTION('',(1.,3.98023390388931E-72,0.));
#1236=DIRECTION('center_axis',(-1.,-3.98023390388931E-72,0.));
#1237=DIRECTION('ref_axis',(0.,0.,1.));
#1238=DIRECTION('',(0.,0.,1.));
#1239=DIRECTION('',(3.98023390388931E-72,-1.,0.));
#1240=DIRECTION('center_axis',(3.98023390388931E-72,-1.,0.));
#1241=DIRECTION('ref_axis',(-1.18423789293348E-14,-4.71354381172429E-86,
-1.));
#1242=DIRECTION('center_axis',(-3.98023390388931E-72,1.,0.));
#1243=DIRECTION('ref_axis',(-1.18423789293348E-14,-4.71354381172429E-86,
-1.));
#1244=DIRECTION('',(3.98023390388931E-72,-1.,0.));
#1245=DIRECTION('',(3.98023390388931E-72,-1.,0.));
#1246=DIRECTION('center_axis',(1.54645806245378E-15,6.15526481112151E-87,
-1.));
#1247=DIRECTION('ref_axis',(1.,3.98023390388931E-72,1.54645806245378E-15));
#1248=DIRECTION('',(-1.,-3.98023390388931E-72,-1.54645806245378E-15));
#1249=DIRECTION('',(3.98023390388931E-72,-1.,0.));
#1250=DIRECTION('center_axis',(3.98023390388931E-72,-1.,0.));
#1251=DIRECTION('ref_axis',(1.,3.98023390388931E-72,-5.92118946466749E-15));
#1252=DIRECTION('center_axis',(-3.98023390388931E-72,1.,0.));
#1253=DIRECTION('ref_axis',(1.,3.98023390388931E-72,-5.92118946466749E-15));
#1254=DIRECTION('',(3.98023390388931E-72,-1.,0.));
#1255=DIRECTION('center_axis',(1.,3.98023390388931E-72,0.));
#1256=DIRECTION('ref_axis',(0.,0.,1.));
#1257=DIRECTION('',(0.,0.,-1.));
#1258=DIRECTION('',(3.98023390388931E-72,-1.,0.));
#1259=DIRECTION('center_axis',(3.98023390388931E-72,-1.,0.));
#1260=DIRECTION('ref_axis',(0.,0.,1.));
#1261=DIRECTION('center_axis',(-3.98023390388931E-72,1.,0.));
#1262=DIRECTION('ref_axis',(0.,0.,1.));
#1263=DIRECTION('',(3.98023390388931E-72,-1.,0.));
#1264=DIRECTION('center_axis',(1.1046129017527E-16,4.39661772222965E-88,
1.));
#1265=DIRECTION('ref_axis',(-1.,-3.98023390388931E-72,1.1046129017527E-16));
#1266=DIRECTION('',(1.,3.98023390388931E-72,-1.1046129017527E-16));
#1267=DIRECTION('',(3.98023390388931E-72,-1.,0.));
#1268=DIRECTION('center_axis',(3.98023390388931E-72,-1.,0.));
#1269=DIRECTION('ref_axis',(-1.,-3.98023390388931E-72,1.0362081563168E-14));
#1270=DIRECTION('center_axis',(-3.98023390388931E-72,1.,0.));
#1271=DIRECTION('ref_axis',(-1.,-3.98023390388931E-72,1.0362081563168E-14));
#1272=DIRECTION('',(3.98023390388931E-72,-1.,0.));
#1273=DIRECTION('center_axis',(-1.,-3.98023390388931E-72,0.));
#1274=DIRECTION('ref_axis',(0.,0.,-1.));
#1275=DIRECTION('',(0.,0.,1.));
#1276=DIRECTION('center_axis',(3.96535548768514E-72,-0.996261924157365,
0.086383901707806));
#1277=DIRECTION('ref_axis',(1.,3.98023390388931E-72,0.));
#1278=DIRECTION('',(-9.88991492970095E-23,0.086383901707806,0.996261924157365));
#1279=DIRECTION('center_axis',(-3.98023390388931E-72,1.,0.));
#1280=DIRECTION('ref_axis',(0.,0.,1.));
#1281=DIRECTION('',(-9.92702464522552E-23,-3.95118800576713E-94,1.));
#1282=DIRECTION('',(1.,3.98023390388931E-72,0.));
#1283=DIRECTION('',(1.,3.98023390388931E-72,0.));
#1284=DIRECTION('center_axis',(0.,0.,-1.));
#1285=DIRECTION('ref_axis',(-1.,-3.98023390388931E-72,0.));
#1286=DIRECTION('',(2.01948391736579E-28,1.,0.));
#1287=DIRECTION('',(-1.,-3.98023390388931E-72,0.));
#1288=DIRECTION('',(1.,3.98023390388931E-72,0.));
#1289=DIRECTION('',(2.01948391736579E-28,1.,0.));
#1290=DIRECTION('center_axis',(-3.98023390388931E-72,1.,0.));
#1291=DIRECTION('ref_axis',(1.,3.98023390388931E-72,0.));
#1292=DIRECTION('',(-9.92702464522552E-23,-3.95118800576713E-94,1.));
#1293=DIRECTION('center_axis',(-1.16047838238633E-87,2.91560348062049E-16,
1.));
#1294=DIRECTION('ref_axis',(3.98023390388931E-72,-1.,2.91560348062049E-16));
#1295=DIRECTION('',(-2.01948391765522E-28,-1.,2.91560348062049E-16));
#1296=DIRECTION('',(-1.,-3.98023390388931E-72,0.));
#1297=DIRECTION('center_axis',(3.98023390388931E-72,-1.,0.));
#1298=DIRECTION('ref_axis',(0.,0.,-1.));
#1299=DIRECTION('',(9.92702464522552E-23,3.95118800576713E-94,-1.));
#1300=DIRECTION('center_axis',(3.98023390388931E-72,-1.,0.));
#1301=DIRECTION('ref_axis',(0.,0.,-1.));
#1302=DIRECTION('',(9.92702464522552E-23,3.95118800576713E-94,-1.));
#1303=DIRECTION('center_axis',(1.,-2.01948391736579E-28,9.92702464522551E-23));
#1304=DIRECTION('ref_axis',(9.92702464522552E-23,3.95118800576713E-94,-1.));
#1305=DIRECTION('center_axis',(1.,-2.01948391736579E-28,9.92702464522551E-23));
#1306=DIRECTION('ref_axis',(9.92702464522552E-23,3.95118800576713E-94,-1.));
#1307=DIRECTION('center_axis',(1.,-2.01948391736579E-28,9.92702464522551E-23));
#1308=DIRECTION('ref_axis',(9.92702464522552E-23,3.95118800576713E-94,-1.));
#1309=DIRECTION('center_axis',(1.,-2.01948391736579E-28,9.92702464522551E-23));
#1310=DIRECTION('ref_axis',(9.92702464522552E-23,3.95118800576713E-94,-1.));
#1311=DIRECTION('',(9.92702464522552E-23,3.95118800576713E-94,-1.));
#1312=DIRECTION('',(8.57555240598774E-24,0.99626192415697,-0.0863839017123705));
#1313=DIRECTION('',(-9.92702464522552E-23,-3.95118800576713E-94,1.));
#1314=DIRECTION('',(-8.57555240598774E-24,-0.99626192415697,0.0863839017123705));
#1315=DIRECTION('center_axis',(3.43828134345819E-73,-0.0863839017123705,
-0.99626192415697));
#1316=DIRECTION('ref_axis',(3.96535548768357E-72,-0.99626192415697,0.0863839017123705));
#1317=DIRECTION('',(-1.,-3.98023390388931E-72,0.));
#1318=DIRECTION('center_axis',(-3.43828134345819E-73,0.0863839017123705,
0.99626192415697));
#1319=DIRECTION('ref_axis',(-1.10607292675643E-16,-0.99626192415697,0.0863839017123705));
#1320=DIRECTION('',(-3.96535548768357E-72,0.99626192415697,-0.0863839017123705));
#1321=DIRECTION('center_axis',(-3.43828134345819E-73,0.0863839017123705,
0.99626192415697));
#1322=DIRECTION('ref_axis',(-1.10607292675643E-16,0.99626192415697,-0.0863839017123705));
#1323=DIRECTION('',(-1.,-3.98023390388931E-72,0.));
#1324=DIRECTION('center_axis',(3.98023390388931E-72,-1.,0.));
#1325=DIRECTION('ref_axis',(0.,0.,1.));
#1326=DIRECTION('',(-1.,-3.98023390388931E-72,0.));
#1327=DIRECTION('',(0.,0.,1.));
#1328=DIRECTION('center_axis',(-3.43828134345819E-73,0.0863839017123705,
0.99626192415697));
#1329=DIRECTION('ref_axis',(-3.96535548768357E-72,0.99626192415697,-0.0863839017123705));
#1330=DIRECTION('',(-1.,-3.98023390388931E-72,0.));
#1331=DIRECTION('center_axis',(3.43828134345819E-73,-0.0863839017123705,
-0.99626192415697));
#1332=DIRECTION('ref_axis',(-1.10607292675643E-16,0.99626192415697,-0.0863839017123705));
#1333=DIRECTION('',(3.96535548768357E-72,-0.99626192415697,0.0863839017123705));
#1334=DIRECTION('center_axis',(3.43828134345819E-73,-0.0863839017123705,
-0.99626192415697));
#1335=DIRECTION('ref_axis',(-1.10607292675643E-16,-0.99626192415697,0.0863839017123705));
#1336=DIRECTION('center_axis',(-3.98023390388931E-72,1.,0.));
#1337=DIRECTION('ref_axis',(0.,0.,-1.));
#1338=DIRECTION('',(0.,0.,-1.));
#1339=DIRECTION('center_axis',(0.,0.,1.));
#1340=DIRECTION('ref_axis',(-0.707106781186547,0.707106781186547,0.));
#1341=DIRECTION('',(0.,0.,1.));
#1342=DIRECTION('center_axis',(-1.,-3.98023390388931E-72,0.));
#1343=DIRECTION('ref_axis',(0.,0.,1.));
#1344=DIRECTION('',(0.,0.,-1.));
#1345=DIRECTION('center_axis',(0.,0.,-1.));
#1346=DIRECTION('ref_axis',(-0.707106781186547,-0.707106781186547,0.));
#1347=DIRECTION('',(-2.54888745176847E-16,0.0871557427476572,0.996194698091741));
#1348=DIRECTION('',(1.,-6.01831966451976E-17,-2.39847222609289E-16));
#1349=DIRECTION('',(-1.4738997768779E-16,0.087155742747657,0.996194698091739));
#1350=DIRECTION('',(1.,2.44783985658399E-16,-2.79288444237566E-16));
#1351=DIRECTION('',(-9.92702463536474E-23,1.99136488891557E-59,1.));
#1352=DIRECTION('',(1.,2.01948391736579E-28,-9.92702464522551E-23));
#1353=CARTESIAN_POINT('',(0.,0.,0.));
#1354=CARTESIAN_POINT('',(0.,0.,0.));
#1355=CARTESIAN_POINT('Origin',(89.9999999254941,-146.000002026558,19.4));
#1356=CARTESIAN_POINT('',(94.4999999254941,-146.000002026558,18.9));
#1357=CARTESIAN_POINT('Origin',(89.9999999254941,-146.000002026558,18.9));
#1358=CARTESIAN_POINT('',(94.9999999254941,-146.000002026558,19.4));
#1359=CARTESIAN_POINT('Origin',(94.4999999254941,-146.000002026558,19.4));
#1360=CARTESIAN_POINT('',(84.9999999254941,-146.000002026558,19.4));
#1361=CARTESIAN_POINT('Origin',(89.9999999254941,-146.000002026558,19.4));
#1362=CARTESIAN_POINT('Origin',(89.9999999254941,-146.000002026558,19.4));
#1363=CARTESIAN_POINT('Origin',(89.9999999254941,-146.000002026558,20.9));
#1364=CARTESIAN_POINT('',(84.9999999254941,-146.000002026558,20.9));
#1365=CARTESIAN_POINT('',(84.9999999254941,-146.000002026558,20.9));
#1366=CARTESIAN_POINT('Origin',(89.9999999254941,-146.000002026558,20.9));
#1367=CARTESIAN_POINT('Origin',(89.9999999254941,-146.000002026558,18.9));
#1368=CARTESIAN_POINT('Origin',(89.9999999254941,-146.000002026558,20.9));
#1369=CARTESIAN_POINT('Origin',(90.1,-146.000002026558,18.9499995328486));
#1370=CARTESIAN_POINT('',(97.0570051781535,-146.000002026558,20.8999995328486));
#1371=CARTESIAN_POINT('Origin',(90.1,-146.000002026558,20.8999995328486));
#1372=CARTESIAN_POINT('',(95.1070051781535,-146.000002026558,18.9499995328486));
#1373=CARTESIAN_POINT('Origin',(97.0570051781535,-146.000002026558,18.9499995328486));
#1374=CARTESIAN_POINT('',(90.1,-151.007007204711,18.9499995328486));
#1375=CARTESIAN_POINT('Origin',(90.1,-146.000002026558,18.9499995328486));
#1376=CARTESIAN_POINT('Origin',(90.1,-146.000002026558,18.9499995328486));
#1377=CARTESIAN_POINT('Origin',(90.1,-146.000002026558,19.9249995328486));
#1378=CARTESIAN_POINT('',(90.1,-151.007007204711,20.8999995328486));
#1379=CARTESIAN_POINT('',(90.1,-151.007007204711,19.9249995328486));
#1380=CARTESIAN_POINT('Origin',(90.1,-146.000002026558,20.8999995328486));
#1381=CARTESIAN_POINT('Origin',(90.1,-139.042996848404,20.8999995328486));
#1382=CARTESIAN_POINT('',(0.,0.,0.));
#1383=CARTESIAN_POINT('Origin',(409.96876790723,-253.676312294693,-40.9124803149208));
#1384=CARTESIAN_POINT('',(200.,-102.861552507993,-53.9893299568594));
#1385=CARTESIAN_POINT('',(200.,-101.361552507993,-54.119396829466));
#1386=CARTESIAN_POINT('',(200.,-215.909585107471,-44.187158559901));
#1387=CARTESIAN_POINT('',(6.65253838582629,-102.861552507993,-53.9893299568594));
#1388=CARTESIAN_POINT('',(209.060489887145,-102.861552507993,-53.9893299568594));
#1389=CARTESIAN_POINT('',(6.65253838582629,-252.176312294693,-41.042542349238));
#1390=CARTESIAN_POINT('',(6.65253838582629,-177.540406977013,-47.5140741350501));
#1391=CARTESIAN_POINT('',(200.,-252.176312294693,-41.042542349238));
#1392=CARTESIAN_POINT('',(207.935759054923,-252.176312294693,-41.042542349238));
#1393=CARTESIAN_POINT('',(200.,-253.67629168112,-40.912482102283));
#1394=CARTESIAN_POINT('',(200.,-215.909585107471,-44.187158559901));
#1395=CARTESIAN_POINT('',(10.1384104942351,-253.67629168112,-40.912482102283));
#1396=CARTESIAN_POINT('',(106.356864963317,-253.67629168112,-40.912482102283));
#1397=CARTESIAN_POINT('',(5.15276790723046,-248.676312294693,-41.3460204293113));
#1398=CARTESIAN_POINT('Origin',(10.1527679072305,-248.676312294693,-41.3460204293113));
#1399=CARTESIAN_POINT('',(5.15276790723046,-106.361552507993,-53.6858518767861));
#1400=CARTESIAN_POINT('',(5.15276790723046,-177.540406977013,-47.5140741350501));
#1401=CARTESIAN_POINT('',(10.1527679072304,-101.361552507993,-54.119396829466));
#1402=CARTESIAN_POINT('Origin',(10.1527679072305,-106.361552507993,-53.6858518767861));
#1403=CARTESIAN_POINT('',(411.468456226753,-101.361552507993,-54.119396829466));
#1404=CARTESIAN_POINT('Origin',(5.15276790723046,-101.361552507993,-54.1196315140167));
#1405=CARTESIAN_POINT('',(200.,-101.361552507993,-39.9127267947932));
#1406=CARTESIAN_POINT('',(200.,-101.361552507993,-47.192788842103));
#1407=CARTESIAN_POINT('',(10.1527679072305,-101.361552507993,-39.9127267947932));
#1408=CARTESIAN_POINT('',(10.1527679072305,-101.361552507993,-50.5679053342108));
#1409=CARTESIAN_POINT('',(5.15276790723046,-101.361552507993,-39.9127267947932));
#1410=CARTESIAN_POINT('Origin',(6.65253838582629,-177.518892283762,-47.0161791544049));
#1411=CARTESIAN_POINT('',(6.65253838582629,-102.861552507993,-39.9127267947932));
#1412=CARTESIAN_POINT('',(6.65253838582629,-102.861552507993,-47.0161241928396));
#1413=CARTESIAN_POINT('',(6.65253838582629,-252.176312294693,-39.9127267947932));
#1414=CARTESIAN_POINT('',(6.65253838582629,-139.440222395878,-39.9127267947932));
#1415=CARTESIAN_POINT('',(6.65253838582629,-252.176312294693,-43.9643100729224));
#1416=CARTESIAN_POINT('Origin',(5.15276790723046,-177.518892283762,-47.0161791544049));
#1417=CARTESIAN_POINT('',(5.15276790723046,-248.676312294693,-39.9127267947932));
#1418=CARTESIAN_POINT('',(5.15276790723046,-248.676312294693,-39.9124803149208));
#1419=CARTESIAN_POINT('',(5.15276790723046,-106.361552507993,-39.9127267947932));
#1420=CARTESIAN_POINT('',(5.15276790723046,-253.676232059532,-39.9127267947932));
#1421=CARTESIAN_POINT('',(5.15276790723046,-106.361552507993,-50.5679053342108));
#1422=CARTESIAN_POINT('Origin',(10.1527679072305,-106.361552507993,-50.5679053342108));
#1423=CARTESIAN_POINT('Origin',(10.1527679072305,-106.361552507993,-39.9127267947932));
#1424=CARTESIAN_POINT('Origin',(10.1527679072305,-248.676312294693,-39.9124803149208));
#1425=CARTESIAN_POINT('',(6.5820536929591,-252.176312294693,-39.9127267947932));
#1426=CARTESIAN_POINT('Origin',(10.1527679072305,-248.676312294693,-39.9127267947932));
#1427=CARTESIAN_POINT('',(10.1527679072305,-253.676312294693,-40.912719837761));
#1428=CARTESIAN_POINT('Origin',(10.1527679072305,-248.676312294693,16.7520709659252));
#1429=CARTESIAN_POINT('',(10.1527679072305,-253.676312294693,-39.9124803149208));
#1430=CARTESIAN_POINT('',(10.1527679072305,-253.676312294693,-39.9124803149208));
#1431=CARTESIAN_POINT('',(6.5820536929591,-252.176312294693,-39.9124803149208));
#1432=CARTESIAN_POINT('Origin',(10.1527679072305,-248.676312294693,-39.9124803149209));
#1433=CARTESIAN_POINT('',(6.5820536929591,-252.176312294693,-39.9124803149208));
#1434=CARTESIAN_POINT('Origin',(409.96876790723,-253.676312294693,-39.9124803149208));
#1435=CARTESIAN_POINT('',(200.,-253.676312294693,-39.9124803149208));
#1436=CARTESIAN_POINT('',(200.,-253.676312294693,-40.912719837761));
#1437=CARTESIAN_POINT('',(200.,-253.676312294693,-40.0892132425551));
#1438=CARTESIAN_POINT('',(409.96876790723,-253.676312294693,-39.9124803149208));
#1439=CARTESIAN_POINT('',(308.764816435274,-253.676312294693,-40.912719837761));
#1440=CARTESIAN_POINT('Origin',(409.96876790723,-101.361632743154,-39.9124803149209));
#1441=CARTESIAN_POINT('',(200.,-253.675858423674,-39.9124803149208));
#1442=CARTESIAN_POINT('',(200.,-139.44027460681,-39.9124803149209));
#1443=CARTESIAN_POINT('',(10.1527679072305,-253.675858423674,-39.9124803149209));
#1444=CARTESIAN_POINT('',(410.718653146528,-253.675858423674,-39.9124803149208));
#1445=CARTESIAN_POINT('',(6.58249863210973,-252.176312294693,-39.9124803149208));
#1446=CARTESIAN_POINT('Origin',(10.1527679072305,-248.675858423674,-39.9124803149209));
#1447=CARTESIAN_POINT('',(411.468538385826,-252.176312294693,-39.9124803149208));
#1448=CARTESIAN_POINT('Origin',(411.468538385826,-253.675858423674,-24.9124803149209));
#1449=CARTESIAN_POINT('',(200.,-253.675858423674,-24.9124803149209));
#1450=CARTESIAN_POINT('',(200.,-253.675858423674,-32.5892132425551));
#1451=CARTESIAN_POINT('',(10.1527679072305,-253.675858423674,-24.9124803149209));
#1452=CARTESIAN_POINT('',(5.15276790723046,-253.675858423674,-24.9124803149209));
#1453=CARTESIAN_POINT('',(10.1527679072305,-253.675858423674,-24.9124803149209));
#1454=CARTESIAN_POINT('Origin',(6.65037440458235,-102.862086614172,-24.9124803149209));
#1455=CARTESIAN_POINT('',(6.65037440458235,-247.162711614172,-39.9124803149209));
#1456=CARTESIAN_POINT('',(6.65037440458235,-247.162711614172,-24.9124803149209));
#1457=CARTESIAN_POINT('',(6.65037440458235,-247.162711614172,-24.9124803149209));
#1458=CARTESIAN_POINT('',(6.65037440458235,-107.862086614172,-39.9124803149209));
#1459=CARTESIAN_POINT('',(6.65037440458235,-102.862086614172,-39.9124803149209));
#1460=CARTESIAN_POINT('',(6.65037440458235,-107.862086614172,-24.9124803149209));
#1461=CARTESIAN_POINT('',(6.65037440458235,-107.862086614172,-24.9124803149209));
#1462=CARTESIAN_POINT('',(6.65037440458235,-102.862086614172,-24.9124803149209));
#1463=CARTESIAN_POINT('Origin',(11.6503744045824,-107.862086614172,-24.9124803149209));
#1464=CARTESIAN_POINT('',(11.6503744045824,-102.862086614172,-24.9124803149209));
#1465=CARTESIAN_POINT('Origin',(11.6503744045824,-107.862086614172,-24.9124803149209));
#1466=CARTESIAN_POINT('',(11.6503744045824,-102.862086614172,-39.9124803149209));
#1467=CARTESIAN_POINT('Origin',(11.6503744045824,-107.862086614172,-39.9124803149209));
#1468=CARTESIAN_POINT('',(11.6503744045824,-102.862086614172,-24.9124803149209));
#1469=CARTESIAN_POINT('Origin',(11.6503744045824,-247.162711614172,-24.9124803149209));
#1470=CARTESIAN_POINT('',(11.6503744045824,-252.162711614172,-24.9124803149209));
#1471=CARTESIAN_POINT('Origin',(11.6503744045824,-247.162711614172,-24.9124803149209));
#1472=CARTESIAN_POINT('',(11.6503744045824,-252.162711614172,-39.9124803149209));
#1473=CARTESIAN_POINT('',(11.6503744045824,-252.162711614172,-24.9124803149209));
#1474=CARTESIAN_POINT('Origin',(11.6503744045824,-247.162711614172,-39.9124803149209));
#1475=CARTESIAN_POINT('Origin',(5.1527679072305,-101.362086614172,-24.9124803149209));
#1476=CARTESIAN_POINT('',(200.,-101.362086614172,-39.9124803149209));
#1477=CARTESIAN_POINT('',(200.,-101.362086614172,-24.9124803149209));
#1478=CARTESIAN_POINT('',(200.,-101.362086614172,-32.5892132425551));
#1479=CARTESIAN_POINT('',(10.1527679072305,-101.362086614172,-39.9124803149209));
#1480=CARTESIAN_POINT('',(411.468538385826,-101.362086614172,-39.9124803149209));
#1481=CARTESIAN_POINT('',(10.1527679072305,-101.362086614172,-24.9124803149209));
#1482=CARTESIAN_POINT('',(10.1527679072305,-101.362086614172,-24.9124803149209));
#1483=CARTESIAN_POINT('',(411.468538385826,-101.362086614172,-24.9124803149209));
#1484=CARTESIAN_POINT('',(52.9293323550203,-101.362086614172,-36.5359691055389));
#1485=CARTESIAN_POINT('',(52.9293323550203,-101.362086614172,-36.3750001602194));
#1486=CARTESIAN_POINT('',(52.9293323550203,-101.362086614172,-30.7242247102299));
#1487=CARTESIAN_POINT('',(49.9293323550203,-101.362086614172,-33.3750001602194));
#1488=CARTESIAN_POINT('Origin',(49.9293323550203,-101.362086614172,-36.3750001602194));
#1489=CARTESIAN_POINT('',(44.903938287725,-101.362086614172,-33.3750001602194));
#1490=CARTESIAN_POINT('',(27.5410501311254,-101.362086614172,-33.3750001602194));
#1491=CARTESIAN_POINT('',(41.903938287725,-101.362086614172,-36.3750001602194));
#1492=CARTESIAN_POINT('Origin',(44.9039382877251,-101.362086614172,-36.3750001602194));
#1493=CARTESIAN_POINT('',(41.903938287725,-101.362086614172,-36.5359691055389));
#1494=CARTESIAN_POINT('',(41.903938287725,-101.362086614172,-30.6437402375701));
#1495=CARTESIAN_POINT('',(44.903938287725,-101.362086614172,-39.5359691055389));
#1496=CARTESIAN_POINT('Origin',(44.9039382877251,-101.362086614172,-36.5359691055389));
#1497=CARTESIAN_POINT('',(49.9293323550203,-101.362086614172,-39.5359691055389));
#1498=CARTESIAN_POINT('',(25.0283530974778,-101.362086614172,-39.535969105539));
#1499=CARTESIAN_POINT('Origin',(49.9293323550203,-101.362086614172,-36.5359691055389));
#1500=CARTESIAN_POINT('Origin',(10.1527679072305,-106.362086614172,-24.9124803149209));
#1501=CARTESIAN_POINT('',(5.15276790723046,-106.362086614172,-39.9124803149209));
#1502=CARTESIAN_POINT('Origin',(10.1527679072305,-106.362086614172,-39.9124803149209));
#1503=CARTESIAN_POINT('',(5.15276790723046,-106.362086614172,-24.9124803149209));
#1504=CARTESIAN_POINT('',(5.15276790723046,-106.362086614172,-24.9124803149209));
#1505=CARTESIAN_POINT('Origin',(10.1527679072305,-106.362086614172,-24.9124803149209));
#1506=CARTESIAN_POINT('Origin',(5.15276790723046,-253.675858423674,-24.9124803149209));
#1507=CARTESIAN_POINT('',(5.15276790723046,-248.675858423674,-24.9124803149209));
#1508=CARTESIAN_POINT('',(5.15276790723046,-248.675858423674,-39.9124803149209));
#1509=CARTESIAN_POINT('',(5.15276790723046,-248.675858423674,-24.9124803149209));
#1510=CARTESIAN_POINT('',(5.15276790723046,-101.362086614172,-24.9124803149209));
#1511=CARTESIAN_POINT('',(5.15276790723046,-101.362086614172,-39.9124803149209));
#1512=CARTESIAN_POINT('Origin',(10.1527679072305,-248.675858423674,-24.9124803149209));
#1513=CARTESIAN_POINT('Origin',(10.1527679072305,-248.675858423674,-39.9124803149209));
#1514=CARTESIAN_POINT('Origin',(10.1527679072305,-248.675858423674,-24.9124803149209));
#1515=CARTESIAN_POINT('Origin',(208.310653146528,-177.518972518923,-24.9124803149209));
#1516=CARTESIAN_POINT('',(200.,-102.861552507993,-24.9124803149209));
#1517=CARTESIAN_POINT('',(200.,-177.518944494695,-24.9124803149209));
#1518=CARTESIAN_POINT('',(200.,-252.162711614172,-24.9124803149209));
#1519=CARTESIAN_POINT('',(200.,-177.518944494695,-24.9124803149209));
#1520=CARTESIAN_POINT('',(6.65037440458235,-252.162711614172,-24.9124803149209));
#1521=CARTESIAN_POINT('',(11.6503744045824,-102.861552507993,-24.9124803149209));
#1522=CARTESIAN_POINT('',(11.6503744045824,-140.190529566548,-24.9124803149209));
#1523=CARTESIAN_POINT('',(208.310054770866,-102.861552507993,-24.9124803149209));
#1524=CARTESIAN_POINT('Origin',(11.6503744045824,-102.862086614172,-39.9124803149209));
#1525=CARTESIAN_POINT('',(11.6503744045824,-102.861552507993,-39.9124803149209));
#1526=CARTESIAN_POINT('',(11.6503744045824,-102.861552507993,-36.1624803149209));
#1527=CARTESIAN_POINT('',(11.6503744045824,-140.190529566548,-39.9124803149209));
#1528=CARTESIAN_POINT('Origin',(44.9039382877251,-101.362086614172,-36.5359691055389));
#1529=CARTESIAN_POINT('',(44.903938287725,-102.861552507993,-39.5359691055389));
#1530=CARTESIAN_POINT('',(41.903938287725,-102.861552507993,-36.5359691055389));
#1531=CARTESIAN_POINT('Origin',(44.9039382877251,-102.861552507993,-36.5359691055389));
#1532=CARTESIAN_POINT('',(44.903938287725,-101.362086614172,-39.5359691055389));
#1533=CARTESIAN_POINT('',(41.903938287725,-101.362086614172,-36.5359691055389));
#1534=CARTESIAN_POINT('Origin',(44.903938287725,-101.362086614172,-39.5359691055389));
#1535=CARTESIAN_POINT('',(49.9293323550203,-102.861552507993,-39.5359691055389));
#1536=CARTESIAN_POINT('',(126.606697341465,-102.861552507993,-39.5359691055388));
#1537=CARTESIAN_POINT('',(49.9293323550203,-101.362086614172,-39.5359691055389));
#1538=CARTESIAN_POINT('Origin',(49.9293323550203,-101.362086614172,-36.5359691055389));
#1539=CARTESIAN_POINT('',(52.9293323550203,-102.861552507993,-36.5359691055389));
#1540=CARTESIAN_POINT('Origin',(49.9293323550203,-102.861552507993,-36.5359691055389));
#1541=CARTESIAN_POINT('',(52.9293323550203,-101.362086614172,-36.5359691055389));
#1542=CARTESIAN_POINT('Origin',(52.9293323550203,-101.362086614172,-36.5359691055389));
#1543=CARTESIAN_POINT('',(52.9293323550203,-102.861552507993,-36.3750001602194));
#1544=CARTESIAN_POINT('',(52.9293323550202,-102.861552507993,-34.4742247102299));
#1545=CARTESIAN_POINT('',(52.9293323550203,-101.362086614172,-36.3750001602194));
#1546=CARTESIAN_POINT('Origin',(49.9293323550203,-101.362086614172,-36.3750001602194));
#1547=CARTESIAN_POINT('',(49.9293323550203,-102.861552507993,-33.3750001602194));
#1548=CARTESIAN_POINT('Origin',(49.9293323550203,-102.861552507993,-36.3750001602194));
#1549=CARTESIAN_POINT('',(49.9293323550203,-101.362086614172,-33.3750001602194));
#1550=CARTESIAN_POINT('Origin',(49.9293323550203,-101.362086614172,-33.3750001602194));
#1551=CARTESIAN_POINT('',(44.903938287725,-102.861552507993,-33.3750001602194));
#1552=CARTESIAN_POINT('',(129.119394375112,-102.861552507993,-33.3750001602194));
#1553=CARTESIAN_POINT('',(44.903938287725,-101.362086614172,-33.3750001602194));
#1554=CARTESIAN_POINT('Origin',(44.9039382877251,-101.362086614172,-36.3750001602194));
#1555=CARTESIAN_POINT('',(41.903938287725,-102.861552507993,-36.3750001602194));
#1556=CARTESIAN_POINT('Origin',(44.9039382877251,-102.861552507993,-36.3750001602194));
#1557=CARTESIAN_POINT('',(41.903938287725,-101.362086614172,-36.3750001602194));
#1558=CARTESIAN_POINT('Origin',(41.903938287725,-101.362086614172,-36.3750001602194));
#1559=CARTESIAN_POINT('',(41.903938287725,-102.861552507993,-34.3937402375701));
#1560=CARTESIAN_POINT('Origin',(5.1529620194043,-253.676312294693,-40.912719837761));
#1561=CARTESIAN_POINT('',(200.,-253.364331263047,-37.3146556528477));
#1562=CARTESIAN_POINT('Origin',(208.310750202615,-252.176312294693,-40.4124606531804));
#1563=CARTESIAN_POINT('',(200.,-252.176312294693,-39.9124803149208));
#1564=CARTESIAN_POINT('',(200.,-252.176312294693,-40.3392034116848));
#1565=CARTESIAN_POINT('',(106.731759054923,-252.176312294693,-39.9127267947932));
#1566=CARTESIAN_POINT('',(411.468538385826,-252.176312294693,-39.9124803149208));
#1567=CARTESIAN_POINT('Origin',(208.310653146528,-177.518972518923,-39.9124803149209));
#1568=CARTESIAN_POINT('',(200.,-102.861552507993,-39.9124803149209));
#1569=CARTESIAN_POINT('',(200.,-177.518944494695,-39.9124803149209));
#1570=CARTESIAN_POINT('',(208.310054770866,-102.861552507993,-39.9124803149209));
#1571=CARTESIAN_POINT('',(200.,-252.162711614172,-39.9124803149209));
#1572=CARTESIAN_POINT('',(6.65037440458235,-252.162711614172,-39.9124803149209));
#1573=CARTESIAN_POINT('',(200.,-177.518944494695,-39.9124803149209));
#1574=CARTESIAN_POINT('Origin',(6.65037440458235,-252.162711614172,-24.9124803149209));
#1575=CARTESIAN_POINT('',(200.,-252.162711614172,-32.5892132425551));
#1576=CARTESIAN_POINT('Origin',(5.15276790723046,-101.361552507993,-39.9127267947932));
#1577=CARTESIAN_POINT('',(200.,-102.861552507993,-39.9127267947932));
#1578=CARTESIAN_POINT('',(200.,-139.44023448923,-39.9127267947932));
#1579=CARTESIAN_POINT('',(5.15276790723046,-102.861552507993,-39.9127267947932));
#1580=CARTESIAN_POINT('Origin',(209.060489887145,-102.861552507993,-47.0160692312744));
#1581=CARTESIAN_POINT('',(200.,-102.861552507993,-43.6410077007318));
#1582=CARTESIAN_POINT('Origin',(208.309456395204,-102.861552507993,-32.4124803149209));
#1583=CARTESIAN_POINT('',(200.,-102.861552507993,-36.3392132425551));
#1584=CARTESIAN_POINT('Origin',(200.,-177.518916470467,-40.2659461701893));
#1585=CARTESIAN_POINT('Origin',(200.,-177.518916470467,-40.2659461701893));
#1586=CARTESIAN_POINT('Origin',(200.,-177.518916470467,-40.2659461701893));
#1587=CARTESIAN_POINT('Origin',(200.,-177.518916470467,-40.2659461701893));
#1588=CARTESIAN_POINT('',(200.,-253.676262048975,-40.9125019432395));
#1589=CARTESIAN_POINT('',(200.,-253.676262048975,-42.4125019432395));
#1590=CARTESIAN_POINT('',(200.,-253.676262048975,-41.3392240567144));
#1591=CARTESIAN_POINT('',(200.,-101.361520646242,-55.6194120254577));
#1592=CARTESIAN_POINT('',(200.,-139.816735770553,-52.2850363526772));
#1593=CARTESIAN_POINT('',(200.,-101.361520646242,-54.1194120254577));
#1594=CARTESIAN_POINT('',(200.,-101.361520646242,-47.1926790978235));
#1595=CARTESIAN_POINT('',(200.,-215.909560727818,-44.1871779454243));
#1596=CARTESIAN_POINT('Origin',(411.468538385826,-101.361520646242,-55.6194120254577));
#1597=CARTESIAN_POINT('',(10.1527679072305,-253.676262048975,-42.4125019432395));
#1598=CARTESIAN_POINT('',(411.468538385826,-253.676262048975,-42.4125019432395));
#1599=CARTESIAN_POINT('',(5.1527679072305,-248.676262048975,-42.8460420576299));
#1600=CARTESIAN_POINT('Origin',(10.1527679072305,-248.676262048975,-42.8460420576299));
#1601=CARTESIAN_POINT('',(5.1527679072305,-106.361520646242,-55.1858719110673));
#1602=CARTESIAN_POINT('',(5.1527679072305,-139.472478868976,-52.314886187975));
#1603=CARTESIAN_POINT('',(10.1527679072305,-101.361520646242,-55.6194120254577));
#1604=CARTESIAN_POINT('Origin',(10.1527679072305,-106.361520646242,-55.1858719110673));
#1605=CARTESIAN_POINT('',(411.468538385826,-101.361520646242,-55.6194120254577));
#1606=CARTESIAN_POINT('Origin',(411.468538385826,-253.676262048975,-42.4125019432395));
#1607=CARTESIAN_POINT('',(10.1527679072305,-253.676262048975,-40.9125019432395));
#1608=CARTESIAN_POINT('',(411.468538385826,-253.676262048975,-40.9125019432395));
#1609=CARTESIAN_POINT('',(10.1527679072305,-253.676262048975,-45.339229463794));
#1610=CARTESIAN_POINT('Origin',(411.468538385826,-253.676262048975,-40.9125019432395));
#1611=CARTESIAN_POINT('',(10.1527679072305,-101.361520646242,-54.1194120254577));
#1612=CARTESIAN_POINT('',(411.468538385826,-101.361520646242,-54.1194120254577));
#1613=CARTESIAN_POINT('',(5.1527679072305,-106.361520646242,-53.6858719110673));
#1614=CARTESIAN_POINT('Origin',(10.1527679072305,-106.361520646242,-53.6858719110673));
#1615=CARTESIAN_POINT('',(5.1527679072305,-248.676262048975,-41.3460420576299));
#1616=CARTESIAN_POINT('',(5.1527679072305,-215.565303826241,-44.2170277807222));
#1617=CARTESIAN_POINT('Origin',(10.1527679072305,-248.676262048975,-41.3460420576299));
#1618=CARTESIAN_POINT('Origin',(411.468538385826,-101.361520646242,-54.1194120254577));
#1619=CARTESIAN_POINT('',(10.1527679072305,-101.361520646242,-51.1926845049032));
#1620=CARTESIAN_POINT('Origin',(10.1527679072305,-106.361520646242,-51.1926845049032));
#1621=CARTESIAN_POINT('',(5.1527679072305,-106.361520646242,-51.1926845049032));
#1622=CARTESIAN_POINT('Origin',(5.1527679072305,-177.518891347609,-48.2659569843486));
#1623=CARTESIAN_POINT('',(5.1527679072305,-248.676262048975,-45.339229463794));
#1624=CARTESIAN_POINT('Origin',(10.1527679072305,-248.676262048975,-45.339229463794));
#1625=CARTESIAN_POINT('',(-69.8472320182622,-94.891442151244,-45.7628072930645));
#1626=CARTESIAN_POINT('',(-69.8472320182621,27.4994052896543,-56.3595222915487));
#1627=CARTESIAN_POINT('',(7.10542704489971E-14,0.200000000000102,31.4999999999434));
#1628=UNCERTAINTY_MEASURE_WITH_UNIT(LENGTH_MEASURE(0.01),#1636,
'DISTANCE_ACCURACY_VALUE',
'Maximum model space distance between geometric entities at asserted c
onnectivities');
#1629=UNCERTAINTY_MEASURE_WITH_UNIT(LENGTH_MEASURE(0.01),#1636,
'DISTANCE_ACCURACY_VALUE',
'Maximum model space distance between geometric entities at asserted c
onnectivities');
#1630=UNCERTAINTY_MEASURE_WITH_UNIT(LENGTH_MEASURE(0.01),#1636,
'DISTANCE_ACCURACY_VALUE',
'Maximum model space distance between geometric entities at asserted c
onnectivities');
#1631=UNCERTAINTY_MEASURE_WITH_UNIT(LENGTH_MEASURE(0.01),#1636,
'DISTANCE_ACCURACY_VALUE',
'Maximum model space distance between geometric entities at asserted c
onnectivities');
#1632=(
GEOMETRIC_REPRESENTATION_CONTEXT(3)
GLOBAL_UNCERTAINTY_ASSIGNED_CONTEXT((#1628))
GLOBAL_UNIT_ASSIGNED_CONTEXT((#1636,#1638,#1639))
REPRESENTATION_CONTEXT('','3D')
);
#1633=(
GEOMETRIC_REPRESENTATION_CONTEXT(3)
GLOBAL_UNCERTAINTY_ASSIGNED_CONTEXT((#1629))
GLOBAL_UNIT_ASSIGNED_CONTEXT((#1636,#1638,#1639))
REPRESENTATION_CONTEXT('','3D')
);
#1634=(
GEOMETRIC_REPRESENTATION_CONTEXT(3)
GLOBAL_UNCERTAINTY_ASSIGNED_CONTEXT((#1630))
GLOBAL_UNIT_ASSIGNED_CONTEXT((#1636,#1638,#1639))
REPRESENTATION_CONTEXT('','3D')
);
#1635=(
GEOMETRIC_REPRESENTATION_CONTEXT(3)
GLOBAL_UNCERTAINTY_ASSIGNED_CONTEXT((#1631))
GLOBAL_UNIT_ASSIGNED_CONTEXT((#1636,#1638,#1639))
REPRESENTATION_CONTEXT('','3D')
);
#1636=(
LENGTH_UNIT()
NAMED_UNIT(*)
SI_UNIT(.MILLI.,.METRE.)
);
#1637=(
LENGTH_UNIT()
NAMED_UNIT(*)
SI_UNIT($,.METRE.)
);
#1638=(
NAMED_UNIT(*)
PLANE_ANGLE_UNIT()
SI_UNIT($,.RADIAN.)
);
#1639=(
NAMED_UNIT(*)
SI_UNIT($,.STERADIAN.)
SOLID_ANGLE_UNIT()
);
#1640=SHAPE_DEFINITION_REPRESENTATION(#1643,#1649);
#1641=SHAPE_DEFINITION_REPRESENTATION(#1644,#1650);
#1642=SHAPE_DEFINITION_REPRESENTATION(#1645,#1651);
#1643=PRODUCT_DEFINITION_SHAPE('',$,#1653);
#1644=PRODUCT_DEFINITION_SHAPE('',$,#1654);
#1645=PRODUCT_DEFINITION_SHAPE('',$,#1655);
#1646=PRODUCT_DEFINITION_SHAPE($,$,#20);
#1647=PRODUCT_DEFINITION_SHAPE($,$,#21);
#1648=PRODUCT_DEFINITION_SHAPE($,$,#22);
#1649=SHAPE_REPRESENTATION('',(#977,#1068,#1069,#1070),#1632);
#1650=SHAPE_REPRESENTATION('',(#978),#1633);
#1651=SHAPE_REPRESENTATION('',(#996),#1634);
#1652=PRODUCT_DEFINITION_CONTEXT('part definition',#1663,'design');
#1653=PRODUCT_DEFINITION('2026-08-10-23-31-13-994','Bottom_KeyboardL',#1656,
#1652);
#1654=PRODUCT_DEFINITION('2026-08-10-23-31-13-993','grippers',#1657,#1652);
#1655=PRODUCT_DEFINITION('2026-08-10-23-31-13-994_1','Component2',#1658,
#1652);
#1656=PRODUCT_DEFINITION_FORMATION('',$,#1665);
#1657=PRODUCT_DEFINITION_FORMATION('',$,#1666);
#1658=PRODUCT_DEFINITION_FORMATION('',$,#1667);
#1659=PRODUCT_RELATED_PRODUCT_CATEGORY('Bottom_KeyboardL',
'Bottom_KeyboardL',(#1665));
#1660=PRODUCT_RELATED_PRODUCT_CATEGORY('grippers','grippers',(#1666));
#1661=PRODUCT_RELATED_PRODUCT_CATEGORY('Component2','Component2',(#1667));
#1662=APPLICATION_PROTOCOL_DEFINITION('international standard',
'automotive_design',2009,#1663);
#1663=APPLICATION_CONTEXT(
'Core Data for Automotive Mechanical Design Process');
#1664=PRODUCT_CONTEXT('part definition',#1663,'mechanical');
#1665=PRODUCT('2026-08-10-23-31-13-994','Bottom_KeyboardL',$,(#1664));
#1666=PRODUCT('2026-08-10-23-31-13-993','grippers',$,(#1664));
#1667=PRODUCT('2026-08-10-23-31-13-994_1','Component2',$,(#1664));
#1668=PRESENTATION_STYLE_ASSIGNMENT((#1671));
#1669=PRESENTATION_STYLE_ASSIGNMENT((#1672));
#1670=PRESENTATION_STYLE_ASSIGNMENT((#1673));
#1671=SURFACE_STYLE_USAGE(.BOTH.,#1674);
#1672=SURFACE_STYLE_USAGE(.BOTH.,#1675);
#1673=SURFACE_STYLE_USAGE(.BOTH.,#1676);
#1674=SURFACE_SIDE_STYLE('',(#1677));
#1675=SURFACE_SIDE_STYLE('',(#1678));
#1676=SURFACE_SIDE_STYLE('',(#1679));
#1677=SURFACE_STYLE_FILL_AREA(#1680);
#1678=SURFACE_STYLE_FILL_AREA(#1681);
#1679=SURFACE_STYLE_FILL_AREA(#1682);
#1680=FILL_AREA_STYLE('Steel - Satin',(#1683));
#1681=FILL_AREA_STYLE('Powder Coat - Rough (Black)',(#1684));
#1682=FILL_AREA_STYLE('Rilsan Invent Natural - PA 11',(#1685));
#1683=FILL_AREA_STYLE_COLOUR('Steel - Satin',#1686);
#1684=FILL_AREA_STYLE_COLOUR('Powder Coat - Rough (Black)',#1687);
#1685=FILL_AREA_STYLE_COLOUR('Rilsan Invent Natural - PA 11',#1688);
#1686=COLOUR_RGB('Steel - Satin',0.627450980392157,0.627450980392157,0.627450980392157);
#1687=COLOUR_RGB('Powder Coat - Rough (Black)',0.0980392156862745,0.0980392156862745,
0.0980392156862745);
#1688=COLOUR_RGB('Rilsan Invent Natural - PA 11',0.964705882352941,0.964705882352941,
0.952941176470588);
ENDSEC;
END-ISO-10303-21;
