ISO-10303-21;
HEADER;
/* Generated by software containing ST-Developer
 * from STEP Tools, Inc. (www.steptools.com) 
 */

FILE_DESCRIPTION(
/* description */ (''),
/* implementation_level */ '2;1');

FILE_NAME(
/* name */ 'Bottom_KeyboardR.step',
/* time_stamp */ '2026-08-10T23:31:28-04:00',
/* author */ (''),
/* organization */ (''),
/* preprocessor_version */ 'ST-DEVELOPER v20.1',
/* originating_system */ 'Autodesk Translation Framework v15.8.0.0',
/* authorisation */ '');

FILE_SCHEMA (('AUTOMOTIVE_DESIGN { 1 0 10303 214 3 1 1 }'));
ENDSEC;

DATA;
#10=MECHANICAL_DESIGN_GEOMETRIC_PRESENTATION_REPRESENTATION('',(#35,#36,
#37,#38),#1359);
#11=ITEM_DEFINED_TRANSFORMATION($,$,#814,#888);
#12=ITEM_DEFINED_TRANSFORMATION($,$,#814,#889);
#13=ITEM_DEFINED_TRANSFORMATION($,$,#832,#890);
#14=(
REPRESENTATION_RELATIONSHIP($,$,#1374,#1373)
REPRESENTATION_RELATIONSHIP_WITH_TRANSFORMATION(#11)
SHAPE_REPRESENTATION_RELATIONSHIP()
);
#15=(
REPRESENTATION_RELATIONSHIP($,$,#1374,#1373)
REPRESENTATION_RELATIONSHIP_WITH_TRANSFORMATION(#12)
SHAPE_REPRESENTATION_RELATIONSHIP()
);
#16=(
REPRESENTATION_RELATIONSHIP($,$,#1375,#1373)
REPRESENTATION_RELATIONSHIP_WITH_TRANSFORMATION(#13)
SHAPE_REPRESENTATION_RELATIONSHIP()
);
#17=CONTEXT_DEPENDENT_SHAPE_REPRESENTATION(#14,#1370);
#18=CONTEXT_DEPENDENT_SHAPE_REPRESENTATION(#15,#1371);
#19=CONTEXT_DEPENDENT_SHAPE_REPRESENTATION(#16,#1372);
#20=NEXT_ASSEMBLY_USAGE_OCCURRENCE('grippers:1','grippers:1',
'grippers:1',#1377,#1378,'grippers:1');
#21=NEXT_ASSEMBLY_USAGE_OCCURRENCE('grippers:2','grippers:2',
'grippers:2',#1377,#1378,'grippers:2');
#22=NEXT_ASSEMBLY_USAGE_OCCURRENCE('Component2:1','Component2:1',
'Component2:1',#1377,#1379,'Component2:1');
#23=ELLIPSE('',#836,5.01876050741472,5.);
#24=ELLIPSE('',#837,5.01876050741472,5.);
#25=ELLIPSE('',#839,5.01876050741472,5.);
#26=ELLIPSE('',#842,5.01876050741472,5.);
#27=ELLIPSE('',#849,57.8811549507514,5.);
#28=ELLIPSE('',#852,5.01876050741472,5.);
#29=ELLIPSE('',#858,5.01876050741472,5.);
#30=SHAPE_REPRESENTATION_RELATIONSHIP('SRR','None',#1374,#32);
#31=SHAPE_REPRESENTATION_RELATIONSHIP('SRR','None',#1375,#33);
#32=ADVANCED_BREP_SHAPE_REPRESENTATION('',(#39,#40),#1357);
#33=ADVANCED_BREP_SHAPE_REPRESENTATION('',(#41,#42),#1358);
#34=FACE_BOUND('',#290,.T.);
#35=STYLED_ITEM('',(#1393),#39);
#36=STYLED_ITEM('',(#1393),#40);
#37=STYLED_ITEM('',(#1394),#41);
#38=STYLED_ITEM('',(#1394),#42);
#39=MANIFOLD_SOLID_BREP('Body1',#786);
#40=MANIFOLD_SOLID_BREP('Body2',#787);
#41=MANIFOLD_SOLID_BREP('Body1',#788);
#42=MANIFOLD_SOLID_BREP('Body1',#789);
#43=PLANE('',#822);
#44=PLANE('',#823);
#45=PLANE('',#831);
#46=PLANE('',#833);
#47=PLANE('',#834);
#48=PLANE('',#835);
#49=PLANE('',#840);
#50=PLANE('',#843);
#51=PLANE('',#844);
#52=PLANE('',#845);
#53=PLANE('',#846);
#54=PLANE('',#847);
#55=PLANE('',#848);
#56=PLANE('',#853);
#57=PLANE('',#855);
#58=PLANE('',#859);
#59=PLANE('',#861);
#60=PLANE('',#865);
#61=PLANE('',#870);
#62=PLANE('',#876);
#63=PLANE('',#877);
#64=PLANE('',#878);
#65=PLANE('',#879);
#66=PLANE('',#880);
#67=PLANE('',#881);
#68=PLANE('',#882);
#69=PLANE('',#883);
#70=PLANE('',#884);
#71=PLANE('',#885);
#72=PLANE('',#886);
#73=PLANE('',#887);
#74=LINE('',#1137,#152);
#75=LINE('',#1151,#153);
#76=LINE('',#1158,#154);
#77=LINE('',#1160,#155);
#78=LINE('',#1162,#156);
#79=LINE('',#1163,#157);
#80=LINE('',#1166,#158);
#81=LINE('',#1168,#159);
#82=LINE('',#1169,#160);
#83=LINE('',#1172,#161);
#84=LINE('',#1176,#162);
#85=LINE('',#1182,#163);
#86=LINE('',#1183,#164);
#87=LINE('',#1185,#165);
#88=LINE('',#1189,#166);
#89=LINE('',#1191,#167);
#90=LINE('',#1196,#168);
#91=LINE('',#1198,#169);
#92=LINE('',#1200,#170);
#93=LINE('',#1202,#171);
#94=LINE('',#1204,#172);
#95=LINE('',#1206,#173);
#96=LINE('',#1208,#174);
#97=LINE('',#1209,#175);
#98=LINE('',#1213,#176);
#99=LINE('',#1215,#177);
#100=LINE('',#1217,#178);
#101=LINE('',#1218,#179);
#102=LINE('',#1222,#180);
#103=LINE('',#1224,#181);
#104=LINE('',#1226,#182);
#105=LINE('',#1227,#183);
#106=LINE('',#1231,#184);
#107=LINE('',#1233,#185);
#108=LINE('',#1236,#186);
#109=LINE('',#1240,#187);
#110=LINE('',#1244,#188);
#111=LINE('',#1246,#189);
#112=LINE('',#1249,#190);
#113=LINE('',#1252,#191);
#114=LINE('',#1253,#192);
#115=LINE('',#1255,#193);
#116=LINE('',#1256,#194);
#117=LINE('',#1261,#195);
#118=LINE('',#1267,#196);
#119=LINE('',#1269,#197);
#120=LINE('',#1272,#198);
#121=LINE('',#1274,#199);
#122=LINE('',#1278,#200);
#123=LINE('',#1282,#201);
#124=LINE('',#1283,#202);
#125=LINE('',#1286,#203);
#126=LINE('',#1288,#204);
#127=LINE('',#1289,#205);
#128=LINE('',#1293,#206);
#129=LINE('',#1297,#207);
#130=LINE('',#1300,#208);
#131=LINE('',#1301,#209);
#132=LINE('',#1307,#210);
#133=LINE('',#1310,#211);
#134=LINE('',#1314,#212);
#135=LINE('',#1316,#213);
#136=LINE('',#1317,#214);
#137=LINE('',#1319,#215);
#138=LINE('',#1322,#216);
#139=LINE('',#1323,#217);
#140=LINE('',#1326,#218);
#141=LINE('',#1327,#219);
#142=LINE('',#1328,#220);
#143=LINE('',#1331,#221);
#144=LINE('',#1332,#222);
#145=LINE('',#1335,#223);
#146=LINE('',#1336,#224);
#147=LINE('',#1339,#225);
#148=LINE('',#1340,#226);
#149=LINE('',#1341,#227);
#150=LINE('',#1343,#228);
#151=LINE('',#1345,#229);
#152=VECTOR('',#907,5.);
#153=VECTOR('',#926,5.00700517815348);
#154=VECTOR('',#935,10.);
#155=VECTOR('',#936,10.);
#156=VECTOR('',#937,10.);
#157=VECTOR('',#938,10.);
#158=VECTOR('',#941,10.);
#159=VECTOR('',#942,10.);
#160=VECTOR('',#943,10.);
#161=VECTOR('',#946,10.);
#162=VECTOR('',#949,10.);
#163=VECTOR('',#956,10.);
#164=VECTOR('',#957,10.);
#165=VECTOR('',#960,10.);
#166=VECTOR('',#965,10.);
#167=VECTOR('',#968,10.);
#168=VECTOR('',#973,5.);
#169=VECTOR('',#974,10.);
#170=VECTOR('',#975,10.);
#171=VECTOR('',#976,10.);
#172=VECTOR('',#977,10.);
#173=VECTOR('',#978,10.);
#174=VECTOR('',#979,10.);
#175=VECTOR('',#980,10.);
#176=VECTOR('',#983,10.);
#177=VECTOR('',#984,10.);
#178=VECTOR('',#985,10.);
#179=VECTOR('',#986,10.);
#180=VECTOR('',#989,10.);
#181=VECTOR('',#990,10.);
#182=VECTOR('',#991,10.);
#183=VECTOR('',#992,10.);
#184=VECTOR('',#995,10.);
#185=VECTOR('',#996,10.);
#186=VECTOR('',#999,10.);
#187=VECTOR('',#1004,10.);
#188=VECTOR('',#1009,10.);
#189=VECTOR('',#1010,10.);
#190=VECTOR('',#1013,10.);
#191=VECTOR('',#1016,10.);
#192=VECTOR('',#1017,10.);
#193=VECTOR('',#1018,10.);
#194=VECTOR('',#1019,10.);
#195=VECTOR('',#1026,5.);
#196=VECTOR('',#1033,10.);
#197=VECTOR('',#1034,10.);
#198=VECTOR('',#1037,10.);
#199=VECTOR('',#1038,10.);
#200=VECTOR('',#1041,10.);
#201=VECTOR('',#1044,10.);
#202=VECTOR('',#1045,10.);
#203=VECTOR('',#1048,10.);
#204=VECTOR('',#1049,10.);
#205=VECTOR('',#1050,10.);
#206=VECTOR('',#1055,10.);
#207=VECTOR('',#1060,10.);
#208=VECTOR('',#1063,10.);
#209=VECTOR('',#1064,10.);
#210=VECTOR('',#1071,10.);
#211=VECTOR('',#1074,10.);
#212=VECTOR('',#1079,10.);
#213=VECTOR('',#1080,10.);
#214=VECTOR('',#1081,10.);
#215=VECTOR('',#1084,10.);
#216=VECTOR('',#1087,10.);
#217=VECTOR('',#1088,10.);
#218=VECTOR('',#1091,10.);
#219=VECTOR('',#1092,10.);
#220=VECTOR('',#1093,10.);
#221=VECTOR('',#1096,10.);
#222=VECTOR('',#1097,10.);
#223=VECTOR('',#1100,10.);
#224=VECTOR('',#1101,10.);
#225=VECTOR('',#1104,10.);
#226=VECTOR('',#1105,10.);
#227=VECTOR('',#1106,10.);
#228=VECTOR('',#1109,10.);
#229=VECTOR('',#1112,10.);
#230=CYLINDRICAL_SURFACE('',#820,5.);
#231=CYLINDRICAL_SURFACE('',#829,5.00700517815348);
#232=CYLINDRICAL_SURFACE('',#838,5.);
#233=CYLINDRICAL_SURFACE('',#841,5.);
#234=CYLINDRICAL_SURFACE('',#850,5.);
#235=CYLINDRICAL_SURFACE('',#856,5.);
#236=CYLINDRICAL_SURFACE('',#866,5.);
#237=CYLINDRICAL_SURFACE('',#868,5.);
#238=CYLINDRICAL_SURFACE('',#871,5.);
#239=CYLINDRICAL_SURFACE('',#874,5.);
#240=FACE_OUTER_BOUND('',#283,.T.);
#241=FACE_OUTER_BOUND('',#284,.T.);
#242=FACE_OUTER_BOUND('',#285,.T.);
#243=FACE_OUTER_BOUND('',#286,.T.);
#244=FACE_OUTER_BOUND('',#287,.T.);
#245=FACE_OUTER_BOUND('',#288,.T.);
#246=FACE_OUTER_BOUND('',#289,.T.);
#247=FACE_OUTER_BOUND('',#291,.T.);
#248=FACE_OUTER_BOUND('',#292,.T.);
#249=FACE_OUTER_BOUND('',#293,.T.);
#250=FACE_OUTER_BOUND('',#294,.T.);
#251=FACE_OUTER_BOUND('',#295,.T.);
#252=FACE_OUTER_BOUND('',#296,.T.);
#253=FACE_OUTER_BOUND('',#297,.T.);
#254=FACE_OUTER_BOUND('',#298,.T.);
#255=FACE_OUTER_BOUND('',#299,.T.);
#256=FACE_OUTER_BOUND('',#300,.T.);
#257=FACE_OUTER_BOUND('',#301,.T.);
#258=FACE_OUTER_BOUND('',#302,.T.);
#259=FACE_OUTER_BOUND('',#303,.T.);
#260=FACE_OUTER_BOUND('',#304,.T.);
#261=FACE_OUTER_BOUND('',#305,.T.);
#262=FACE_OUTER_BOUND('',#306,.T.);
#263=FACE_OUTER_BOUND('',#307,.T.);
#264=FACE_OUTER_BOUND('',#308,.T.);
#265=FACE_OUTER_BOUND('',#309,.T.);
#266=FACE_OUTER_BOUND('',#310,.T.);
#267=FACE_OUTER_BOUND('',#311,.T.);
#268=FACE_OUTER_BOUND('',#312,.T.);
#269=FACE_OUTER_BOUND('',#313,.T.);
#270=FACE_OUTER_BOUND('',#314,.T.);
#271=FACE_OUTER_BOUND('',#315,.T.);
#272=FACE_OUTER_BOUND('',#316,.T.);
#273=FACE_OUTER_BOUND('',#317,.T.);
#274=FACE_OUTER_BOUND('',#318,.T.);
#275=FACE_OUTER_BOUND('',#319,.T.);
#276=FACE_OUTER_BOUND('',#320,.T.);
#277=FACE_OUTER_BOUND('',#321,.T.);
#278=FACE_OUTER_BOUND('',#322,.T.);
#279=FACE_OUTER_BOUND('',#323,.T.);
#280=FACE_OUTER_BOUND('',#324,.T.);
#281=FACE_OUTER_BOUND('',#325,.T.);
#282=FACE_OUTER_BOUND('',#326,.T.);
#283=EDGE_LOOP('',(#527,#528,#529,#530,#531));
#284=EDGE_LOOP('',(#532,#533,#534,#535,#536));
#285=EDGE_LOOP('',(#537));
#286=EDGE_LOOP('',(#538));
#287=EDGE_LOOP('',(#539,#540,#541,#542,#543));
#288=EDGE_LOOP('',(#544,#545,#546,#547,#548));
#289=EDGE_LOOP('',(#549));
#290=EDGE_LOOP('',(#550));
#291=EDGE_LOOP('',(#551,#552,#553,#554));
#292=EDGE_LOOP('',(#555,#556,#557,#558));
#293=EDGE_LOOP('',(#559,#560,#561,#562,#563,#564));
#294=EDGE_LOOP('',(#565,#566,#567,#568));
#295=EDGE_LOOP('',(#569,#570,#571,#572));
#296=EDGE_LOOP('',(#573,#574,#575,#576));
#297=EDGE_LOOP('',(#577,#578,#579,#580,#581,#582));
#298=EDGE_LOOP('',(#583,#584,#585,#586));
#299=EDGE_LOOP('',(#587,#588,#589,#590,#591,#592,#593,#594));
#300=EDGE_LOOP('',(#595,#596,#597,#598));
#301=EDGE_LOOP('',(#599,#600,#601,#602));
#302=EDGE_LOOP('',(#603,#604,#605,#606));
#303=EDGE_LOOP('',(#607,#608,#609,#610,#611));
#304=EDGE_LOOP('',(#612,#613,#614,#615,#616));
#305=EDGE_LOOP('',(#617,#618,#619,#620,#621,#622,#623));
#306=EDGE_LOOP('',(#624,#625,#626,#627,#628,#629));
#307=EDGE_LOOP('',(#630,#631,#632));
#308=EDGE_LOOP('',(#633,#634,#635,#636,#637,#638,#639,#640,#641,#642,#643,
#644));
#309=EDGE_LOOP('',(#645,#646,#647,#648));
#310=EDGE_LOOP('',(#649,#650,#651,#652));
#311=EDGE_LOOP('',(#653,#654,#655,#656));
#312=EDGE_LOOP('',(#657,#658,#659,#660));
#313=EDGE_LOOP('',(#661,#662,#663,#664,#665));
#314=EDGE_LOOP('',(#666,#667,#668,#669,#670,#671));
#315=EDGE_LOOP('',(#672,#673,#674,#675));
#316=EDGE_LOOP('',(#676,#677,#678,#679));
#317=EDGE_LOOP('',(#680,#681,#682,#683));
#318=EDGE_LOOP('',(#684,#685,#686,#687,#688,#689,#690,#691,#692,#693));
#319=EDGE_LOOP('',(#694,#695,#696,#697,#698));
#320=EDGE_LOOP('',(#699,#700,#701,#702));
#321=EDGE_LOOP('',(#703,#704,#705,#706,#707,#708,#709,#710,#711,#712,#713,
#714,#715));
#322=EDGE_LOOP('',(#716,#717,#718,#719));
#323=EDGE_LOOP('',(#720,#721,#722,#723));
#324=EDGE_LOOP('',(#724,#725,#726,#727,#728,#729,#730,#731,#732));
#325=EDGE_LOOP('',(#733,#734,#735,#736));
#326=EDGE_LOOP('',(#737,#738,#739,#740));
#327=CIRCLE('',#816,4.5);
#328=CIRCLE('',#817,0.5);
#329=CIRCLE('',#818,5.);
#330=CIRCLE('',#819,5.);
#331=CIRCLE('',#821,5.);
#332=CIRCLE('',#825,6.95700517815348);
#333=CIRCLE('',#826,1.95);
#334=CIRCLE('',#827,5.00700517815348);
#335=CIRCLE('',#828,5.00700517815348);
#336=CIRCLE('',#830,5.00700517815348);
#337=CIRCLE('',#851,5.);
#338=CIRCLE('',#854,5.);
#339=CIRCLE('',#857,5.);
#340=CIRCLE('',#860,5.);
#341=CIRCLE('',#862,5.);
#342=CIRCLE('',#863,5.);
#343=CIRCLE('',#864,5.);
#344=CIRCLE('',#867,5.);
#345=CIRCLE('',#869,5.);
#346=CIRCLE('',#872,5.);
#347=CIRCLE('',#873,5.);
#348=CIRCLE('',#875,5.);
#349=VERTEX_POINT('',#1128);
#350=VERTEX_POINT('',#1130);
#351=VERTEX_POINT('',#1132);
#352=VERTEX_POINT('',#1136);
#353=VERTEX_POINT('',#1142);
#354=VERTEX_POINT('',#1144);
#355=VERTEX_POINT('',#1146);
#356=VERTEX_POINT('',#1150);
#357=VERTEX_POINT('',#1156);
#358=VERTEX_POINT('',#1157);
#359=VERTEX_POINT('',#1159);
#360=VERTEX_POINT('',#1161);
#361=VERTEX_POINT('',#1165);
#362=VERTEX_POINT('',#1167);
#363=VERTEX_POINT('',#1171);
#364=VERTEX_POINT('',#1173);
#365=VERTEX_POINT('',#1175);
#366=VERTEX_POINT('',#1179);
#367=VERTEX_POINT('',#1180);
#368=VERTEX_POINT('',#1187);
#369=VERTEX_POINT('',#1194);
#370=VERTEX_POINT('',#1195);
#371=VERTEX_POINT('',#1197);
#372=VERTEX_POINT('',#1199);
#373=VERTEX_POINT('',#1201);
#374=VERTEX_POINT('',#1203);
#375=VERTEX_POINT('',#1205);
#376=VERTEX_POINT('',#1207);
#377=VERTEX_POINT('',#1211);
#378=VERTEX_POINT('',#1212);
#379=VERTEX_POINT('',#1214);
#380=VERTEX_POINT('',#1216);
#381=VERTEX_POINT('',#1220);
#382=VERTEX_POINT('',#1221);
#383=VERTEX_POINT('',#1223);
#384=VERTEX_POINT('',#1225);
#385=VERTEX_POINT('',#1229);
#386=VERTEX_POINT('',#1230);
#387=VERTEX_POINT('',#1232);
#388=VERTEX_POINT('',#1234);
#389=VERTEX_POINT('',#1238);
#390=VERTEX_POINT('',#1243);
#391=VERTEX_POINT('',#1245);
#392=VERTEX_POINT('',#1247);
#393=VERTEX_POINT('',#1251);
#394=VERTEX_POINT('',#1254);
#395=VERTEX_POINT('',#1259);
#396=VERTEX_POINT('',#1265);
#397=VERTEX_POINT('',#1266);
#398=VERTEX_POINT('',#1268);
#399=VERTEX_POINT('',#1271);
#400=VERTEX_POINT('',#1273);
#401=VERTEX_POINT('',#1275);
#402=VERTEX_POINT('',#1277);
#403=VERTEX_POINT('',#1279);
#404=VERTEX_POINT('',#1281);
#405=VERTEX_POINT('',#1285);
#406=VERTEX_POINT('',#1287);
#407=VERTEX_POINT('',#1291);
#408=VERTEX_POINT('',#1295);
#409=VERTEX_POINT('',#1299);
#410=VERTEX_POINT('',#1303);
#411=VERTEX_POINT('',#1305);
#412=VERTEX_POINT('',#1309);
#413=VERTEX_POINT('',#1313);
#414=VERTEX_POINT('',#1315);
#415=VERTEX_POINT('',#1321);
#416=VERTEX_POINT('',#1325);
#417=VERTEX_POINT('',#1330);
#418=VERTEX_POINT('',#1334);
#419=VERTEX_POINT('',#1338);
#420=EDGE_CURVE('',#349,#349,#327,.T.);
#421=EDGE_CURVE('',#349,#350,#328,.T.);
#422=EDGE_CURVE('',#350,#351,#329,.T.);
#423=EDGE_CURVE('',#351,#350,#330,.T.);
#424=EDGE_CURVE('',#351,#352,#74,.T.);
#425=EDGE_CURVE('',#352,#352,#331,.T.);
#426=EDGE_CURVE('',#353,#353,#332,.T.);
#427=EDGE_CURVE('',#353,#354,#333,.T.);
#428=EDGE_CURVE('',#355,#354,#334,.T.);
#429=EDGE_CURVE('',#354,#355,#335,.T.);
#430=EDGE_CURVE('',#355,#356,#75,.T.);
#431=EDGE_CURVE('',#356,#356,#336,.T.);
#432=EDGE_CURVE('',#357,#358,#76,.T.);
#433=EDGE_CURVE('',#359,#357,#77,.T.);
#434=EDGE_CURVE('',#360,#359,#78,.T.);
#435=EDGE_CURVE('',#358,#360,#79,.T.);
#436=EDGE_CURVE('',#361,#359,#80,.T.);
#437=EDGE_CURVE('',#362,#361,#81,.T.);
#438=EDGE_CURVE('',#362,#360,#82,.T.);
#439=EDGE_CURVE('',#363,#357,#83,.T.);
#440=EDGE_CURVE('',#364,#363,#23,.T.);
#441=EDGE_CURVE('',#364,#365,#84,.T.);
#442=EDGE_CURVE('',#361,#365,#24,.T.);
#443=EDGE_CURVE('',#366,#367,#25,.T.);
#444=EDGE_CURVE('',#367,#364,#85,.T.);
#445=EDGE_CURVE('',#363,#366,#86,.T.);
#446=EDGE_CURVE('',#366,#358,#87,.T.);
#447=EDGE_CURVE('',#368,#362,#26,.T.);
#448=EDGE_CURVE('',#365,#368,#88,.T.);
#449=EDGE_CURVE('',#368,#367,#89,.T.);
#450=EDGE_CURVE('',#369,#370,#90,.T.);
#451=EDGE_CURVE('',#371,#369,#91,.F.);
#452=EDGE_CURVE('',#372,#371,#92,.T.);
#453=EDGE_CURVE('',#373,#372,#93,.T.);
#454=EDGE_CURVE('',#374,#373,#94,.T.);
#455=EDGE_CURVE('',#375,#374,#95,.F.);
#456=EDGE_CURVE('',#376,#375,#96,.T.);
#457=EDGE_CURVE('',#370,#376,#97,.F.);
#458=EDGE_CURVE('',#377,#378,#98,.T.);
#459=EDGE_CURVE('',#378,#379,#99,.T.);
#460=EDGE_CURVE('',#380,#379,#100,.T.);
#461=EDGE_CURVE('',#380,#377,#101,.T.);
#462=EDGE_CURVE('',#381,#382,#102,.T.);
#463=EDGE_CURVE('',#382,#383,#103,.T.);
#464=EDGE_CURVE('',#384,#383,#104,.T.);
#465=EDGE_CURVE('',#384,#381,#105,.T.);
#466=EDGE_CURVE('',#385,#386,#106,.T.);
#467=EDGE_CURVE('',#386,#387,#107,.T.);
#468=EDGE_CURVE('',#388,#387,#27,.T.);
#469=EDGE_CURVE('',#385,#388,#108,.T.);
#470=EDGE_CURVE('',#375,#389,#337,.T.);
#471=EDGE_CURVE('',#389,#388,#109,.T.);
#472=EDGE_CURVE('',#387,#376,#28,.T.);
#473=EDGE_CURVE('',#390,#377,#110,.T.);
#474=EDGE_CURVE('',#391,#380,#111,.T.);
#475=EDGE_CURVE('',#392,#391,#338,.T.);
#476=EDGE_CURVE('',#390,#392,#112,.T.);
#477=EDGE_CURVE('',#391,#393,#113,.T.);
#478=EDGE_CURVE('',#379,#384,#114,.T.);
#479=EDGE_CURVE('',#383,#394,#115,.T.);
#480=EDGE_CURVE('',#394,#393,#116,.T.);
#481=EDGE_CURVE('',#393,#369,#339,.T.);
#482=EDGE_CURVE('',#370,#395,#29,.T.);
#483=EDGE_CURVE('',#395,#392,#117,.T.);
#484=EDGE_CURVE('',#394,#369,#340,.T.);
#485=EDGE_CURVE('',#396,#397,#118,.T.);
#486=EDGE_CURVE('',#397,#398,#119,.T.);
#487=EDGE_CURVE('',#394,#398,#341,.T.);
#488=EDGE_CURVE('',#382,#399,#120,.T.);
#489=EDGE_CURVE('',#399,#400,#121,.T.);
#490=EDGE_CURVE('',#401,#400,#342,.T.);
#491=EDGE_CURVE('',#401,#402,#122,.T.);
#492=EDGE_CURVE('',#403,#402,#343,.T.);
#493=EDGE_CURVE('',#403,#404,#123,.T.);
#494=EDGE_CURVE('',#404,#396,#124,.T.);
#495=EDGE_CURVE('',#402,#405,#125,.T.);
#496=EDGE_CURVE('',#406,#401,#126,.T.);
#497=EDGE_CURVE('',#406,#405,#127,.T.);
#498=EDGE_CURVE('',#407,#406,#344,.T.);
#499=EDGE_CURVE('',#400,#407,#128,.T.);
#500=EDGE_CURVE('',#405,#408,#345,.T.);
#501=EDGE_CURVE('',#408,#403,#129,.T.);
#502=EDGE_CURVE('',#399,#409,#130,.T.);
#503=EDGE_CURVE('',#409,#407,#131,.T.);
#504=EDGE_CURVE('',#375,#410,#346,.T.);
#505=EDGE_CURVE('',#373,#411,#347,.T.);
#506=EDGE_CURVE('',#411,#410,#132,.T.);
#507=EDGE_CURVE('',#398,#412,#133,.T.);
#508=EDGE_CURVE('',#412,#372,#348,.T.);
#509=EDGE_CURVE('',#413,#396,#134,.T.);
#510=EDGE_CURVE('',#414,#404,#135,.T.);
#511=EDGE_CURVE('',#413,#414,#136,.T.);
#512=EDGE_CURVE('',#414,#408,#137,.T.);
#513=EDGE_CURVE('',#415,#385,#138,.T.);
#514=EDGE_CURVE('',#415,#389,#139,.T.);
#515=EDGE_CURVE('',#378,#416,#140,.T.);
#516=EDGE_CURVE('',#395,#416,#141,.T.);
#517=EDGE_CURVE('',#386,#381,#142,.T.);
#518=EDGE_CURVE('',#417,#415,#143,.T.);
#519=EDGE_CURVE('',#410,#417,#144,.T.);
#520=EDGE_CURVE('',#418,#417,#145,.T.);
#521=EDGE_CURVE('',#418,#411,#146,.T.);
#522=EDGE_CURVE('',#419,#413,#147,.T.);
#523=EDGE_CURVE('',#409,#418,#148,.T.);
#524=EDGE_CURVE('',#412,#419,#149,.T.);
#525=EDGE_CURVE('',#416,#390,#150,.T.);
#526=EDGE_CURVE('',#397,#419,#151,.T.);
#527=ORIENTED_EDGE('',*,*,#420,.T.);
#528=ORIENTED_EDGE('',*,*,#421,.T.);
#529=ORIENTED_EDGE('',*,*,#422,.T.);
#530=ORIENTED_EDGE('',*,*,#423,.T.);
#531=ORIENTED_EDGE('',*,*,#421,.F.);
#532=ORIENTED_EDGE('',*,*,#423,.F.);
#533=ORIENTED_EDGE('',*,*,#424,.T.);
#534=ORIENTED_EDGE('',*,*,#425,.T.);
#535=ORIENTED_EDGE('',*,*,#424,.F.);
#536=ORIENTED_EDGE('',*,*,#422,.F.);
#537=ORIENTED_EDGE('',*,*,#420,.F.);
#538=ORIENTED_EDGE('',*,*,#425,.F.);
#539=ORIENTED_EDGE('',*,*,#426,.T.);
#540=ORIENTED_EDGE('',*,*,#427,.T.);
#541=ORIENTED_EDGE('',*,*,#428,.F.);
#542=ORIENTED_EDGE('',*,*,#429,.F.);
#543=ORIENTED_EDGE('',*,*,#427,.F.);
#544=ORIENTED_EDGE('',*,*,#428,.T.);
#545=ORIENTED_EDGE('',*,*,#429,.T.);
#546=ORIENTED_EDGE('',*,*,#430,.T.);
#547=ORIENTED_EDGE('',*,*,#431,.F.);
#548=ORIENTED_EDGE('',*,*,#430,.F.);
#549=ORIENTED_EDGE('',*,*,#426,.F.);
#550=ORIENTED_EDGE('',*,*,#431,.T.);
#551=ORIENTED_EDGE('',*,*,#432,.F.);
#552=ORIENTED_EDGE('',*,*,#433,.F.);
#553=ORIENTED_EDGE('',*,*,#434,.F.);
#554=ORIENTED_EDGE('',*,*,#435,.F.);
#555=ORIENTED_EDGE('',*,*,#434,.T.);
#556=ORIENTED_EDGE('',*,*,#436,.F.);
#557=ORIENTED_EDGE('',*,*,#437,.F.);
#558=ORIENTED_EDGE('',*,*,#438,.T.);
#559=ORIENTED_EDGE('',*,*,#433,.T.);
#560=ORIENTED_EDGE('',*,*,#439,.F.);
#561=ORIENTED_EDGE('',*,*,#440,.F.);
#562=ORIENTED_EDGE('',*,*,#441,.T.);
#563=ORIENTED_EDGE('',*,*,#442,.F.);
#564=ORIENTED_EDGE('',*,*,#436,.T.);
#565=ORIENTED_EDGE('',*,*,#443,.T.);
#566=ORIENTED_EDGE('',*,*,#444,.T.);
#567=ORIENTED_EDGE('',*,*,#440,.T.);
#568=ORIENTED_EDGE('',*,*,#445,.T.);
#569=ORIENTED_EDGE('',*,*,#432,.T.);
#570=ORIENTED_EDGE('',*,*,#446,.F.);
#571=ORIENTED_EDGE('',*,*,#445,.F.);
#572=ORIENTED_EDGE('',*,*,#439,.T.);
#573=ORIENTED_EDGE('',*,*,#447,.T.);
#574=ORIENTED_EDGE('',*,*,#437,.T.);
#575=ORIENTED_EDGE('',*,*,#442,.T.);
#576=ORIENTED_EDGE('',*,*,#448,.T.);
#577=ORIENTED_EDGE('',*,*,#435,.T.);
#578=ORIENTED_EDGE('',*,*,#438,.F.);
#579=ORIENTED_EDGE('',*,*,#447,.F.);
#580=ORIENTED_EDGE('',*,*,#449,.T.);
#581=ORIENTED_EDGE('',*,*,#443,.F.);
#582=ORIENTED_EDGE('',*,*,#446,.T.);
#583=ORIENTED_EDGE('',*,*,#444,.F.);
#584=ORIENTED_EDGE('',*,*,#449,.F.);
#585=ORIENTED_EDGE('',*,*,#448,.F.);
#586=ORIENTED_EDGE('',*,*,#441,.F.);
#587=ORIENTED_EDGE('',*,*,#450,.F.);
#588=ORIENTED_EDGE('',*,*,#451,.F.);
#589=ORIENTED_EDGE('',*,*,#452,.F.);
#590=ORIENTED_EDGE('',*,*,#453,.F.);
#591=ORIENTED_EDGE('',*,*,#454,.F.);
#592=ORIENTED_EDGE('',*,*,#455,.F.);
#593=ORIENTED_EDGE('',*,*,#456,.F.);
#594=ORIENTED_EDGE('',*,*,#457,.F.);
#595=ORIENTED_EDGE('',*,*,#458,.T.);
#596=ORIENTED_EDGE('',*,*,#459,.T.);
#597=ORIENTED_EDGE('',*,*,#460,.F.);
#598=ORIENTED_EDGE('',*,*,#461,.T.);
#599=ORIENTED_EDGE('',*,*,#462,.T.);
#600=ORIENTED_EDGE('',*,*,#463,.T.);
#601=ORIENTED_EDGE('',*,*,#464,.F.);
#602=ORIENTED_EDGE('',*,*,#465,.T.);
#603=ORIENTED_EDGE('',*,*,#466,.T.);
#604=ORIENTED_EDGE('',*,*,#467,.T.);
#605=ORIENTED_EDGE('',*,*,#468,.F.);
#606=ORIENTED_EDGE('',*,*,#469,.F.);
#607=ORIENTED_EDGE('',*,*,#470,.T.);
#608=ORIENTED_EDGE('',*,*,#471,.T.);
#609=ORIENTED_EDGE('',*,*,#468,.T.);
#610=ORIENTED_EDGE('',*,*,#472,.T.);
#611=ORIENTED_EDGE('',*,*,#456,.T.);
#612=ORIENTED_EDGE('',*,*,#473,.T.);
#613=ORIENTED_EDGE('',*,*,#461,.F.);
#614=ORIENTED_EDGE('',*,*,#474,.F.);
#615=ORIENTED_EDGE('',*,*,#475,.F.);
#616=ORIENTED_EDGE('',*,*,#476,.F.);
#617=ORIENTED_EDGE('',*,*,#477,.F.);
#618=ORIENTED_EDGE('',*,*,#474,.T.);
#619=ORIENTED_EDGE('',*,*,#460,.T.);
#620=ORIENTED_EDGE('',*,*,#478,.T.);
#621=ORIENTED_EDGE('',*,*,#464,.T.);
#622=ORIENTED_EDGE('',*,*,#479,.T.);
#623=ORIENTED_EDGE('',*,*,#480,.T.);
#624=ORIENTED_EDGE('',*,*,#481,.T.);
#625=ORIENTED_EDGE('',*,*,#450,.T.);
#626=ORIENTED_EDGE('',*,*,#482,.T.);
#627=ORIENTED_EDGE('',*,*,#483,.T.);
#628=ORIENTED_EDGE('',*,*,#475,.T.);
#629=ORIENTED_EDGE('',*,*,#477,.T.);
#630=ORIENTED_EDGE('',*,*,#484,.T.);
#631=ORIENTED_EDGE('',*,*,#481,.F.);
#632=ORIENTED_EDGE('',*,*,#480,.F.);
#633=ORIENTED_EDGE('',*,*,#485,.T.);
#634=ORIENTED_EDGE('',*,*,#486,.T.);
#635=ORIENTED_EDGE('',*,*,#487,.F.);
#636=ORIENTED_EDGE('',*,*,#479,.F.);
#637=ORIENTED_EDGE('',*,*,#463,.F.);
#638=ORIENTED_EDGE('',*,*,#488,.T.);
#639=ORIENTED_EDGE('',*,*,#489,.T.);
#640=ORIENTED_EDGE('',*,*,#490,.F.);
#641=ORIENTED_EDGE('',*,*,#491,.T.);
#642=ORIENTED_EDGE('',*,*,#492,.F.);
#643=ORIENTED_EDGE('',*,*,#493,.T.);
#644=ORIENTED_EDGE('',*,*,#494,.T.);
#645=ORIENTED_EDGE('',*,*,#495,.F.);
#646=ORIENTED_EDGE('',*,*,#491,.F.);
#647=ORIENTED_EDGE('',*,*,#496,.F.);
#648=ORIENTED_EDGE('',*,*,#497,.T.);
#649=ORIENTED_EDGE('',*,*,#498,.T.);
#650=ORIENTED_EDGE('',*,*,#496,.T.);
#651=ORIENTED_EDGE('',*,*,#490,.T.);
#652=ORIENTED_EDGE('',*,*,#499,.T.);
#653=ORIENTED_EDGE('',*,*,#500,.T.);
#654=ORIENTED_EDGE('',*,*,#501,.T.);
#655=ORIENTED_EDGE('',*,*,#492,.T.);
#656=ORIENTED_EDGE('',*,*,#495,.T.);
#657=ORIENTED_EDGE('',*,*,#502,.T.);
#658=ORIENTED_EDGE('',*,*,#503,.T.);
#659=ORIENTED_EDGE('',*,*,#499,.F.);
#660=ORIENTED_EDGE('',*,*,#489,.F.);
#661=ORIENTED_EDGE('',*,*,#504,.F.);
#662=ORIENTED_EDGE('',*,*,#455,.T.);
#663=ORIENTED_EDGE('',*,*,#454,.T.);
#664=ORIENTED_EDGE('',*,*,#505,.T.);
#665=ORIENTED_EDGE('',*,*,#506,.T.);
#666=ORIENTED_EDGE('',*,*,#451,.T.);
#667=ORIENTED_EDGE('',*,*,#484,.F.);
#668=ORIENTED_EDGE('',*,*,#487,.T.);
#669=ORIENTED_EDGE('',*,*,#507,.T.);
#670=ORIENTED_EDGE('',*,*,#508,.T.);
#671=ORIENTED_EDGE('',*,*,#452,.T.);
#672=ORIENTED_EDGE('',*,*,#509,.T.);
#673=ORIENTED_EDGE('',*,*,#494,.F.);
#674=ORIENTED_EDGE('',*,*,#510,.F.);
#675=ORIENTED_EDGE('',*,*,#511,.F.);
#676=ORIENTED_EDGE('',*,*,#510,.T.);
#677=ORIENTED_EDGE('',*,*,#493,.F.);
#678=ORIENTED_EDGE('',*,*,#501,.F.);
#679=ORIENTED_EDGE('',*,*,#512,.F.);
#680=ORIENTED_EDGE('',*,*,#513,.T.);
#681=ORIENTED_EDGE('',*,*,#469,.T.);
#682=ORIENTED_EDGE('',*,*,#471,.F.);
#683=ORIENTED_EDGE('',*,*,#514,.F.);
#684=ORIENTED_EDGE('',*,*,#515,.T.);
#685=ORIENTED_EDGE('',*,*,#516,.F.);
#686=ORIENTED_EDGE('',*,*,#482,.F.);
#687=ORIENTED_EDGE('',*,*,#457,.T.);
#688=ORIENTED_EDGE('',*,*,#472,.F.);
#689=ORIENTED_EDGE('',*,*,#467,.F.);
#690=ORIENTED_EDGE('',*,*,#517,.T.);
#691=ORIENTED_EDGE('',*,*,#465,.F.);
#692=ORIENTED_EDGE('',*,*,#478,.F.);
#693=ORIENTED_EDGE('',*,*,#459,.F.);
#694=ORIENTED_EDGE('',*,*,#518,.T.);
#695=ORIENTED_EDGE('',*,*,#514,.T.);
#696=ORIENTED_EDGE('',*,*,#470,.F.);
#697=ORIENTED_EDGE('',*,*,#504,.T.);
#698=ORIENTED_EDGE('',*,*,#519,.T.);
#699=ORIENTED_EDGE('',*,*,#520,.T.);
#700=ORIENTED_EDGE('',*,*,#519,.F.);
#701=ORIENTED_EDGE('',*,*,#506,.F.);
#702=ORIENTED_EDGE('',*,*,#521,.F.);
#703=ORIENTED_EDGE('',*,*,#522,.T.);
#704=ORIENTED_EDGE('',*,*,#511,.T.);
#705=ORIENTED_EDGE('',*,*,#512,.T.);
#706=ORIENTED_EDGE('',*,*,#500,.F.);
#707=ORIENTED_EDGE('',*,*,#497,.F.);
#708=ORIENTED_EDGE('',*,*,#498,.F.);
#709=ORIENTED_EDGE('',*,*,#503,.F.);
#710=ORIENTED_EDGE('',*,*,#523,.T.);
#711=ORIENTED_EDGE('',*,*,#521,.T.);
#712=ORIENTED_EDGE('',*,*,#505,.F.);
#713=ORIENTED_EDGE('',*,*,#453,.T.);
#714=ORIENTED_EDGE('',*,*,#508,.F.);
#715=ORIENTED_EDGE('',*,*,#524,.T.);
#716=ORIENTED_EDGE('',*,*,#525,.T.);
#717=ORIENTED_EDGE('',*,*,#476,.T.);
#718=ORIENTED_EDGE('',*,*,#483,.F.);
#719=ORIENTED_EDGE('',*,*,#516,.T.);
#720=ORIENTED_EDGE('',*,*,#526,.T.);
#721=ORIENTED_EDGE('',*,*,#524,.F.);
#722=ORIENTED_EDGE('',*,*,#507,.F.);
#723=ORIENTED_EDGE('',*,*,#486,.F.);
#724=ORIENTED_EDGE('',*,*,#466,.F.);
#725=ORIENTED_EDGE('',*,*,#513,.F.);
#726=ORIENTED_EDGE('',*,*,#518,.F.);
#727=ORIENTED_EDGE('',*,*,#520,.F.);
#728=ORIENTED_EDGE('',*,*,#523,.F.);
#729=ORIENTED_EDGE('',*,*,#502,.F.);
#730=ORIENTED_EDGE('',*,*,#488,.F.);
#731=ORIENTED_EDGE('',*,*,#462,.F.);
#732=ORIENTED_EDGE('',*,*,#517,.F.);
#733=ORIENTED_EDGE('',*,*,#473,.F.);
#734=ORIENTED_EDGE('',*,*,#525,.F.);
#735=ORIENTED_EDGE('',*,*,#515,.F.);
#736=ORIENTED_EDGE('',*,*,#458,.F.);
#737=ORIENTED_EDGE('',*,*,#509,.F.);
#738=ORIENTED_EDGE('',*,*,#522,.F.);
#739=ORIENTED_EDGE('',*,*,#526,.F.);
#740=ORIENTED_EDGE('',*,*,#485,.F.);
#741=TOROIDAL_SURFACE('',#815,4.5,0.5);
#742=TOROIDAL_SURFACE('',#824,6.95700517815348,1.95);
#743=ADVANCED_FACE('',(#240),#741,.T.);
#744=ADVANCED_FACE('',(#241),#230,.T.);
#745=ADVANCED_FACE('',(#242),#43,.T.);
#746=ADVANCED_FACE('',(#243),#44,.F.);
#747=ADVANCED_FACE('',(#244),#742,.F.);
#748=ADVANCED_FACE('',(#245),#231,.F.);
#749=ADVANCED_FACE('',(#246,#34),#45,.T.);
#750=ADVANCED_FACE('',(#247),#46,.F.);
#751=ADVANCED_FACE('',(#248),#47,.T.);
#752=ADVANCED_FACE('',(#249),#48,.T.);
#753=ADVANCED_FACE('',(#250),#232,.T.);
#754=ADVANCED_FACE('',(#251),#49,.T.);
#755=ADVANCED_FACE('',(#252),#233,.T.);
#756=ADVANCED_FACE('',(#253),#50,.T.);
#757=ADVANCED_FACE('',(#254),#51,.T.);
#758=ADVANCED_FACE('',(#255),#52,.T.);
#759=ADVANCED_FACE('',(#256),#53,.T.);
#760=ADVANCED_FACE('',(#257),#54,.T.);
#761=ADVANCED_FACE('',(#258),#55,.F.);
#762=ADVANCED_FACE('',(#259),#234,.T.);
#763=ADVANCED_FACE('',(#260),#56,.T.);
#764=ADVANCED_FACE('',(#261),#57,.T.);
#765=ADVANCED_FACE('',(#262),#235,.T.);
#766=ADVANCED_FACE('',(#263),#58,.T.);
#767=ADVANCED_FACE('',(#264),#59,.T.);
#768=ADVANCED_FACE('',(#265),#60,.T.);
#769=ADVANCED_FACE('',(#266),#236,.F.);
#770=ADVANCED_FACE('',(#267),#237,.F.);
#771=ADVANCED_FACE('',(#268),#61,.T.);
#772=ADVANCED_FACE('',(#269),#238,.T.);
#773=ADVANCED_FACE('',(#270),#239,.T.);
#774=ADVANCED_FACE('',(#271),#62,.T.);
#775=ADVANCED_FACE('',(#272),#63,.F.);
#776=ADVANCED_FACE('',(#273),#64,.T.);
#777=ADVANCED_FACE('',(#274),#65,.T.);
#778=ADVANCED_FACE('',(#275),#66,.T.);
#779=ADVANCED_FACE('',(#276),#67,.T.);
#780=ADVANCED_FACE('',(#277),#68,.F.);
#781=ADVANCED_FACE('',(#278),#69,.T.);
#782=ADVANCED_FACE('',(#279),#70,.T.);
#783=ADVANCED_FACE('',(#280),#71,.F.);
#784=ADVANCED_FACE('',(#281),#72,.F.);
#785=ADVANCED_FACE('',(#282),#73,.F.);
#786=CLOSED_SHELL('',(#743,#744,#745,#746));
#787=CLOSED_SHELL('',(#747,#748,#749));
#788=CLOSED_SHELL('',(#750,#751,#752,#753,#754,#755,#756,#757));
#789=CLOSED_SHELL('',(#758,#759,#760,#761,#762,#763,#764,#765,#766,#767,
#768,#769,#770,#771,#772,#773,#774,#775,#776,#777,#778,#779,#780,#781,#782,
#783,#784,#785));
#790=DERIVED_UNIT_ELEMENT(#794,1.);
#791=DERIVED_UNIT_ELEMENT(#1361,-3.);
#792=DERIVED_UNIT_ELEMENT(#794,1.);
#793=DERIVED_UNIT_ELEMENT(#1361,-3.);
#794=(
MASS_UNIT()
NAMED_UNIT(*)
SI_UNIT(.KILO.,.GRAM.)
);
#795=DERIVED_UNIT((#790,#791));
#796=DERIVED_UNIT((#792,#793));
#797=MEASURE_REPRESENTATION_ITEM('density measure',
POSITIVE_RATIO_MEASURE(7850.),#795);
#798=MEASURE_REPRESENTATION_ITEM('density measure',
POSITIVE_RATIO_MEASURE(7850.),#796);
#799=PROPERTY_DEFINITION_REPRESENTATION(#809,#803);
#800=PROPERTY_DEFINITION_REPRESENTATION(#810,#804);
#801=PROPERTY_DEFINITION_REPRESENTATION(#811,#805);
#802=PROPERTY_DEFINITION_REPRESENTATION(#812,#806);
#803=REPRESENTATION('material name',(#807),#1357);
#804=REPRESENTATION('density',(#797),#1357);
#805=REPRESENTATION('material name',(#808),#1358);
#806=REPRESENTATION('density',(#798),#1358);
#807=DESCRIPTIVE_REPRESENTATION_ITEM('Steel','Steel');
#808=DESCRIPTIVE_REPRESENTATION_ITEM('Steel','Steel');
#809=PROPERTY_DEFINITION('material property','material name',#1378);
#810=PROPERTY_DEFINITION('material property','density of part',#1378);
#811=PROPERTY_DEFINITION('material property','material name',#1379);
#812=PROPERTY_DEFINITION('material property','density of part',#1379);
#813=AXIS2_PLACEMENT_3D('',#1125,#891,#892);
#814=AXIS2_PLACEMENT_3D('',#1126,#893,#894);
#815=AXIS2_PLACEMENT_3D('',#1127,#895,#896);
#816=AXIS2_PLACEMENT_3D('',#1129,#897,#898);
#817=AXIS2_PLACEMENT_3D('',#1131,#899,#900);
#818=AXIS2_PLACEMENT_3D('',#1133,#901,#902);
#819=AXIS2_PLACEMENT_3D('',#1134,#903,#904);
#820=AXIS2_PLACEMENT_3D('',#1135,#905,#906);
#821=AXIS2_PLACEMENT_3D('',#1138,#908,#909);
#822=AXIS2_PLACEMENT_3D('',#1139,#910,#911);
#823=AXIS2_PLACEMENT_3D('',#1140,#912,#913);
#824=AXIS2_PLACEMENT_3D('',#1141,#914,#915);
#825=AXIS2_PLACEMENT_3D('',#1143,#916,#917);
#826=AXIS2_PLACEMENT_3D('',#1145,#918,#919);
#827=AXIS2_PLACEMENT_3D('',#1147,#920,#921);
#828=AXIS2_PLACEMENT_3D('',#1148,#922,#923);
#829=AXIS2_PLACEMENT_3D('',#1149,#924,#925);
#830=AXIS2_PLACEMENT_3D('',#1152,#927,#928);
#831=AXIS2_PLACEMENT_3D('',#1153,#929,#930);
#832=AXIS2_PLACEMENT_3D('',#1154,#931,#932);
#833=AXIS2_PLACEMENT_3D('',#1155,#933,#934);
#834=AXIS2_PLACEMENT_3D('',#1164,#939,#940);
#835=AXIS2_PLACEMENT_3D('',#1170,#944,#945);
#836=AXIS2_PLACEMENT_3D('',#1174,#947,#948);
#837=AXIS2_PLACEMENT_3D('',#1177,#950,#951);
#838=AXIS2_PLACEMENT_3D('',#1178,#952,#953);
#839=AXIS2_PLACEMENT_3D('',#1181,#954,#955);
#840=AXIS2_PLACEMENT_3D('',#1184,#958,#959);
#841=AXIS2_PLACEMENT_3D('',#1186,#961,#962);
#842=AXIS2_PLACEMENT_3D('',#1188,#963,#964);
#843=AXIS2_PLACEMENT_3D('',#1190,#966,#967);
#844=AXIS2_PLACEMENT_3D('',#1192,#969,#970);
#845=AXIS2_PLACEMENT_3D('',#1193,#971,#972);
#846=AXIS2_PLACEMENT_3D('',#1210,#981,#982);
#847=AXIS2_PLACEMENT_3D('',#1219,#987,#988);
#848=AXIS2_PLACEMENT_3D('',#1228,#993,#994);
#849=AXIS2_PLACEMENT_3D('',#1235,#997,#998);
#850=AXIS2_PLACEMENT_3D('',#1237,#1000,#1001);
#851=AXIS2_PLACEMENT_3D('',#1239,#1002,#1003);
#852=AXIS2_PLACEMENT_3D('',#1241,#1005,#1006);
#853=AXIS2_PLACEMENT_3D('',#1242,#1007,#1008);
#854=AXIS2_PLACEMENT_3D('',#1248,#1011,#1012);
#855=AXIS2_PLACEMENT_3D('',#1250,#1014,#1015);
#856=AXIS2_PLACEMENT_3D('',#1257,#1020,#1021);
#857=AXIS2_PLACEMENT_3D('',#1258,#1022,#1023);
#858=AXIS2_PLACEMENT_3D('',#1260,#1024,#1025);
#859=AXIS2_PLACEMENT_3D('',#1262,#1027,#1028);
#860=AXIS2_PLACEMENT_3D('',#1263,#1029,#1030);
#861=AXIS2_PLACEMENT_3D('',#1264,#1031,#1032);
#862=AXIS2_PLACEMENT_3D('',#1270,#1035,#1036);
#863=AXIS2_PLACEMENT_3D('',#1276,#1039,#1040);
#864=AXIS2_PLACEMENT_3D('',#1280,#1042,#1043);
#865=AXIS2_PLACEMENT_3D('',#1284,#1046,#1047);
#866=AXIS2_PLACEMENT_3D('',#1290,#1051,#1052);
#867=AXIS2_PLACEMENT_3D('',#1292,#1053,#1054);
#868=AXIS2_PLACEMENT_3D('',#1294,#1056,#1057);
#869=AXIS2_PLACEMENT_3D('',#1296,#1058,#1059);
#870=AXIS2_PLACEMENT_3D('',#1298,#1061,#1062);
#871=AXIS2_PLACEMENT_3D('',#1302,#1065,#1066);
#872=AXIS2_PLACEMENT_3D('',#1304,#1067,#1068);
#873=AXIS2_PLACEMENT_3D('',#1306,#1069,#1070);
#874=AXIS2_PLACEMENT_3D('',#1308,#1072,#1073);
#875=AXIS2_PLACEMENT_3D('',#1311,#1075,#1076);
#876=AXIS2_PLACEMENT_3D('',#1312,#1077,#1078);
#877=AXIS2_PLACEMENT_3D('',#1318,#1082,#1083);
#878=AXIS2_PLACEMENT_3D('',#1320,#1085,#1086);
#879=AXIS2_PLACEMENT_3D('',#1324,#1089,#1090);
#880=AXIS2_PLACEMENT_3D('',#1329,#1094,#1095);
#881=AXIS2_PLACEMENT_3D('',#1333,#1098,#1099);
#882=AXIS2_PLACEMENT_3D('',#1337,#1102,#1103);
#883=AXIS2_PLACEMENT_3D('',#1342,#1107,#1108);
#884=AXIS2_PLACEMENT_3D('',#1344,#1110,#1111);
#885=AXIS2_PLACEMENT_3D('',#1346,#1113,#1114);
#886=AXIS2_PLACEMENT_3D('',#1347,#1115,#1116);
#887=AXIS2_PLACEMENT_3D('',#1348,#1117,#1118);
#888=AXIS2_PLACEMENT_3D('',#1349,#1119,#1120);
#889=AXIS2_PLACEMENT_3D('',#1350,#1121,#1122);
#890=AXIS2_PLACEMENT_3D('',#1351,#1123,#1124);
#891=DIRECTION('axis',(0.,0.,1.));
#892=DIRECTION('refdir',(1.,0.,0.));
#893=DIRECTION('axis',(0.,0.,1.));
#894=DIRECTION('refdir',(1.,0.,0.));
#895=DIRECTION('center_axis',(0.,0.,-1.));
#896=DIRECTION('ref_axis',(-1.,0.,0.));
#897=DIRECTION('center_axis',(0.,0.,1.));
#898=DIRECTION('ref_axis',(1.,0.,0.));
#899=DIRECTION('center_axis',(0.,-1.,0.));
#900=DIRECTION('ref_axis',(1.,0.,0.));
#901=DIRECTION('center_axis',(0.,0.,-1.));
#902=DIRECTION('ref_axis',(1.,0.,0.));
#903=DIRECTION('center_axis',(0.,0.,-1.));
#904=DIRECTION('ref_axis',(1.,0.,0.));
#905=DIRECTION('center_axis',(0.,0.,-1.));
#906=DIRECTION('ref_axis',(1.,0.,0.));
#907=DIRECTION('',(0.,0.,1.));
#908=DIRECTION('center_axis',(0.,0.,-1.));
#909=DIRECTION('ref_axis',(1.,0.,0.));
#910=DIRECTION('center_axis',(0.,0.,-1.));
#911=DIRECTION('ref_axis',(1.,0.,0.));
#912=DIRECTION('center_axis',(0.,0.,-1.));
#913=DIRECTION('ref_axis',(1.,0.,0.));
#914=DIRECTION('center_axis',(0.,0.,-1.));
#915=DIRECTION('ref_axis',(-1.,0.,0.));
#916=DIRECTION('center_axis',(0.,0.,-1.));
#917=DIRECTION('ref_axis',(1.,0.,0.));
#918=DIRECTION('center_axis',(0.,-1.,0.));
#919=DIRECTION('ref_axis',(1.,0.,0.));
#920=DIRECTION('center_axis',(0.,0.,-1.));
#921=DIRECTION('ref_axis',(1.,0.,0.));
#922=DIRECTION('center_axis',(0.,0.,-1.));
#923=DIRECTION('ref_axis',(1.,0.,0.));
#924=DIRECTION('center_axis',(0.,0.,-1.));
#925=DIRECTION('ref_axis',(0.,1.,0.));
#926=DIRECTION('',(0.,0.,1.));
#927=DIRECTION('center_axis',(0.,0.,-1.));
#928=DIRECTION('ref_axis',(1.,0.,0.));
#929=DIRECTION('center_axis',(0.,0.,1.));
#930=DIRECTION('ref_axis',(1.,0.,0.));
#931=DIRECTION('axis',(0.,0.,1.));
#932=DIRECTION('refdir',(1.,0.,0.));
#933=DIRECTION('center_axis',(1.,-2.01948391736579E-28,9.92702464522551E-23));
#934=DIRECTION('ref_axis',(9.92702464522552E-23,3.95118800576713E-94,-1.));
#935=DIRECTION('',(9.92702464522552E-23,3.95118800576713E-94,-1.));
#936=DIRECTION('',(-8.57555240598774E-24,-0.99626192415697,0.0863839017123705));
#937=DIRECTION('',(-9.92702464522552E-23,-3.95118800576713E-94,1.));
#938=DIRECTION('',(8.57555240598774E-24,0.99626192415697,-0.0863839017123705));
#939=DIRECTION('center_axis',(-3.98023390388931E-72,1.,0.));
#940=DIRECTION('ref_axis',(0.,0.,-1.));
#941=DIRECTION('',(-1.,-3.98023390388931E-72,0.));
#942=DIRECTION('',(0.,0.,1.));
#943=DIRECTION('',(-1.,-3.98023390388931E-72,0.));
#944=DIRECTION('center_axis',(-3.43828134345819E-73,0.0863839017123705,
0.99626192415697));
#945=DIRECTION('ref_axis',(-3.96535548768357E-72,0.99626192415697,-0.0863839017123705));
#946=DIRECTION('',(-1.,-3.98023390388931E-72,0.));
#947=DIRECTION('center_axis',(3.43828134345819E-73,-0.0863839017123705,
-0.99626192415697));
#948=DIRECTION('ref_axis',(1.10607292675643E-16,-0.99626192415697,0.0863839017123705));
#949=DIRECTION('',(-3.96535548768357E-72,0.99626192415697,-0.0863839017123705));
#950=DIRECTION('center_axis',(3.43828134345819E-73,-0.0863839017123705,
-0.99626192415697));
#951=DIRECTION('ref_axis',(1.10607292675643E-16,0.99626192415697,-0.0863839017123705));
#952=DIRECTION('center_axis',(0.,0.,-1.));
#953=DIRECTION('ref_axis',(0.707106781186547,-0.707106781186547,0.));
#954=DIRECTION('center_axis',(-3.43828134345819E-73,0.0863839017123705,
0.99626192415697));
#955=DIRECTION('ref_axis',(1.10607292675643E-16,-0.99626192415697,0.0863839017123705));
#956=DIRECTION('',(0.,0.,1.));
#957=DIRECTION('',(0.,0.,-1.));
#958=DIRECTION('center_axis',(3.98023390388931E-72,-1.,0.));
#959=DIRECTION('ref_axis',(0.,0.,1.));
#960=DIRECTION('',(-1.,-3.98023390388931E-72,0.));
#961=DIRECTION('center_axis',(0.,0.,-1.));
#962=DIRECTION('ref_axis',(0.707106781186547,0.707106781186547,0.));
#963=DIRECTION('center_axis',(-3.43828134345819E-73,0.0863839017123705,
0.99626192415697));
#964=DIRECTION('ref_axis',(1.10607292675643E-16,0.99626192415697,-0.0863839017123705));
#965=DIRECTION('',(0.,0.,-1.));
#966=DIRECTION('center_axis',(3.43828134345819E-73,-0.0863839017123705,
-0.99626192415697));
#967=DIRECTION('ref_axis',(3.96535548768357E-72,-0.99626192415697,0.0863839017123705));
#968=DIRECTION('',(3.96535548768357E-72,-0.99626192415697,0.0863839017123705));
#969=DIRECTION('center_axis',(1.,3.98023390388931E-72,0.));
#970=DIRECTION('ref_axis',(-3.98023390388931E-72,1.,0.));
#971=DIRECTION('center_axis',(1.,3.98023390388931E-72,0.));
#972=DIRECTION('ref_axis',(0.,0.,-1.));
#973=DIRECTION('',(0.,0.,-1.));
#974=DIRECTION('',(3.98023390388931E-72,-1.,2.91560348062049E-16));
#975=DIRECTION('',(0.,0.,-1.));
#976=DIRECTION('',(-3.98023390388931E-72,1.,0.));
#977=DIRECTION('',(0.,0.,1.));
#978=DIRECTION('',(3.98023390388931E-72,-1.,2.91560348062049E-16));
#979=DIRECTION('',(0.,0.,1.));
#980=DIRECTION('',(-3.96535548768357E-72,0.99626192415697,-0.0863839017123705));
#981=DIRECTION('center_axis',(3.98023390388931E-72,-1.,0.));
#982=DIRECTION('ref_axis',(0.,0.,-1.));
#983=DIRECTION('',(9.92702464522552E-23,3.95118800576713E-94,-1.));
#984=DIRECTION('',(1.,3.98023390388931E-72,0.));
#985=DIRECTION('',(0.,0.,-1.));
#986=DIRECTION('',(-1.,-3.98023390388931E-72,0.));
#987=DIRECTION('center_axis',(-3.98023390388931E-72,1.,0.));
#988=DIRECTION('ref_axis',(0.,0.,1.));
#989=DIRECTION('',(-9.92702464522552E-23,-3.95118800576713E-94,1.));
#990=DIRECTION('',(1.,3.98023390388931E-72,0.));
#991=DIRECTION('',(0.,0.,1.));
#992=DIRECTION('',(-1.,-3.98023390388931E-72,0.));
#993=DIRECTION('center_axis',(3.96535548768514E-72,-0.996261924157365,0.086383901707806));
#994=DIRECTION('ref_axis',(1.,3.98023390388931E-72,0.));
#995=DIRECTION('',(-9.88991492970095E-23,0.086383901707806,0.996261924157365));
#996=DIRECTION('',(1.,3.98023390388931E-72,0.));
#997=DIRECTION('center_axis',(3.96535548768514E-72,-0.996261924157365,0.086383901707806));
#998=DIRECTION('ref_axis',(9.59053966329626E-18,-0.086383901707806,-0.996261924157365));
#999=DIRECTION('',(1.,3.98023390388931E-72,0.));
#1000=DIRECTION('center_axis',(0.,0.,1.));
#1001=DIRECTION('ref_axis',(0.707106781186547,-0.707106781186547,0.));
#1002=DIRECTION('center_axis',(1.16047838238633E-87,-2.91560348062049E-16,
-1.));
#1003=DIRECTION('ref_axis',(0.707106781186547,-0.707106781186547,0.));
#1004=DIRECTION('',(0.,0.,-1.));
#1005=DIRECTION('center_axis',(-3.43828134345819E-73,0.0863839017123705,
0.99626192415697));
#1006=DIRECTION('ref_axis',(1.10607292675643E-16,-0.99626192415697,0.0863839017123705));
#1007=DIRECTION('center_axis',(-1.16047838238633E-87,2.91560348062049E-16,
1.));
#1008=DIRECTION('ref_axis',(3.98023390388931E-72,-1.,2.91560348062049E-16));
#1009=DIRECTION('',(-2.01948391765522E-28,-1.,2.91560348062049E-16));
#1010=DIRECTION('',(3.98023390388931E-72,-1.,0.));
#1011=DIRECTION('center_axis',(1.16047838238633E-87,-2.91560348062049E-16,
-1.));
#1012=DIRECTION('ref_axis',(-3.98023390388931E-72,1.,0.));
#1013=DIRECTION('',(1.,3.98023390388931E-72,0.));
#1014=DIRECTION('center_axis',(-1.,-3.98023390388931E-72,0.));
#1015=DIRECTION('ref_axis',(3.98023390388931E-72,-1.,0.));
#1016=DIRECTION('',(0.,0.,1.));
#1017=DIRECTION('',(3.96535548768357E-72,-0.99626192415697,0.0863839017123705));
#1018=DIRECTION('',(-3.98023390388931E-72,1.,-2.91560348062049E-16));
#1019=DIRECTION('',(-3.98023390388931E-72,1.,-2.91560348062049E-16));
#1020=DIRECTION('center_axis',(0.,0.,-1.));
#1021=DIRECTION('ref_axis',(-3.98023390388931E-72,1.,0.));
#1022=DIRECTION('center_axis',(1.16047838238633E-87,-2.91560348062049E-16,
-1.));
#1023=DIRECTION('ref_axis',(-3.98023390388931E-72,1.,0.));
#1024=DIRECTION('center_axis',(-3.43828134345819E-73,0.0863839017123705,
0.99626192415697));
#1025=DIRECTION('ref_axis',(-3.96535548768357E-72,0.99626192415697,-0.0863839017123705));
#1026=DIRECTION('',(0.,0.,1.));
#1027=DIRECTION('center_axis',(-1.16047838238633E-87,2.91560348062049E-16,
1.));
#1028=DIRECTION('ref_axis',(3.98023390388931E-72,-1.,2.91560348062049E-16));
#1029=DIRECTION('center_axis',(1.16047838238633E-87,-2.91560348062049E-16,
-1.));
#1030=DIRECTION('ref_axis',(0.707106781186547,0.707106781186547,0.));
#1031=DIRECTION('center_axis',(0.,0.,-1.));
#1032=DIRECTION('ref_axis',(-1.,-3.98023390388931E-72,0.));
#1033=DIRECTION('',(2.01948391736579E-28,1.,0.));
#1034=DIRECTION('',(1.,3.98023390388931E-72,0.));
#1035=DIRECTION('center_axis',(0.,0.,1.));
#1036=DIRECTION('ref_axis',(0.707106781186547,0.707106781186547,0.));
#1037=DIRECTION('',(2.01948391736579E-28,1.,0.));
#1038=DIRECTION('',(1.,3.98023390388931E-72,0.));
#1039=DIRECTION('center_axis',(0.,0.,-1.));
#1040=DIRECTION('ref_axis',(0.707106781186547,-0.707106781186547,0.));
#1041=DIRECTION('',(-3.98023390388931E-72,1.,0.));
#1042=DIRECTION('center_axis',(0.,0.,-1.));
#1043=DIRECTION('ref_axis',(0.707106781186547,0.707106781186547,0.));
#1044=DIRECTION('',(-3.98023390388931E-72,1.,0.));
#1045=DIRECTION('',(-1.,-3.98023390388931E-72,0.));
#1046=DIRECTION('center_axis',(-1.,-3.98023390388931E-72,0.));
#1047=DIRECTION('ref_axis',(-3.98023390388931E-72,1.,0.));
#1048=DIRECTION('',(0.,0.,1.));
#1049=DIRECTION('',(0.,0.,-1.));
#1050=DIRECTION('',(-3.98023390388931E-72,1.,0.));
#1051=DIRECTION('center_axis',(0.,0.,-1.));
#1052=DIRECTION('ref_axis',(0.707106781186547,-0.707106781186547,0.));
#1053=DIRECTION('center_axis',(0.,0.,1.));
#1054=DIRECTION('ref_axis',(0.707106781186547,-0.707106781186547,0.));
#1055=DIRECTION('',(0.,0.,1.));
#1056=DIRECTION('center_axis',(0.,0.,-1.));
#1057=DIRECTION('ref_axis',(0.707106781186547,0.707106781186547,0.));
#1058=DIRECTION('center_axis',(0.,0.,1.));
#1059=DIRECTION('ref_axis',(0.707106781186547,0.707106781186547,0.));
#1060=DIRECTION('',(0.,0.,-1.));
#1061=DIRECTION('center_axis',(-3.98023390388931E-72,1.,0.));
#1062=DIRECTION('ref_axis',(1.,3.98023390388931E-72,0.));
#1063=DIRECTION('',(-9.92702464522552E-23,-3.95118800576713E-94,1.));
#1064=DIRECTION('',(1.,3.98023390388931E-72,0.));
#1065=DIRECTION('center_axis',(0.,0.,-1.));
#1066=DIRECTION('ref_axis',(0.707106781186547,-0.707106781186547,0.));
#1067=DIRECTION('center_axis',(1.16047838238633E-87,-2.91560348062049E-16,
-1.));
#1068=DIRECTION('ref_axis',(0.707106781186547,-0.707106781186547,0.));
#1069=DIRECTION('center_axis',(0.,0.,-1.));
#1070=DIRECTION('ref_axis',(0.707106781186547,-0.707106781186547,0.));
#1071=DIRECTION('',(0.,0.,-1.));
#1072=DIRECTION('center_axis',(0.,0.,-1.));
#1073=DIRECTION('ref_axis',(0.707106781186547,0.707106781186547,0.));
#1074=DIRECTION('',(0.,0.,1.));
#1075=DIRECTION('center_axis',(0.,0.,-1.));
#1076=DIRECTION('ref_axis',(0.707106781186547,0.707106781186547,0.));
#1077=DIRECTION('center_axis',(3.98023390388931E-72,-1.,0.));
#1078=DIRECTION('ref_axis',(0.,0.,-1.));
#1079=DIRECTION('',(9.92702464522552E-23,3.95118800576713E-94,-1.));
#1080=DIRECTION('',(0.,0.,-1.));
#1081=DIRECTION('',(1.,3.98023390388931E-72,0.));
#1082=DIRECTION('center_axis',(1.,3.98023390388931E-72,0.));
#1083=DIRECTION('ref_axis',(0.,0.,-1.));
#1084=DIRECTION('',(3.98023390388931E-72,-1.,0.));
#1085=DIRECTION('center_axis',(3.98023390388931E-72,-1.,0.));
#1086=DIRECTION('ref_axis',(0.,0.,-1.));
#1087=DIRECTION('',(9.92702464522552E-23,3.95118800576713E-94,-1.));
#1088=DIRECTION('',(1.,3.98023390388931E-72,0.));
#1089=DIRECTION('center_axis',(3.43828134345819E-73,-0.0863839017123705,
-0.99626192415697));
#1090=DIRECTION('ref_axis',(-3.96535548768357E-72,0.99626192415697,-0.0863839017123705));
#1091=DIRECTION('',(8.57555240598774E-24,0.99626192415697,-0.0863839017123705));
#1092=DIRECTION('',(-1.,-3.98023390388931E-72,0.));
#1093=DIRECTION('',(8.57555240598774E-24,0.99626192415697,-0.0863839017123705));
#1094=DIRECTION('center_axis',(-1.16047838238633E-87,2.91560348062049E-16,
1.));
#1095=DIRECTION('ref_axis',(3.98023390388931E-72,-1.,2.91560348062049E-16));
#1096=DIRECTION('',(-2.01948391765522E-28,-1.,2.91560348062049E-16));
#1097=DIRECTION('',(-1.,-3.98023390388931E-72,0.));
#1098=DIRECTION('center_axis',(3.98023390388931E-72,-1.,0.));
#1099=DIRECTION('ref_axis',(-1.,-3.98023390388931E-72,0.));
#1100=DIRECTION('',(9.92702464522552E-23,3.95118800576713E-94,-1.));
#1101=DIRECTION('',(1.,3.98023390388931E-72,0.));
#1102=DIRECTION('center_axis',(0.,0.,-1.));
#1103=DIRECTION('ref_axis',(1.,3.98023390388931E-72,0.));
#1104=DIRECTION('',(-2.01948391736579E-28,-1.,0.));
#1105=DIRECTION('',(-2.01948391736579E-28,-1.,0.));
#1106=DIRECTION('',(-1.,-3.98023390388931E-72,0.));
#1107=DIRECTION('center_axis',(-3.98023390388931E-72,1.,0.));
#1108=DIRECTION('ref_axis',(0.,0.,1.));
#1109=DIRECTION('',(-9.92702464522552E-23,-3.95118800576713E-94,1.));
#1110=DIRECTION('center_axis',(-3.98023390388931E-72,1.,0.));
#1111=DIRECTION('ref_axis',(1.,3.98023390388931E-72,0.));
#1112=DIRECTION('',(-9.92702464522552E-23,-3.95118800576713E-94,1.));
#1113=DIRECTION('center_axis',(1.,-2.01948391736579E-28,9.92702464522551E-23));
#1114=DIRECTION('ref_axis',(9.92702464522552E-23,3.95118800576713E-94,-1.));
#1115=DIRECTION('center_axis',(1.,-2.01948391736579E-28,9.92702464522551E-23));
#1116=DIRECTION('ref_axis',(9.92702464522552E-23,3.95118800576713E-94,-1.));
#1117=DIRECTION('center_axis',(1.,-2.01948391736579E-28,9.92702464522551E-23));
#1118=DIRECTION('ref_axis',(9.92702464522552E-23,3.95118800576713E-94,-1.));
#1119=DIRECTION('',(-2.21043326094214E-16,0.0871557427476568,0.996194698091741));
#1120=DIRECTION('',(1.,2.10840833776318E-16,-3.14898766091529E-16));
#1121=DIRECTION('',(-3.28542093583271E-16,0.0871557427476569,0.996194698091742));
#1122=DIRECTION('',(1.,-9.41263485272786E-17,-2.75457544463252E-16));
#1123=DIRECTION('',(-9.92702463536474E-23,1.99136488891557E-59,1.));
#1124=DIRECTION('',(1.,2.01948391736579E-28,-9.92702464522551E-23));
#1125=CARTESIAN_POINT('',(0.,0.,0.));
#1126=CARTESIAN_POINT('',(0.,0.,0.));
#1127=CARTESIAN_POINT('Origin',(89.9999999254941,-146.000002026558,19.4));
#1128=CARTESIAN_POINT('',(94.4999999254941,-146.000002026558,18.9));
#1129=CARTESIAN_POINT('Origin',(89.9999999254941,-146.000002026558,18.9));
#1130=CARTESIAN_POINT('',(94.9999999254941,-146.000002026558,19.4));
#1131=CARTESIAN_POINT('Origin',(94.4999999254941,-146.000002026558,19.4));
#1132=CARTESIAN_POINT('',(84.9999999254941,-146.000002026558,19.4));
#1133=CARTESIAN_POINT('Origin',(89.9999999254941,-146.000002026558,19.4));
#1134=CARTESIAN_POINT('Origin',(89.9999999254941,-146.000002026558,19.4));
#1135=CARTESIAN_POINT('Origin',(89.9999999254941,-146.000002026558,20.9));
#1136=CARTESIAN_POINT('',(84.9999999254941,-146.000002026558,20.9));
#1137=CARTESIAN_POINT('',(84.9999999254941,-146.000002026558,20.9));
#1138=CARTESIAN_POINT('Origin',(89.9999999254941,-146.000002026558,20.9));
#1139=CARTESIAN_POINT('Origin',(89.9999999254941,-146.000002026558,18.9));
#1140=CARTESIAN_POINT('Origin',(89.9999999254941,-146.000002026558,20.9));
#1141=CARTESIAN_POINT('Origin',(90.1,-146.000002026558,18.9499995328486));
#1142=CARTESIAN_POINT('',(97.0570051781535,-146.000002026558,20.8999995328486));
#1143=CARTESIAN_POINT('Origin',(90.1,-146.000002026558,20.8999995328486));
#1144=CARTESIAN_POINT('',(95.1070051781535,-146.000002026558,18.9499995328486));
#1145=CARTESIAN_POINT('Origin',(97.0570051781535,-146.000002026558,18.9499995328486));
#1146=CARTESIAN_POINT('',(90.1,-151.007007204711,18.9499995328486));
#1147=CARTESIAN_POINT('Origin',(90.1,-146.000002026558,18.9499995328486));
#1148=CARTESIAN_POINT('Origin',(90.1,-146.000002026558,18.9499995328486));
#1149=CARTESIAN_POINT('Origin',(90.1,-146.000002026558,19.9249995328486));
#1150=CARTESIAN_POINT('',(90.1,-151.007007204711,20.8999995328486));
#1151=CARTESIAN_POINT('',(90.1,-151.007007204711,19.9249995328486));
#1152=CARTESIAN_POINT('Origin',(90.1,-146.000002026558,20.8999995328486));
#1153=CARTESIAN_POINT('Origin',(90.1,-139.042996848404,20.8999995328486));
#1154=CARTESIAN_POINT('',(0.,0.,0.));
#1155=CARTESIAN_POINT('Origin',(600.,-177.518916470467,-40.2659461701893));
#1156=CARTESIAN_POINT('',(600.,-253.676262048975,-40.9125019432395));
#1157=CARTESIAN_POINT('',(600.,-253.676262048975,-42.4125019432395));
#1158=CARTESIAN_POINT('',(600.,-253.676262048975,-41.3392240567144));
#1159=CARTESIAN_POINT('',(600.,-101.361520646242,-54.1194120254577));
#1160=CARTESIAN_POINT('',(600.,-215.909560727818,-44.1871779454243));
#1161=CARTESIAN_POINT('',(600.,-101.361520646242,-55.6194120254577));
#1162=CARTESIAN_POINT('',(600.,-101.361520646242,-47.1926790978235));
#1163=CARTESIAN_POINT('',(600.,-139.816735770553,-52.2850363526772));
#1164=CARTESIAN_POINT('Origin',(811.468538385826,-101.361520646242,-54.1194120254577));
#1165=CARTESIAN_POINT('',(806.468538385826,-101.361520646242,-54.1194120254577));
#1166=CARTESIAN_POINT('',(811.468538385826,-101.361520646242,-54.1194120254577));
#1167=CARTESIAN_POINT('',(806.468538385826,-101.361520646242,-55.6194120254577));
#1168=CARTESIAN_POINT('',(806.468538385826,-101.361520646242,-51.1926845049032));
#1169=CARTESIAN_POINT('',(811.468538385826,-101.361520646242,-55.6194120254577));
#1170=CARTESIAN_POINT('Origin',(811.468538385826,-253.676262048975,-40.9125019432395));
#1171=CARTESIAN_POINT('',(806.468538385826,-253.676262048975,-40.9125019432395));
#1172=CARTESIAN_POINT('',(811.468538385826,-253.676262048975,-40.9125019432395));
#1173=CARTESIAN_POINT('',(811.468538385826,-248.676262048975,-41.3460420576299));
#1174=CARTESIAN_POINT('Origin',(806.468538385826,-248.676262048975,-41.3460420576299));
#1175=CARTESIAN_POINT('',(811.468538385826,-106.361520646242,-53.6858719110673));
#1176=CARTESIAN_POINT('',(811.468538385826,-253.676262048975,-40.9125019432395));
#1177=CARTESIAN_POINT('Origin',(806.468538385826,-106.361520646242,-53.6858719110673));
#1178=CARTESIAN_POINT('Origin',(806.468538385826,-248.676262048975,-45.339229463794));
#1179=CARTESIAN_POINT('',(806.468538385826,-253.676262048975,-42.4125019432395));
#1180=CARTESIAN_POINT('',(811.468538385826,-248.676262048975,-42.8460420576299));
#1181=CARTESIAN_POINT('Origin',(806.468538385826,-248.676262048975,-42.8460420576299));
#1182=CARTESIAN_POINT('',(811.468538385826,-248.676262048975,-45.339229463794));
#1183=CARTESIAN_POINT('',(806.468538385826,-253.676262048975,-45.339229463794));
#1184=CARTESIAN_POINT('Origin',(811.468538385826,-253.676262048975,-42.4125019432395));
#1185=CARTESIAN_POINT('',(811.468538385826,-253.676262048975,-42.4125019432395));
#1186=CARTESIAN_POINT('Origin',(806.468538385826,-106.361520646242,-51.1926845049032));
#1187=CARTESIAN_POINT('',(811.468538385826,-106.361520646242,-55.1858719110673));
#1188=CARTESIAN_POINT('Origin',(806.468538385826,-106.361520646242,-55.1858719110673));
#1189=CARTESIAN_POINT('',(811.468538385826,-106.361520646242,-51.1926845049032));
#1190=CARTESIAN_POINT('Origin',(811.468538385826,-101.361520646242,-55.6194120254577));
#1191=CARTESIAN_POINT('',(811.468538385826,-101.361520646242,-55.6194120254577));
#1192=CARTESIAN_POINT('Origin',(811.468538385826,-177.518891347609,-48.2659569843486));
#1193=CARTESIAN_POINT('Origin',(811.468538385826,-177.518972518923,-47.0159326745326));
#1194=CARTESIAN_POINT('',(811.468538385826,-106.361552507993,-39.9124803149209));
#1195=CARTESIAN_POINT('',(811.468538385826,-106.361552507993,-53.6858518767861));
#1196=CARTESIAN_POINT('',(811.468538385826,-106.361552507993,-54.1196315140167));
#1197=CARTESIAN_POINT('',(811.468538385826,-106.362086614172,-39.9124803149209));
#1198=CARTESIAN_POINT('',(811.468538385826,-139.440302631038,-39.9124803149209));
#1199=CARTESIAN_POINT('',(811.468538385826,-106.362086614172,-24.9124803149209));
#1200=CARTESIAN_POINT('',(811.468538385826,-106.362086614172,-24.9124803149209));
#1201=CARTESIAN_POINT('',(811.468538385826,-248.675858423674,-24.9124803149209));
#1202=CARTESIAN_POINT('',(811.468538385826,-253.675858423674,-24.9124803149209));
#1203=CARTESIAN_POINT('',(811.468538385826,-248.675858423674,-39.9124803149209));
#1204=CARTESIAN_POINT('',(811.468538385826,-248.675858423674,-24.9124803149209));
#1205=CARTESIAN_POINT('',(811.468538385826,-248.676312294693,-39.9124803149208));
#1206=CARTESIAN_POINT('',(811.468538385826,-139.440302631038,-39.9124803149209));
#1207=CARTESIAN_POINT('',(811.468538385826,-248.676312294693,-41.3460204293113));
#1208=CARTESIAN_POINT('',(811.468538385826,-248.676312294693,-43.4642064947267));
#1209=CARTESIAN_POINT('',(811.468538385826,-215.619157654842,-44.212340950108));
#1210=CARTESIAN_POINT('Origin',(609.060489887145,-102.861552507993,-47.0160692312744));
#1211=CARTESIAN_POINT('',(600.,-102.861552507993,-39.9127267947932));
#1212=CARTESIAN_POINT('',(600.,-102.861552507993,-53.9893299568594));
#1213=CARTESIAN_POINT('',(600.,-102.861552507993,-43.6410077007318));
#1214=CARTESIAN_POINT('',(809.96876790723,-102.861552507993,-53.9893299568594));
#1215=CARTESIAN_POINT('',(609.060489887145,-102.861552507993,-53.9893299568594));
#1216=CARTESIAN_POINT('',(809.96876790723,-102.861552507993,-39.9127267947932));
#1217=CARTESIAN_POINT('',(809.96876790723,-102.861552507993,-47.0160009529035));
#1218=CARTESIAN_POINT('',(405.15276790723,-102.861552507993,-39.9127267947932));
#1219=CARTESIAN_POINT('Origin',(608.310750202615,-252.176312294693,-40.4124606531804));
#1220=CARTESIAN_POINT('',(600.,-252.176312294693,-41.042542349238));
#1221=CARTESIAN_POINT('',(600.,-252.176312294693,-39.9124803149208));
#1222=CARTESIAN_POINT('',(600.,-252.176312294693,-40.3392034116848));
#1223=CARTESIAN_POINT('',(809.96876790723,-252.176312294693,-39.9124803149208));
#1224=CARTESIAN_POINT('',(811.468538385826,-252.176312294693,-39.9124803149208));
#1225=CARTESIAN_POINT('',(809.96876790723,-252.176312294693,-41.042542349238));
#1226=CARTESIAN_POINT('',(809.96876790723,-252.176312294693,-43.9641868329862));
#1227=CARTESIAN_POINT('',(607.935759054923,-252.176312294693,-41.042542349238));
#1228=CARTESIAN_POINT('Origin',(405.152962019404,-253.676312294693,-40.912719837761));
#1229=CARTESIAN_POINT('',(600.,-253.676312294693,-40.912719837761));
#1230=CARTESIAN_POINT('',(600.,-253.67629168112,-40.912482102283));
#1231=CARTESIAN_POINT('',(600.,-253.364331263047,-37.3146556528477));
#1232=CARTESIAN_POINT('',(806.482895798821,-253.67629168112,-40.912482102283));
#1233=CARTESIAN_POINT('',(506.356864963317,-253.67629168112,-40.912482102283));
#1234=CARTESIAN_POINT('',(806.468538385826,-253.676312294693,-40.912719837761));
#1235=CARTESIAN_POINT('Origin',(806.468538385826,-248.676312294693,16.7520709659252));
#1236=CARTESIAN_POINT('',(708.764816435274,-253.676312294693,-40.912719837761));
#1237=CARTESIAN_POINT('Origin',(806.468538385826,-248.676312294693,-43.4642064947267));
#1238=CARTESIAN_POINT('',(806.468538385826,-253.676312294693,-39.9124803149208));
#1239=CARTESIAN_POINT('Origin',(806.468538385826,-248.676312294693,-39.9124803149209));
#1240=CARTESIAN_POINT('',(806.468538385826,-253.676312294693,-43.4642064947267));
#1241=CARTESIAN_POINT('Origin',(806.468538385826,-248.676312294693,-41.3460204293113));
#1242=CARTESIAN_POINT('Origin',(405.15276790723,-101.361552507993,-39.9127267947932));
#1243=CARTESIAN_POINT('',(600.,-101.361552507993,-39.9127267947932));
#1244=CARTESIAN_POINT('',(600.,-139.44023448923,-39.9127267947932));
#1245=CARTESIAN_POINT('',(809.96876790723,-102.791063284162,-39.9127267947932));
#1246=CARTESIAN_POINT('',(809.96876790723,-139.440262513458,-39.9127267947932));
#1247=CARTESIAN_POINT('',(806.468538385826,-101.361552507993,-39.9127267947932));
#1248=CARTESIAN_POINT('Origin',(806.468538385826,-106.361552507993,-39.9127267947932));
#1249=CARTESIAN_POINT('',(405.15276790723,-101.361552507993,-39.9127267947932));
#1250=CARTESIAN_POINT('Origin',(809.96876790723,-177.518972518923,-47.0159326745326));
#1251=CARTESIAN_POINT('',(809.96876790723,-102.791063284162,-39.9124803149209));
#1252=CARTESIAN_POINT('',(809.96876790723,-102.791063284162,-54.1196315140167));
#1253=CARTESIAN_POINT('',(809.96876790723,-101.361632743154,-54.1193850341444));
#1254=CARTESIAN_POINT('',(809.96876790723,-102.791597390342,-39.9124803149209));
#1255=CARTESIAN_POINT('',(809.96876790723,-253.676312294693,-39.9124803149208));
#1256=CARTESIAN_POINT('',(809.96876790723,-253.676312294693,-39.9124803149208));
#1257=CARTESIAN_POINT('Origin',(806.468538385826,-106.361552507993,-54.1196315140167));
#1258=CARTESIAN_POINT('Origin',(806.468538385826,-106.361552507993,-39.9124803149209));
#1259=CARTESIAN_POINT('',(806.468538385826,-101.361552507993,-54.119396829466));
#1260=CARTESIAN_POINT('Origin',(806.468538385826,-106.361552507993,-53.6858518767861));
#1261=CARTESIAN_POINT('',(806.468538385826,-101.361552507993,-54.1196315140167));
#1262=CARTESIAN_POINT('Origin',(809.96876790723,-101.361632743154,-39.9124803149209));
#1263=CARTESIAN_POINT('Origin',(806.468538385826,-106.362086614172,-39.9124803149209));
#1264=CARTESIAN_POINT('Origin',(608.310653146528,-177.518972518923,-39.9124803149209));
#1265=CARTESIAN_POINT('',(600.,-102.861552507993,-39.9124803149209));
#1266=CARTESIAN_POINT('',(600.,-101.362086614172,-39.9124803149209));
#1267=CARTESIAN_POINT('',(600.,-177.518944494695,-39.9124803149209));
#1268=CARTESIAN_POINT('',(806.468538385826,-101.362086614172,-39.9124803149209));
#1269=CARTESIAN_POINT('',(811.468538385826,-101.362086614172,-39.9124803149209));
#1270=CARTESIAN_POINT('Origin',(806.468538385826,-106.362086614172,-39.9124803149209));
#1271=CARTESIAN_POINT('',(600.,-252.162711614172,-39.9124803149209));
#1272=CARTESIAN_POINT('',(600.,-177.518944494695,-39.9124803149209));
#1273=CARTESIAN_POINT('',(804.968538385826,-252.162711614172,-39.9124803149209));
#1274=CARTESIAN_POINT('',(406.650374404582,-252.162711614172,-39.9124803149209));
#1275=CARTESIAN_POINT('',(809.968538385826,-247.162711614172,-39.9124803149209));
#1276=CARTESIAN_POINT('Origin',(804.968538385826,-247.162711614172,-39.9124803149209));
#1277=CARTESIAN_POINT('',(809.968538385826,-107.862086614172,-39.9124803149209));
#1278=CARTESIAN_POINT('',(809.968538385826,-252.162711614172,-39.9124803149209));
#1279=CARTESIAN_POINT('',(804.968538385826,-102.862086614172,-39.9124803149209));
#1280=CARTESIAN_POINT('Origin',(804.968538385826,-107.862086614172,-39.9124803149209));
#1281=CARTESIAN_POINT('',(804.968538385826,-102.861552507993,-39.9124803149209));
#1282=CARTESIAN_POINT('',(804.968538385826,-140.190529566548,-39.9124803149209));
#1283=CARTESIAN_POINT('',(608.310054770866,-102.861552507993,-39.9124803149209));
#1284=CARTESIAN_POINT('Origin',(809.968538385826,-252.162711614172,-24.9124803149209));
#1285=CARTESIAN_POINT('',(809.968538385826,-107.862086614172,-24.9124803149209));
#1286=CARTESIAN_POINT('',(809.968538385826,-107.862086614172,-24.9124803149209));
#1287=CARTESIAN_POINT('',(809.968538385826,-247.162711614172,-24.9124803149209));
#1288=CARTESIAN_POINT('',(809.968538385826,-247.162711614172,-24.9124803149209));
#1289=CARTESIAN_POINT('',(809.968538385826,-252.162711614172,-24.9124803149209));
#1290=CARTESIAN_POINT('Origin',(804.968538385826,-247.162711614172,-24.9124803149209));
#1291=CARTESIAN_POINT('',(804.968538385826,-252.162711614172,-24.9124803149209));
#1292=CARTESIAN_POINT('Origin',(804.968538385826,-247.162711614172,-24.9124803149209));
#1293=CARTESIAN_POINT('',(804.968538385826,-252.162711614172,-24.9124803149209));
#1294=CARTESIAN_POINT('Origin',(804.968538385826,-107.862086614172,-24.9124803149209));
#1295=CARTESIAN_POINT('',(804.968538385826,-102.862086614172,-24.9124803149209));
#1296=CARTESIAN_POINT('Origin',(804.968538385826,-107.862086614172,-24.9124803149209));
#1297=CARTESIAN_POINT('',(804.968538385826,-102.862086614172,-24.9124803149209));
#1298=CARTESIAN_POINT('Origin',(406.650374404582,-252.162711614172,-24.9124803149209));
#1299=CARTESIAN_POINT('',(600.,-252.162711614172,-24.9124803149209));
#1300=CARTESIAN_POINT('',(600.,-252.162711614172,-32.5892132425551));
#1301=CARTESIAN_POINT('',(406.650374404582,-252.162711614172,-24.9124803149209));
#1302=CARTESIAN_POINT('Origin',(806.468538385826,-248.675858423674,-24.9124803149209));
#1303=CARTESIAN_POINT('',(806.468538385826,-253.675858423674,-39.9124803149209));
#1304=CARTESIAN_POINT('Origin',(806.468538385826,-248.675858423674,-39.9124803149209));
#1305=CARTESIAN_POINT('',(806.468538385826,-253.675858423674,-24.9124803149209));
#1306=CARTESIAN_POINT('Origin',(806.468538385826,-248.675858423674,-24.9124803149209));
#1307=CARTESIAN_POINT('',(806.468538385826,-253.675858423674,-24.9124803149209));
#1308=CARTESIAN_POINT('Origin',(806.468538385826,-106.362086614172,-24.9124803149209));
#1309=CARTESIAN_POINT('',(806.468538385826,-101.362086614172,-24.9124803149209));
#1310=CARTESIAN_POINT('',(806.468538385826,-101.362086614172,-24.9124803149209));
#1311=CARTESIAN_POINT('Origin',(806.468538385826,-106.362086614172,-24.9124803149209));
#1312=CARTESIAN_POINT('Origin',(608.309456395204,-102.861552507993,-32.4124803149209));
#1313=CARTESIAN_POINT('',(600.,-102.861552507993,-24.9124803149209));
#1314=CARTESIAN_POINT('',(600.,-102.861552507993,-36.3392132425551));
#1315=CARTESIAN_POINT('',(804.968538385826,-102.861552507993,-24.9124803149209));
#1316=CARTESIAN_POINT('',(804.968538385826,-102.861552507993,-28.6624803149209));
#1317=CARTESIAN_POINT('',(608.310054770866,-102.861552507993,-24.9124803149209));
#1318=CARTESIAN_POINT('Origin',(804.968538385826,-102.862086614172,-24.9124803149209));
#1319=CARTESIAN_POINT('',(804.968538385826,-140.190529566548,-24.9124803149209));
#1320=CARTESIAN_POINT('Origin',(809.96876790723,-253.676312294693,-39.9124803149208));
#1321=CARTESIAN_POINT('',(600.,-253.676312294693,-39.9124803149208));
#1322=CARTESIAN_POINT('',(600.,-253.676312294693,-40.0892132425551));
#1323=CARTESIAN_POINT('',(809.96876790723,-253.676312294693,-39.9124803149208));
#1324=CARTESIAN_POINT('Origin',(809.96876790723,-253.676312294693,-40.9124803149208));
#1325=CARTESIAN_POINT('',(600.,-101.361552507993,-54.119396829466));
#1326=CARTESIAN_POINT('',(600.,-215.909585107471,-44.187158559901));
#1327=CARTESIAN_POINT('',(811.468456226753,-101.361552507993,-54.119396829466));
#1328=CARTESIAN_POINT('',(600.,-215.909585107471,-44.187158559901));
#1329=CARTESIAN_POINT('Origin',(809.96876790723,-101.361632743154,-39.9124803149209));
#1330=CARTESIAN_POINT('',(600.,-253.675858423674,-39.9124803149208));
#1331=CARTESIAN_POINT('',(600.,-139.44027460681,-39.9124803149209));
#1332=CARTESIAN_POINT('',(810.718653146528,-253.675858423674,-39.9124803149208));
#1333=CARTESIAN_POINT('Origin',(811.468538385826,-253.675858423674,-24.9124803149209));
#1334=CARTESIAN_POINT('',(600.,-253.675858423674,-24.9124803149209));
#1335=CARTESIAN_POINT('',(600.,-253.675858423674,-32.5892132425551));
#1336=CARTESIAN_POINT('',(405.15276790723,-253.675858423674,-24.9124803149209));
#1337=CARTESIAN_POINT('Origin',(608.310653146528,-177.518972518923,-24.9124803149209));
#1338=CARTESIAN_POINT('',(600.,-101.362086614172,-24.9124803149209));
#1339=CARTESIAN_POINT('',(600.,-177.518944494695,-24.9124803149209));
#1340=CARTESIAN_POINT('',(600.,-177.518944494695,-24.9124803149209));
#1341=CARTESIAN_POINT('',(811.468538385826,-101.362086614172,-24.9124803149209));
#1342=CARTESIAN_POINT('Origin',(405.15276790723,-101.361552507993,-54.1196315140167));
#1343=CARTESIAN_POINT('',(600.,-101.361552507993,-47.192788842103));
#1344=CARTESIAN_POINT('Origin',(405.15276790723,-101.362086614172,-24.9124803149209));
#1345=CARTESIAN_POINT('',(600.,-101.362086614172,-32.5892132425551));
#1346=CARTESIAN_POINT('Origin',(600.,-177.518916470467,-40.2659461701893));
#1347=CARTESIAN_POINT('Origin',(600.,-177.518916470467,-40.2659461701893));
#1348=CARTESIAN_POINT('Origin',(600.,-177.518916470467,-40.2659461701893));
#1349=CARTESIAN_POINT('',(706.468538460332,27.4994052896543,-56.3595222915487));
#1350=CARTESIAN_POINT('',(706.468538460332,-94.8914421512441,-45.7628072930645));
#1351=CARTESIAN_POINT('',(7.10542704489971E-14,0.200000000000102,31.4999999999434));
#1352=UNCERTAINTY_MEASURE_WITH_UNIT(LENGTH_MEASURE(0.01),#1360,
'DISTANCE_ACCURACY_VALUE',
'Maximum model space distance between geometric entities at asserted c
onnectivities');
#1353=UNCERTAINTY_MEASURE_WITH_UNIT(LENGTH_MEASURE(0.01),#1360,
'DISTANCE_ACCURACY_VALUE',
'Maximum model space distance between geometric entities at asserted c
onnectivities');
#1354=UNCERTAINTY_MEASURE_WITH_UNIT(LENGTH_MEASURE(0.01),#1360,
'DISTANCE_ACCURACY_VALUE',
'Maximum model space distance between geometric entities at asserted c
onnectivities');
#1355=UNCERTAINTY_MEASURE_WITH_UNIT(LENGTH_MEASURE(0.01),#1360,
'DISTANCE_ACCURACY_VALUE',
'Maximum model space distance between geometric entities at asserted c
onnectivities');
#1356=(
GEOMETRIC_REPRESENTATION_CONTEXT(3)
GLOBAL_UNCERTAINTY_ASSIGNED_CONTEXT((#1352))
GLOBAL_UNIT_ASSIGNED_CONTEXT((#1360,#1362,#1363))
REPRESENTATION_CONTEXT('','3D')
);
#1357=(
GEOMETRIC_REPRESENTATION_CONTEXT(3)
GLOBAL_UNCERTAINTY_ASSIGNED_CONTEXT((#1353))
GLOBAL_UNIT_ASSIGNED_CONTEXT((#1360,#1362,#1363))
REPRESENTATION_CONTEXT('','3D')
);
#1358=(
GEOMETRIC_REPRESENTATION_CONTEXT(3)
GLOBAL_UNCERTAINTY_ASSIGNED_CONTEXT((#1354))
GLOBAL_UNIT_ASSIGNED_CONTEXT((#1360,#1362,#1363))
REPRESENTATION_CONTEXT('','3D')
);
#1359=(
GEOMETRIC_REPRESENTATION_CONTEXT(3)
GLOBAL_UNCERTAINTY_ASSIGNED_CONTEXT((#1355))
GLOBAL_UNIT_ASSIGNED_CONTEXT((#1360,#1362,#1363))
REPRESENTATION_CONTEXT('','3D')
);
#1360=(
LENGTH_UNIT()
NAMED_UNIT(*)
SI_UNIT(.MILLI.,.METRE.)
);
#1361=(
LENGTH_UNIT()
NAMED_UNIT(*)
SI_UNIT($,.METRE.)
);
#1362=(
NAMED_UNIT(*)
PLANE_ANGLE_UNIT()
SI_UNIT($,.RADIAN.)
);
#1363=(
NAMED_UNIT(*)
SI_UNIT($,.STERADIAN.)
SOLID_ANGLE_UNIT()
);
#1364=SHAPE_DEFINITION_REPRESENTATION(#1367,#1373);
#1365=SHAPE_DEFINITION_REPRESENTATION(#1368,#1374);
#1366=SHAPE_DEFINITION_REPRESENTATION(#1369,#1375);
#1367=PRODUCT_DEFINITION_SHAPE('',$,#1377);
#1368=PRODUCT_DEFINITION_SHAPE('',$,#1378);
#1369=PRODUCT_DEFINITION_SHAPE('',$,#1379);
#1370=PRODUCT_DEFINITION_SHAPE($,$,#20);
#1371=PRODUCT_DEFINITION_SHAPE($,$,#21);
#1372=PRODUCT_DEFINITION_SHAPE($,$,#22);
#1373=SHAPE_REPRESENTATION('',(#813,#888,#889,#890),#1356);
#1374=SHAPE_REPRESENTATION('',(#814),#1357);
#1375=SHAPE_REPRESENTATION('',(#832),#1358);
#1376=PRODUCT_DEFINITION_CONTEXT('part definition',#1387,'design');
#1377=PRODUCT_DEFINITION('2026-08-10-23-31-28-577','Bottom_KeyboardR',#1380,
#1376);
#1378=PRODUCT_DEFINITION('2026-08-10-23-31-28-576','grippers',#1381,#1376);
#1379=PRODUCT_DEFINITION('2026-08-10-23-31-28-576_1','Component2',#1382,
#1376);
#1380=PRODUCT_DEFINITION_FORMATION('',$,#1389);
#1381=PRODUCT_DEFINITION_FORMATION('',$,#1390);
#1382=PRODUCT_DEFINITION_FORMATION('',$,#1391);
#1383=PRODUCT_RELATED_PRODUCT_CATEGORY('Bottom_KeyboardR',
'Bottom_KeyboardR',(#1389));
#1384=PRODUCT_RELATED_PRODUCT_CATEGORY('grippers','grippers',(#1390));
#1385=PRODUCT_RELATED_PRODUCT_CATEGORY('Component2','Component2',(#1391));
#1386=APPLICATION_PROTOCOL_DEFINITION('international standard',
'automotive_design',2009,#1387);
#1387=APPLICATION_CONTEXT(
'Core Data for Automotive Mechanical Design Process');
#1388=PRODUCT_CONTEXT('part definition',#1387,'mechanical');
#1389=PRODUCT('2026-08-10-23-31-28-577','Bottom_KeyboardR',$,(#1388));
#1390=PRODUCT('2026-08-10-23-31-28-576','grippers',$,(#1388));
#1391=PRODUCT('2026-08-10-23-31-28-576_1','Component2',$,(#1388));
#1392=PRESENTATION_STYLE_ASSIGNMENT((#1395));
#1393=PRESENTATION_STYLE_ASSIGNMENT((#1396));
#1394=PRESENTATION_STYLE_ASSIGNMENT((#1397));
#1395=SURFACE_STYLE_USAGE(.BOTH.,#1398);
#1396=SURFACE_STYLE_USAGE(.BOTH.,#1399);
#1397=SURFACE_STYLE_USAGE(.BOTH.,#1400);
#1398=SURFACE_SIDE_STYLE('',(#1401));
#1399=SURFACE_SIDE_STYLE('',(#1402));
#1400=SURFACE_SIDE_STYLE('',(#1403));
#1401=SURFACE_STYLE_FILL_AREA(#1404);
#1402=SURFACE_STYLE_FILL_AREA(#1405);
#1403=SURFACE_STYLE_FILL_AREA(#1406);
#1404=FILL_AREA_STYLE('Steel - Satin',(#1407));
#1405=FILL_AREA_STYLE('Powder Coat - Rough (Black)',(#1408));
#1406=FILL_AREA_STYLE('Rilsan Invent Natural - PA 11',(#1409));
#1407=FILL_AREA_STYLE_COLOUR('Steel - Satin',#1410);
#1408=FILL_AREA_STYLE_COLOUR('Powder Coat - Rough (Black)',#1411);
#1409=FILL_AREA_STYLE_COLOUR('Rilsan Invent Natural - PA 11',#1412);
#1410=COLOUR_RGB('Steel - Satin',0.627450980392157,0.627450980392157,0.627450980392157);
#1411=COLOUR_RGB('Powder Coat - Rough (Black)',0.0980392156862745,0.0980392156862745,
0.0980392156862745);
#1412=COLOUR_RGB('Rilsan Invent Natural - PA 11',0.964705882352941,0.964705882352941,
0.952941176470588);
ENDSEC;
END-ISO-10303-21;
